<svg xmlns="http://www.w3.org/2000/svg" viewBox="0 0 468 468"><defs><style>.a{fill:#cecbe6;}.b,.m{fill:none;}.b,.f{stroke:#000;}.b,.f,.m{stroke-linecap:round;stroke-miterlimit:10;}.b{stroke-width:2px;}.c,.h{fill:#010101;}.d,.i,.l{font-size:10px;}.d,.i,.l,.p{fill:#231f20;}.d{font-family:HelveticaNeue-Bold, Helvetica Neue;font-weight:700;}.e{letter-spacing:-0.11em;}.f{fill:#fff;}.g{letter-spacing:-0.02em;}.h{stroke:#010101;stroke-width:0.36px;}.i{font-family:HelveticaNeue, Helvetica Neue;}.j{letter-spacing:-0.02em;}.k{letter-spacing:0em;}.l{font-family:HelveticaNeue-LightItalic, Helvetica Neue;font-weight:300;font-style:italic;}.m{stroke:#999;}.n{letter-spacing:-0.11em;}.o{letter-spacing:-0.02em;}</style></defs><circle class="a" cx="324.78" cy="273.1" r="17.9"/><circle class="a" cx="244.78" cy="350.1" r="17.9"/><circle class="a" cx="162.88" cy="241.55" r="16.69"/><circle class="a" cx="140.36" cy="301.41" r="23.97"/><circle class="a" cx="260.48" cy="298.14" r="23.99"/><circle class="a" cx="236.78" cy="246.1" r="17.9"/><circle class="a" cx="320.64" cy="216.75" r="27.77"/><circle class="a" cx="157.64" cy="194.07" r="17.07"/><circle class="a" cx="154.16" cy="140.81" r="27.41"/><circle class="a" cx="203.77" cy="195.79" r="19.93"/><path class="b" d="M128.57,114c.77,14.74,3.83,21.24,5.88,21.13"/><path class="b" d="M234.58,61.81c.67,12.68,4,22.8,7.57,22.61"/><path class="b" d="M243.3,63c.61,11.76.1,21.34-1.15,21.4"/><path class="b" d="M251.93,64.68c.56,10.6-3.82,19.43-9.78,19.74"/><path class="b" d="M225.82,61.06c1.24,23.67,7,40.71,13.35,42.25"/><path class="b" d="M242.15,84.42c.54,10.33-.79,18.77-3,18.89"/><path class="b" d="M238.09,110.44c.56-3.17,1.21-4.59,1.08-7.13"/><path class="b" d="M260.47,66.79c1.23,23.42-8.78,42.94-22.38,43.65"/><path class="b" d="M308.35,88.5c-1.47,22.13-9.15,38.23-6.64,43.13"/><path class="b" d="M315.56,93.54c-1,15.56-6.57,33.42-13.85,38.09"/><path class="b" d="M322.5,98.94c-1.23,29.26-15.75,48.35-31.38,54.79"/><path class="b" d="M301.71,131.63c-5.23,11.05-8.33,16.36-10.59,22.1"/><path class="b" d="M293.18,79.61c1,19.37-3.68,35.34-10.5,35.7"/><path class="b" d="M285.26,75.76c-.9,19.76-4.68,36.25-2.58,39.55"/><path class="b" d="M277.17,121.36c-4.25-15.36.77-34.24,0-49"/><path class="b" d="M282.68,115.31c-1.51,3-2.64,5.13-5.51,6"/><path class="b" d="M300.88,83.86c-1.26,29.14-13.67,51-26.41,51.69"/><path class="b" d="M274.47,135.55a28.84,28.84,0,0,1,2.7-14.19"/><path class="b" d="M268.89,69.35c2.26,43.11-7.59,72.75-7.28,78.59"/><path class="b" d="M274.47,135.55c-3.51,8.47-8.25,12.15-12.86,12.39"/><path class="b" d="M247.35,162c50.66,9.86,77.74-13.76,81.38-58.54"/><path class="b" d="M291.12,153.73c-9.4,5.59-25.83,5.07-43.77,8.28"/><path class="b" d="M261.61,147.94c-3.9,5.63-7.08,8-14.26,14.07"/><path class="b" d="M238.09,110.44c-2.14,21,3.89,46.63,9.26,51.57"/><path class="b" d="M199.17,197.68c2.74-13.61,21.76-62.79,17.86-136.91"/><path class="b" d="M247.35,162a218.61,218.61,0,0,1-48.18,35.67"/><path class="b" d="M199.17,197.68c-7.61,3.63-32.11.34-35.47-2"/><path class="b" d="M125.33,87.25c.78,14.81,2.23,26.76,3.24,26.71"/><path class="b" d="M132.86,82.7c.9,17.11-1,31.09-4.29,31.26"/><path class="b" d="M140.62,78.56c.81,15.45,2.29,27.92,3.31,27.87"/><path class="b" d="M148.59,74.82c.9,17.29-1.18,31.42-4.66,31.61"/><path class="b" d="M173.5,66.19c.57,10.85,2.22,19.57,3.69,19.49"/><path class="b" d="M182.07,64.2c.61,11.7-1.57,21.31-4.88,21.48"/><path class="b" d="M190.73,62.66c.52,10,2,18,3.34,17.88"/><path class="b" d="M199.46,61.57c.54,10.3-1.87,18.79-5.39,19"/><path class="b" d="M177.19,85.68c.15,2.8,3.54,4.88,7.6,4.67"/><path class="b" d="M194.07,80.54a9.55,9.55,0,0,1-9.28,9.81"/><path class="b" d="M165.05,68.63c1.22,23.21,7.59,41.7,14.26,41.35"/><path class="b" d="M184.79,90.35c-.81,10.43-2.06,18.29-5.48,19.63"/><path class="b" d="M156.74,71.51c1.34,25.54,8.89,45.86,16.89,45.45"/><path class="b" d="M179.31,110c-.62,4.32-3.16,6.84-5.68,7"/><path class="b" d="M143.93,106.43c.85,16.11-4.15,25.58-9.48,28.66"/><path class="b" d="M134.45,135.09c.22,4.36,9.08,6.82,19,7.75"/><path class="b" d="M173.63,117a27.69,27.69,0,0,1-20.17,25.88"/><path class="b" d="M153.46,142.84c-4.6,17.67,6.32,49.36,10.24,52.85"/><path class="b" d="M123.37,369c.46-8.81,2.55-15.84,4.66-15.73"/><path class="b" d="M130.84,373.69c.58-11.16-.67-20.27-2.81-20.38"/><path class="b" d="M138.54,377.94c1-18.09-2.4-32.94-7.5-33.2"/><path class="b" d="M128,353.31c.26-4.81,1.6-8.65,3-8.57"/><path class="b" d="M381.63,256.2c-3.36-3.09-14.56-8.72-14.15-10.88"/><path class="b" d="M382.83,247.48c-4.56-2.16-15.35-3.68-15.35-2.16"/><path class="b" d="M384.11,238.72c-5.66-.84-36.95-3.08-36.95-.71"/><path class="b" d="M367.48,245.32c-4.44-1-20.32-4.59-20.32-7.31"/><path class="b" d="M324.79,240c-.34,6.49,42.89,15.49,55.16,24.86"/><path class="b" d="M347.16,238c-9.27-.48-22.24-.55-22.37,2"/><path class="b" d="M352.47,131c0,9.39,0,17-.08,17"/><path class="b" d="M357.4,138.23c0,5.37-2.24,9.71-5,9.71"/><path class="b" d="M361.94,145.76c0,3.53-3.55,6.39-7.94,6.39"/><path class="b" d="M352.39,147.94c0,2.33.72,4.21,1.61,4.21"/><path class="b" d="M347.16,123.93c0,16.23,1.07,29.37,2.39,29.37"/><path class="b" d="M354,152.15c0,.63-2,1.15-4.45,1.15"/><path class="b" d="M333.84,348.38c-3-14.4-20-15.59-25.11-13.18"/><path class="b" d="M327.41,354.39c-.56-5.39-2.42-10.76-3.44-10.81"/><path class="b" d="M324,343.58c0-.2-2.32-1.39-6.17-1.59"/><path class="b" d="M317.8,342c-1.39-1.16-7.83-.92-11.58-.61"/><path class="b" d="M320.68,360.06c0-6.86,1.37-14.49,3.29-16.48"/><path class="b" d="M313.67,365.37c.73-7.27,3.49-18.57,4.13-23.38"/><path class="b" d="M306.39,370.3c.05-11.35,5.84-24.93,11.41-28.31"/><path class="b" d="M298.85,374.84c-.92-7.64-2.45-14.91-4.58-15.43"/><path class="b" d="M291.1,379c.57-10.89,2-19.64,3.17-19.58"/><path class="b" d="M294.27,359.41c-.23-6.87,6.4-14.17,12-18"/><path class="b" d="M306.22,341.38a6.08,6.08,0,0,1,2.51-6.18"/><path class="b" d="M351.1,328.45c-.65-6.16-7.33-20-5.39-23.13"/><path class="b" d="M356.13,321.24c-2.8-8.57-8.79-17.31-10.42-15.92"/><path class="b" d="M360.78,313.77c-1.6-7.75-11.37-18.65-14.18-16.07"/><path class="b" d="M345.71,305.32c-.95-2-.45-5.8.89-7.62"/><path class="b" d="M346.6,297.7c-3.51-3.75-11.09-9.58-12.57-7.8"/><path class="b" d="M345.69,335.39c-3.2-14.23-14-40.17-11.66-45.49"/><path class="b" d="M334,289.9c-5.13-2.13-13.84-14.72-11.93-20.94"/><path class="b" d="M356,274.69c-1.89-3-23.42-6.24-33.86-5.73"/><path class="b" d="M375.28,281.78c-3.78-3.24-12.27-6.72-19.32-7.09"/><path class="b" d="M372.29,290.05c-4.73-5.38-8-10.81-16.33-15.36"/><path class="b" d="M368.87,298.15c-5.19-7.6-8-15.19-12.91-23.46"/><path class="b" d="M365,306.07c-4.1-8.83-8.82-22.51-9.07-31.38"/><path class="b" d="M283.13,382.72c-.74-6.92-12.69-15.43-22-14.79"/><path class="b" d="M275,386c-1-7.39-6.56-15.87-13.83-18.1"/><path class="b" d="M266.67,388.91c-.89-9.1-4.81-16.71-5.52-21"/><path class="b" d="M258.22,391.35c-.51-7.83-5.26-14.65-8.63-14"/><path class="b" d="M249.65,393.34c.46-8.8.43-15.95-.06-16"/><path class="b" d="M241,394.89c.52-9.91,4.71-16.7,8.6-17.53"/><path class="b" d="M249.59,377.36c.17-3.26,5.06-7.33,11.56-9.43"/><path class="b" d="M261.15,367.93c.31-5.93,15-19.81,25-24.91"/><path class="b" d="M308.73,335.2c-1.55-3.76-17.44,4.75-22.63,7.82"/><path class="b" d="M232.26,396c.42-8-1.13-14.58-3.46-14.7"/><path class="b" d="M223.49,396.6c.45-8.6,2.83-15.46,5.31-15.33"/><path class="b" d="M214.69,396.77c.6-11.4,4.48-20.46,8.68-20.24"/><path class="b" d="M228.8,381.27c.13-2.46-2.3-4.57-5.43-4.74"/><path class="b" d="M154.56,385.2c.26-5,2.61-8.95,5.25-8.81"/><path class="b" d="M162.83,388.19c.33-6.41-1-11.69-3-11.8"/><path class="b" d="M159.81,376.39a4.8,4.8,0,0,1,3.72-1.67"/><path class="b" d="M171.25,390.75c.5-9.64-3.29-15.8-7.72-16"/><path class="b" d="M163.53,374.72c.05-.94,4.73-2.17,8-1.45"/><path class="b" d="M179.78,392.86c.61-11.5-5.23-19.43-8.24-19.59"/><path class="b" d="M188.42,394.52c.38-7.2-7.22-20.53-10.15-22.6"/><path class="b" d="M197.14,395.73c-.22-10.24-10.37-20.79-18.87-23.81"/><path class="b" d="M171.54,373.27c.05-.94,4.64-1.46,6.73-1.35"/><path class="b" d="M205.9,396.48c.67-12.74-14.92-23.9-27.63-24.56"/><path class="b" d="M179.91,372.36c.11-2,5.9-3.36,13-3"/><path class="b" d="M223.37,376.53c.16-3.07-13.48-6.27-30.51-7.16"/><path class="b" d="M192.86,369.37c.26-5,35.55-14.82,52.16-20.14"/><path class="b" d="M286.1,343c-1.2-3.37-31.44,2.24-41.08,6.21"/><path class="b" d="M261.79,305.74c-5.63,6-19.34,35-16.77,43.49"/><path class="b" d="M322.1,269c-6.16-2.24-50.65,28.64-60.31,36.78"/><path class="b" d="M348.36,160.76c1.19,3,14.68,0,17.73-7.24"/><path class="b" d="M349.55,153.3c-2.22,2.89-2.39,6-1.19,7.46"/><path class="b" d="M347.16,166.61c1.2,2.47,17.88,3,22.66-5.12"/><path class="b" d="M348.36,160.76c-1.75,2-1.93,4.58-1.2,5.85"/><path class="b" d="M338.09,170.79c-1.41-2.56,3.33-46.86,4.53-53.26"/><path class="b" d="M338.09,170.79c.73,1,5.78-1.68,9.07-4.18"/><path class="b" d="M376,178c-3.69,4.09-10.36,11.87-9.48,14.56"/><path class="b" d="M378.46,186.41c-2.83,4.28-11.11,8.88-11.92,6.11"/><path class="b" d="M358.19,201.43c.73,2.87,16.36-.75,22.25-6.46"/><path class="b" d="M366.54,192.52c-4.88,2.5-8.78,6.57-8.35,8.91"/><path class="b" d="M336,186.4c-.93-2.7,0-13.36,2.12-15.61"/><path class="b" d="M336,186.4c2.12,7.52,13.58,17.81,22.22,15"/><path class="b" d="M336,186.4c.61,3.49,29.67-6.65,37.16-16.76"/><path class="b" d="M362.42,221.13c0-3.68,14.34-4.73,20.65-8.77"/><path class="b" d="M362.42,221.13c.13,1.55,12.12,1.59,21.28,0"/><path class="b" d="M383.87,229.93c-8.76,0-25.74-3.58-25.74-5.87"/><path class="b" d="M362.42,221.13c-2.15,0-4.29,2.14-4.29,2.93"/><path class="b" d="M382,203.63c-7.49,6.39-33.05,15.52-33.05,17.5"/><path class="b" d="M358.13,224.06c-3.56.19-9-1.34-9.19-2.93"/><path class="b" d="M320.7,202.71c-.78-4.22,7.23-12.82,15.27-16.31"/><path class="b" d="M348.94,221.13c-10.85.59-27.51-14.92-28.24-18.42"/><path class="b" d="M320.7,202.71c-3.95,1.1-7.9,7.36-7.9,9.65"/><path class="b" d="M324.79,240c-3.36-.08-12-23.21-12-27.6"/><path class="b" d="M238.07,247.48c-1.29,10,11.82,45.67,23.72,58.26"/><path class="b" d="M312.8,212.36c-18.38,2.91-73.4,26.81-74.73,35.12"/><path class="b" d="M165.49,236c1.07-2.09,50.62,6.42,72.58,11.53"/><path class="b" d="M165.49,236c-1.77,5.6-37.76,77.23-34.45,108.79"/><path class="b" d="M163.7,195.69c-7,4.89-17.66,27-17.66,32.63"/><path class="b" d="M165.49,236c-7.47-.55-19-3.82-19.45-7.63"/><line class="b" x1="146.04" y1="228.32" x2="61.5" y2="228.56"/><path class="c" d="M195.57,354.64v0s0,0,0,0,0,0-.07,0-.08-.07-.09-.05l0,.05s0,.06,0,0-.13-.07-.13-.06l0,0s0,0,0,0,0,0,0,0-.07-.06-.08,0,0,0-.06,0h-.06l0,0s0,0,0,0l-.08,0c-.08,0-.09,0-.09,0s0,0,0,0l-.08,0s-.08,0-.08,0l-.11,0-.2,0h-.27a.12.12,0,0,0-.08,0,.23.23,0,0,1-.12,0h-.2a.08.08,0,0,0-.06,0l0,0-.2,0c-.16,0-.19,0-.22,0s-.06,0-.19,0l-.4-.06a1.42,1.42,0,0,1-.35,0l-.15,0H192a1.15,1.15,0,0,0-.36,0l-.3,0a1.18,1.18,0,0,0-.31.05l-.27.07-.19.05-.14.05-.09,0-.06,0-.1,0-.12,0-.1,0a.34.34,0,0,1-.12,0l-.16,0-.15,0-.11,0-.08,0-.14,0-.14.06-.1,0-.16.05-.14,0h0a.2.2,0,0,0-.09,0l-.14,0-.09,0h-.06l-.08,0-.11,0-.13,0-.18.07a.83.83,0,0,0-.21.09l-.1,0-.13.06-.17,0s-.08,0-.09,0a.8.8,0,0,1-.27.11l-.15.06c-.08.06-.11.07-.15.07l-.06,0-.07,0-.06,0-.19.07a.28.28,0,0,0-.12,0l-.09,0-.07,0a.56.56,0,0,1-.21.07l-.09,0-.06,0s0,0-.08,0l-.12.05-.21.08-.3.1-.19.09-.18.07-.11,0-.15.07a2.61,2.61,0,0,0-.38.21l-.35.23-.13.07-.07,0a.22.22,0,0,1-.1,0h-.21a.41.41,0,0,0-.19,0,3.67,3.67,0,0,1-.5.06,1.54,1.54,0,0,1-.32,0h-.1a.09.09,0,0,1-.07,0,1.08,1.08,0,0,0-.22,0l-.21,0h-.07l-.16,0a1.06,1.06,0,0,0-.22,0l-.19.05-.16,0h-.06l-.25.08a.15.15,0,0,0-.06,0,1.14,1.14,0,0,1-.27.17,2.71,2.71,0,0,0-.38.22l-.13.1-.33.28-.09.08-.08.08a.55.55,0,0,1-.13.14.5.5,0,0,0-.1.13.28.28,0,0,1-.06.09.24.24,0,0,0-.06.1l-.08.12a1.38,1.38,0,0,0-.08.17,1.13,1.13,0,0,1-.06.14s0,0-.15.41a6.1,6.1,0,0,0-.2.89c0,.08,0,.24,0,.34a.33.33,0,0,0,0,.14.25.25,0,0,1,0,.08.28.28,0,0,0,0,.18.24.24,0,0,1,0,.14.35.35,0,0,0,0,.17v.25a.17.17,0,0,1,0,.1v.33a.41.41,0,0,0,0,.11s0,.08,0,.13a1.64,1.64,0,0,0,.06.33s0,.07,0,.19v.1s0,.07,0,.12a.41.41,0,0,0,0,.12,2,2,0,0,1,0,.3.51.51,0,0,0,0,.16.24.24,0,0,1,0,.09.92.92,0,0,0,0,.15,1,1,0,0,1,0,.17V365a3.66,3.66,0,0,1,0,.74,1.65,1.65,0,0,1,0,.39.41.41,0,0,0,0,.1s0,.22-.09.43-.1.43-.1.47,0,.12,0,.16a.88.88,0,0,1,0,.17v.17s0,.11,0,.19a1.45,1.45,0,0,1-.06.29s0,.14-.06.29a1.05,1.05,0,0,1-.09.29.24.24,0,0,0,0,.13v.1s0,.08,0,.16a.58.58,0,0,0,0,.23c0,.16,0,.18.23.26,0,0,.05,0,.1,0a.44.44,0,0,0,.25-.19l.14-.18.08-.09.07-.24a6.06,6.06,0,0,0,.2-.9,2.63,2.63,0,0,0,0-.83c0-.08,0-.22,0-.31a.82.82,0,0,0,0-.19v-.13a.42.42,0,0,0,0-.16c0-.05,0-.54,0-.67v-.08a2.38,2.38,0,0,1,0-.39.42.42,0,0,0,0-.16.56.56,0,0,0,0-.07.32.32,0,0,0,0-.08,2.4,2.4,0,0,1,0-.38s0-.11,0-.19,0-.14,0-.14l0-.1c0-.08,0-.34,0-.47s0-.08,0-.11a.59.59,0,0,0,0-.13.31.31,0,0,0,0-.11,2.37,2.37,0,0,1,0-.33c0-.08,0-.22,0-.36v-.14a1,1,0,0,1,0-.38c0-.06,0-.15,0-.2a.91.91,0,0,1,0-.17s0-.09,0-.1a2.8,2.8,0,0,1,.12-.65,1.89,1.89,0,0,1,.15-.5.61.61,0,0,0,.08-.18,1.22,1.22,0,0,1,.05-.17l.13-.24,0,0,0,0a.07.07,0,0,0,0-.06l0-.07,0-.06a.18.18,0,0,1,0-.07.58.58,0,0,0,.17-.2l.07-.05a.21.21,0,0,0,.07,0s0,0,.12-.11a.14.14,0,0,0,.07-.06s0-.05.13-.08l0,0a0,0,0,0,1,0,0s0,0,.05,0,.1-.1.07,0v0h0a.38.38,0,0,1,.2-.11.44.44,0,0,0,.13-.05l.09,0c.06,0,.07,0,.08,0s.07,0,.08,0a.7.7,0,0,1,.19-.13s0,0,0,0a.05.05,0,0,0,0,0s0,0,.06,0a.56.56,0,0,1,.18-.1s0,0,0,0,0,.07.07,0,.1,0,.08,0,0,.08,0,.08l0,0,0,0a.06.06,0,0,0,0,0s0,0,.05,0,0,0,0,0,0,.06,0,.07,0,0,.05-.05,0,0,.06,0,0,0,0,0a0,0,0,0,0,0,0,.28.28,0,0,0,.11-.08,0,0,0,0,1,.05,0s0,0,0,0,0,.07,0,.07l.05,0c.06-.06.14-.07.09,0s0,.06,0,.08,0,0,.06,0l.07-.05h.07l0,0c-.05,0,0,.09,0,.05h0s0,0,0,0a.14.14,0,0,1,.12-.06h.1l.12,0a1.28,1.28,0,0,1,.35.06l.12,0,0,0,0,.08s0,.05-.06.17a.57.57,0,0,0,0,.22c0,.08,0,.08,0,.18a1.12,1.12,0,0,0-.07.42c0,.09,0,.11,0,.13s0,0,0,.06a.12.12,0,0,1,0,.1.13.13,0,0,0,0,.09s0,.05,0,.08a.17.17,0,0,0,0,.1.71.71,0,0,1,0,.14.53.53,0,0,0,0,.13.23.23,0,0,1,0,.07.15.15,0,0,0,0,.06v.1a.09.09,0,0,0,0,.07.17.17,0,0,1,0,.1.19.19,0,0,0,0,.15.6.6,0,0,1,0,.12s0,.09,0,.13a.37.37,0,0,1,0,.15.24.24,0,0,0,0,.12.28.28,0,0,1,0,.1.54.54,0,0,1,0,.11v.11a3.44,3.44,0,0,0,0,.35.19.19,0,0,1,0,.11.31.31,0,0,0,0,.1.08.08,0,0,1,0,.07.24.24,0,0,0,0,.1c0,.11-.06.15-.2.2s-.11,0-.06,0,0,0,0,0,0,0,0,0l-.08,0-.1,0c-.05,0,0,0,0,0s0,0,0,0,0,0-.09,0-.08,0-.08,0,0,0,0,0a.07.07,0,0,1,0,0s0,0-.14,0,0,0,0,0l0,0h-.08l-.08,0,0,0c-.05,0,0,0,0,0s0,0,0,0a.16.16,0,0,1-.14,0s0,0,0,0,0,0,0,0,0,0-.06.06-.1.05,0,.06,0,0,0,0-.11,0-.11.08,0,0-.05.05a.42.42,0,0,0-.13.14s0,0,0,.06,0,0,0,0l-.06,0c-.05,0-.06.05,0,.05s0,0,0,0l-.05,0a.13.13,0,0,1,0,.07l0,.06s-.06.06-.14.06-.08,0-.08,0,0,0,0,0,0,0,0,.11-.06.06-.08.06a.16.16,0,0,0-.09.05s0,0,0,0,0,0,0,0,0,0-.07,0-.09,0,0,0,0,0,0,0-.06,0-.06,0h.06s0,0,0,0l-.06,0s-.05,0-.05,0,0,0,0,0h0l0,0s0,0-.05,0,0,0,0,0,0,0,0,0,0,0,0,.06,0,0,0,.05h0s0,0,0,0a.2.2,0,0,1-.12,0l0,0a0,0,0,0,0,0,0h.05l-.05,0c-.06,0,0,.05,0,0h0l0,.07s0,.08,0,.08v0a.1.1,0,0,0,0,.08.41.41,0,0,1-.07.25.2.2,0,0,0,0,.05s0,0,0,0,0,0,.05,0,0,0,0,0a.32.32,0,0,0,0,.08,1.21,1.21,0,0,1,0,.38c0,.07,0,.21,0,.21s0,0,0,0l0,.12a1.81,1.81,0,0,0,.05.25.34.34,0,0,1,0,.11.23.23,0,0,0,0,.11.08.08,0,0,1,0,.06.37.37,0,0,0,0,.09.13.13,0,0,1,0,.08.26.26,0,0,0,0,.15.13.13,0,0,1,0,.05s0,.05,0,.09l0,.05s0,0,0,0a.53.53,0,0,0,.05.15.23.23,0,0,1,.07.14c0,.06,0,.1.06.09a.07.07,0,0,1,.06,0c0,.07.08.09.25.13l.16,0,.07,0a.14.14,0,0,1,.12,0c.07,0,.1,0,.12,0l0,0c.06,0,.1,0,.1-.08s0,0,0,0,0,0,0,0h0s0,0,0,0a.53.53,0,0,0,0-.12c0-.05,0-.06,0-.06s0,0,.05-.09v-.07h.05s.06,0,.06,0a.2.2,0,0,0,0-.11,0,0,0,0,1,0-.05.21.21,0,0,0,0-.13s0-.08,0-.27,0-.13.08-.17.07-.09,0-.14,0-.14,0-.15,0,0-.07-.07l-.07-.05a.21.21,0,0,0,0-.07c-.08-.13-.12-.22-.11-.27a.19.19,0,0,0,0-.1.11.11,0,0,1,0-.07.26.26,0,0,0,0-.1.2.2,0,0,1,0-.08.23.23,0,0,1,.07-.07l.07-.05a.11.11,0,0,1,.09-.05.07.07,0,0,0,.06,0l0,0,.08,0,.09-.05.13-.05a.79.79,0,0,1,.3-.1,1.51,1.51,0,0,0,.36-.18l.05,0,0,0a.13.13,0,0,1,.11-.06h0l0,.05s0,0,0,.05,0,0,.05-.06.1-.12.12-.11,0,0,0,0,0,.08,0,.06l0,0,.06-.06.08-.07a.09.09,0,0,1,0,0s0,0,0,0,0,.06,0,0,.06-.1.09-.09a.18.18,0,0,1,0,0c0,.05,0,.06,0,0s0,0,0-.05,0,0,0-.06l0-.05h0s0,0,0,.05,0,.05,0,0l0,0a.24.24,0,0,0,0-.07c0-.06,0-.09,0-.08s0,0,0,0,0,0,0,0,0,0,0,0,0-.08,0-.06a.06.06,0,0,1,0,0s0,0,0,0,0,0,0,0a.29.29,0,0,1,0-.14s0,0,0,0a.12.12,0,0,0,0,.05s0,0,0-.05,0,0,0-.07.05,0,0,0,0,.05,0,0,0,0,0,0a0,0,0,0,0,0,0,1,1,0,0,0,.1-.26s0-.05,0-.05,0,0,0,.07,0,.07,0,.07,0,0,0,0,0,0,0,0,0,0,0,0,0,0,.06-.1l.06-.06v.05c0,.11,0,0,.08-.1s.07-.15.07-.11,0,0,0,.06,0,0,0-.06a.54.54,0,0,1,.1-.19s0,0,0,0,0,.05,0,.05,0,0,0-.09a.51.51,0,0,1,.18-.28s0,0,0-.1a.36.36,0,0,0,0-.16.12.12,0,0,1,0-.09,2.72,2.72,0,0,0,.16-.45c0-.12,0-.13.08-.16l.06-.08s0-.06.07-.07l.07,0h0s.05.11,0,.16a.37.37,0,0,1,0,.09c0,.06,0,.08,0,.06s0,0,0,0,0,.1-.06.12,0,.05,0,0l0,0v0a.06.06,0,0,0,0,.06s0,0,0,.07l0,.05s0,0,0,0l0,0a1,1,0,0,1-.09.21s-.05.06,0,.07l0,0s.07,0,0,0a.89.89,0,0,1-.09.15s0,0,0,0,.05,0,.06,0,0,.13-.06.17,0,.09,0,.06,0,.14-.05.26a.17.17,0,0,0,0,.09s0,0,0,0,0,0,0,0,0,.08,0,.12,0,.05,0,.05,0,0,0,0,0,0,.05,0,0,0,0,0,0,0,0,.06l0,.07s0,.07,0,.07l0,0,0,0s0,0,0,0a.21.21,0,0,0,0,.07l-.05.08s0,.05,0,0,0,0,0,0,0,0,0,0,0,.07,0,.07l0,0s0,0,0,0a.29.29,0,0,1,0,.08s0,0,0,0,0,0,0,0l0,0s0,0,0,.06-.09.16-.07.16,0,0,0,0h0s0,0,0,0,0,0,0,0,0,0,0,0a.38.38,0,0,1,0,.1.59.59,0,0,0,0,.26.06.06,0,0,1,0,.06.13.13,0,0,0,0,.07.45.45,0,0,1,0,.08s0,.12.09.16l0,.07c0,.06,0,.08.33.15l.24.06.17.06.19.06a.08.08,0,0,0,.07,0h0l0,.05s.07,0,.14,0h.43s0,0,0,.08,0,.09.05.08l.07,0c.05,0,.05,0,.09,0s.06,0,.09,0a.08.08,0,0,0,.09,0,.11.11,0,0,0,.08-.09.08.08,0,0,1,0,0l0-.08s0-.05.08-.09l.1-.07s.05,0,.12,0a.29.29,0,0,0,.14,0l.25-.07h.26l.16,0a.27.27,0,0,0,.15-.06c0-.06.13-.12.15-.11s.07,0,.07-.05,0-.05-.08-.06l-.09-.05a.59.59,0,0,0-.22-.06l-.27-.07-.15,0-.19,0a.35.35,0,0,0-.16,0l-.15,0-.15,0h-.13s-.07,0-.08,0h-.33a.48.48,0,0,1-.33-.1c-.12-.09-.14-.2-.08-.45a2.85,2.85,0,0,1,.2-.54,1,1,0,0,0,.08-.27l.08-.29a1.23,1.23,0,0,0,0-.13c0-.08,0-.08,0-.07s0,0,0,0a.56.56,0,0,1,0-.23s0,0,0,0,0,0,0,0,0,0,0-.12a.17.17,0,0,1,0-.1s0,0,0,0l0,0a1.58,1.58,0,0,0,.1-.36l0-.18a3.4,3.4,0,0,0,.08-.41s0-.05,0-.07a.16.16,0,0,0,0-.14s0,0,0-.05a2.4,2.4,0,0,0,0-.27.93.93,0,0,0,0-.1.14.14,0,0,1-.05-.09.15.15,0,0,0,0-.07,3.14,3.14,0,0,1-.24-.33l-.11-.15a.17.17,0,0,1,0-.12.26.26,0,0,0-.06-.16l-.08-.13s0-.07,0-.09a.43.43,0,0,1,.25,0,.43.43,0,0,0,.13,0,2.4,2.4,0,0,1,.53.09,1.2,1.2,0,0,0,.37,0h.41a2,2,0,0,0,.36,0l.14,0,.1,0h.09l.08,0,.08,0,.08,0,.1,0h.09l.08,0s0,0,.07,0l.06,0,.11,0c.09,0,.11-.05.15,0s.07,0,0,.15-.05.12,0,.13h0s0,.05,0,.09,0,.06,0,.06,0,0,0,0,0,.05,0,0l0,0v0a.13.13,0,0,1,0,.06s0,0,0,0,.06,0,0,.06-.08.05-.08.07l.07,0,.05,0v0a.07.07,0,0,1,0,.06s0,0,0,0H190s0,.05,0,.1,0,.06,0,.07h0s0,0,0,0a.23.23,0,0,1,0,.09s0,.08,0,0l0,0v0a.44.44,0,0,1,0,.15s0,0,0,.06,0,.09,0,.12l0,0s0,0,0,0,0,0,0,.05a0,0,0,0,0,0,0s0,0,0,0,.05,0,.05,0l0,.07c0,.05,0,.06,0,0l0,0,0,.08c0,.06,0,.08,0,.09s0,0,0,.07,0,.06,0,.07a0,0,0,0,0,0,0s0,0,0,0a.21.21,0,0,1,0,.11s0,.07,0,0,0,0,.06,0,0,0,0,.05,0,.07,0,.07l0,0,0,0s0,.1,0,.11,0,.06,0,.06h.05s0,0,0,0a.18.18,0,0,0,0,.13h0s0,0,0,0,0,0,0,.09,0,.09,0,.06,0,0,0,.07,0,.07,0,0,0,0,0,0a.52.52,0,0,1,.07.27s0,0,0,0l0,0,0,0a.69.69,0,0,0,.05.13c0,.08,0,.1,0,.16s0,.08,0,.06.08.09.09.16a.19.19,0,0,0,0,.09s0,0,0,.12a.25.25,0,0,0,.05.11s0,.08,0,.09l.05.08a.71.71,0,0,1,.09.24.92.92,0,0,0,.11.29.47.47,0,0,0,.23.23.15.15,0,0,1,.06.05.19.19,0,0,0,.09.05.67.67,0,0,1,.32.19.65.65,0,0,0,.23.13s0,0,.11.15a.13.13,0,0,0,.09.09.12.12,0,0,1,.05.05s0,0,.06.06.13,0,.13-.13,0-.13,0-.13a.48.48,0,0,1,.12.1l0,.08a.52.52,0,0,1,.07.11c0,.05.05.07.09.08s.13,0,.14-.06a.1.1,0,0,1,.1-.05l.08,0,0,0,0-.07a.41.41,0,0,1,0-.19.57.57,0,0,0,0-.12v0h0a.06.06,0,0,0,.07,0s0-.05,0-.13a1.24,1.24,0,0,0-.16-.22.41.41,0,0,1-.1-.16s-.06-.09-.11-.12l-.14-.07c-.26-.1-.33-.15-.36-.24a.16.16,0,0,1,0-.1c0-.06.06-.11.09-.1s0,0,0,0,0,0,0,0a.07.07,0,0,1-.05,0,.27.27,0,0,0-.29,0c-.05,0-.07,0-.15,0l-.1,0s0-.12,0-.35a2.07,2.07,0,0,0,0-.35.17.17,0,0,1,0-.1,4,4,0,0,1,.1-.58c.05-.19.06-.25,0-.32s0,0,0-.08a.79.79,0,0,0,0-.21.33.33,0,0,1,0-.1,1,1,0,0,0,0-.31.45.45,0,0,1,0-.12c0-.21,0-.31.05-.37l0,0,0,.05a.19.19,0,0,0,.07.06l.07,0,.06,0a.31.31,0,0,1,.16.09.24.24,0,0,0,.1.06l.1.06.14.06c.09,0,.12,0,.13.07l.09.05.1.05a4.93,4.93,0,0,0,1.16.28,2.28,2.28,0,0,1,.34,0l.17,0a.4.4,0,0,1,.21,0c.12,0,.13,0,.17.09s.07.08.13.06l.09,0c.07,0,.09,0,.15-.12a.28.28,0,0,0,.06-.23v-.08l.06-.09.06-.11a.68.68,0,0,1,.22-.12.53.53,0,0,0,.16-.09.08.08,0,0,1,.06,0l.09,0,.1,0a.21.21,0,0,0,.14,0l0,0c.05,0,.07-.08.05-.11s-.09,0-.17,0a.18.18,0,0,1-.1,0h-.23l-.12,0a.47.47,0,0,1-.16.05l-.08,0a.3.3,0,0,1-.1,0,.3.3,0,0,0-.12,0,.68.68,0,0,1-.22.08l-.07,0,0,0A1.68,1.68,0,0,1,195,361a2,2,0,0,1-.37-.17l-.26-.16a.94.94,0,0,1-.14-.1l-.13-.11-.1-.1-.06-.06a1.51,1.51,0,0,1-.25-.18,2.22,2.22,0,0,0-.29-.21,1,1,0,0,1-.22-.17c-.1-.1-.15-.16-.16-.21s0,0,0-.06l.06-.07c0-.07,0-.07.06,0s0,0,0,0,0-.08,0-.07,0,0,0,0a.23.23,0,0,1,0-.07s0,0,0,0l0,0s0,0,0-.05,0,0,0-.09l0-.07,0,0c0,.05.05.05,0,0s0,0,0-.06v-.08s0,0,0,0,0,0,0,.07,0,0,0,0a.08.08,0,0,0,0-.05s0,0,0,0v0s0,.06,0,0a.13.13,0,0,0,0,0s0-.05,0-.05v0s0,0,0,0a.11.11,0,0,0,0,0s0,0,0-.06l0,0,0,0s0,0,0,0a.29.29,0,0,0,0-.13s0,0,0,0l0,0s0-.06,0-.05a.08.08,0,0,1,0,.07c0,.07,0,.08,0,0s0-.05,0-.05l0-.06v0a.15.15,0,0,1,0,.06c0,.06,0,0,0,0s0-.06,0,0a.17.17,0,0,1,0,.08c0,.07,0,.07.05,0l0-.07,0,0s0,0,.09,0l.06,0s0,0,0,.08,0,0,0,0l0,0s0,0,0,0,0,0,0,.06,0,0,0,0a.12.12,0,0,1,.14,0c.06,0,.07,0,0,0l0,0h.08l.11,0s0,0,0,0,0,.07,0,0l0,0s0,0,0,0h0s0,0,0,0,0,.07,0,.05.05,0,.05,0,0,0,0,0,0,0,0,.06,0,.07,0,0h0l0,0c0-.05,0-.05,0,0s0,0,0,0,0,0,0,0,0-.06.06,0a.06.06,0,0,1,0,.06s0,.05,0,.05,0,0,0,0,0-.06.05-.05,0,0,0,0,0,.05,0,0,0-.08.06-.08,0,0,0,.05,0,.09,0,0a.19.19,0,0,1,0-.09c0-.06,0-.06,0,0v.05s0,0,0,0v-.05s0,0,0,0a.07.07,0,0,1,0,0s0,0,0,0,0,0,0,0,0-.06.05,0,0,.07,0,0,0-.06,0-.07a.07.07,0,0,1,.08.09s0,.05,0,.06,0,0,0-.05,0-.07,0-.07a0,0,0,0,1,0,0s0,0,0,0l0,0s0,0,.05,0,0,0,0,0,0,0,0,0a.36.36,0,0,0,.13-.05c.09-.05.1-.06.11-.1a.26.26,0,0,1,0-.09.13.13,0,0,0,0-.07l.05-.08.17-.2s0-.07.08-.25.06-.26.07-.33a.93.93,0,0,1,.15-.41c.05-.08.06-.12,0-.16a.05.05,0,0,0-.05,0s-.15-.1-.14-.13l0,0a.06.06,0,0,0,0-.06.67.67,0,0,1,0-.17c.05-.15.07-.17.11-.19a.15.15,0,0,0,0-.06l.05-.07a.9.9,0,0,0,.11-.28h0s0,0,0,0l0-.08c0-.06,0-.1,0-.1l0,0s0,0,0-.06,0-.06,0-.07,0,0,0,0a.1.1,0,0,0,0,0s0,0,0,.07v.06l0,0a.62.62,0,0,1,0-.1.22.22,0,0,0,0-.06s0,0,0,.06,0,.06,0,.05,0,0,0-.05,0-.12,0,0,0,0,0,0,0-.07,0,0l0,0s0-.05,0-.05,0,0,0,0,0-.08,0-.07a0,0,0,0,0,0,0c0,.05,0,0-.05,0s0-.06,0-.06,0,0,0,0,0,0,0,0-.06,0-.11-.1-.06-.08-.06,0,0,0,0,0l-.1-.08c-.06-.06-.11-.08-.08,0s0,0,0,0,0,0-.06,0a.19.19,0,0,0-.11-.1s0,0,0,.05l0,0h0s0,0-.1,0a.5.5,0,0,1-.06-.08Zm-13.93,13s0,0,0,0,0,0,0,0A0,0,0,0,1,181.64,367.62Z"/><path d="M319.5,326.75a1.47,1.47,0,0,0-.1.13.21.21,0,0,1-.28,0c-.08-.05-.13-.13-.2-.18a6.23,6.23,0,0,1-.93-1,3.63,3.63,0,0,1-.43-.71c-.22-.42-.42-.85-.62-1.28a4.88,4.88,0,0,1-.38-1.34c-.06-.4-.15-.8-.21-1.2s-.05-.57-.08-.85l-.18-1.31a4,4,0,0,0-.08-.5,1.83,1.83,0,0,1,0-.33,6,6,0,0,0-.24-1.51,1.77,1.77,0,0,0-.15-.38.84.84,0,0,0-.38-.26c-.07,0-.15,0-.19.12a.33.33,0,0,0,0,.26,2.87,2.87,0,0,1,.22.55,1.81,1.81,0,0,1,0,1c0,.19-.1.37-.13.56a4.61,4.61,0,0,0,0,.52.35.35,0,0,0,.06.18,4.56,4.56,0,0,1,.42.86,2.88,2.88,0,0,1,.18,1.3,5.15,5.15,0,0,1-.32,1.21c-.18.42-.34.85-.51,1.28l-.52,1.33c-.08.22-.16.44-.23.66a2.87,2.87,0,0,1-.24.57c0,.05,0,.08,0,.1.29.11.58.24.89.33a3.34,3.34,0,0,1,.8.29,2.13,2.13,0,0,0,.41.18,2.33,2.33,0,0,0,.69.17.48.48,0,0,1,.33.21,9.56,9.56,0,0,0,.6.82.28.28,0,0,1,0,.36,3.63,3.63,0,0,0-.46,1.18,3,3,0,0,1-.08.32.13.13,0,0,1-.16.1c-.19,0-.23-.05-.31-.22a.86.86,0,0,1,0-.75,1.43,1.43,0,0,0,.09-.37.22.22,0,0,0-.08-.2,1,1,0,0,1-.24-.29.39.39,0,0,0-.37-.19,3.77,3.77,0,0,1-1.06,0,3,3,0,0,0-.31,0,2.52,2.52,0,0,1-.47-.06l-.63-.09s0,0,0,.06a2,2,0,0,1,.4.72c.06.14.12.28.19.42a1.75,1.75,0,0,1,.12.32,2.19,2.19,0,0,0,.29.8,2,2,0,0,0,.36.45,5.56,5.56,0,0,1,.47.5.33.33,0,0,1,.06.29.52.52,0,0,1-.2.34,1,1,0,0,0-.38.45,3,3,0,0,0-.19.36.1.1,0,0,1-.11.08,2.66,2.66,0,0,1-.63,0,3.17,3.17,0,0,0-.87,0c-.18,0-.35,0-.52,0s-.19-.11-.12-.24a.31.31,0,0,1,.29-.18,1.83,1.83,0,0,0,.59-.18.15.15,0,0,0,.06-.05,1.87,1.87,0,0,0,.15-.32,1.94,1.94,0,0,1,.13-.3.3.3,0,0,0,0-.29l-.45-.8c-.12-.22-.27-.41-.4-.61a4.33,4.33,0,0,0-.3-.41c-.2-.27-.42-.53-.64-.79-.07-.09-.09-.2-.17-.29a2.55,2.55,0,0,1-.26-.38,2.2,2.2,0,0,1-.13-.36.45.45,0,0,1,0-.2c0-.28,0-.56,0-.84a5.13,5.13,0,0,1,.24-1.46,1.83,1.83,0,0,0,.12-.46c0-.23.14-.46.17-.69a2.3,2.3,0,0,1,0-.26c0-.2.12-.39.17-.59a4.14,4.14,0,0,0,.19-.79.73.73,0,0,0-.14.16c-.22.29-.43.6-.66.89a1.2,1.2,0,0,1-.79.43l-.68.11-.37.1c-.37.1-.74.16-1.11.25l-.68.18a1.79,1.79,0,0,1-.46,0c-.16,0-.31,0-.47,0a.11.11,0,0,0-.09,0c.11.07.22.12.32.19a.86.86,0,0,1,.14.13,1.2,1.2,0,0,1,.24.65,1.87,1.87,0,0,0,0,.53c.07.29.11.58.18.87s.15.62.22.94a3,3,0,0,0,.21.57,1,1,0,0,1,.09.29,2.38,2.38,0,0,0,.15.45,3.82,3.82,0,0,1,.23,1,.36.36,0,0,0,.2.31,2.23,2.23,0,0,1,.24.19l.77.49.05,0a.23.23,0,0,1,.19.25.92.92,0,0,0,.05.28.44.44,0,0,1,0,.37,1.3,1.3,0,0,0-.08.17.32.32,0,0,1-.14.14.49.49,0,0,0-.2.18.29.29,0,0,1-.39.16,1.42,1.42,0,0,0-.5-.08c-.05,0-.09,0-.11-.05a.09.09,0,0,1,.05-.11.52.52,0,0,1,.19-.11,1.57,1.57,0,0,0,.23-.09.21.21,0,0,0,.11-.31v0c0-.11-.06-.16-.1-.23s0,0,0,0h0c-.17-.07-.37-.05-.54-.12a.88.88,0,0,1-.36-.24,1.86,1.86,0,0,1-.32-.5,12.74,12.74,0,0,0-.75-1.53,6.65,6.65,0,0,1-.41-.85c-.11-.29-.24-.56-.36-.83,0,0,0,0,0,0a3.1,3.1,0,0,1-.3-.92.69.69,0,0,0-.21-.32l-.07-.07a1.29,1.29,0,0,0-.64-.41,1.36,1.36,0,0,1-.63-.38,2.59,2.59,0,0,0-.5-.37l-.2-.15a.91.91,0,0,0-.5-.19c-.05,0-.06,0,0,.05a1.17,1.17,0,0,1,.16.34,1.36,1.36,0,0,0,.13.3.72.72,0,0,1,.07.59l-.06.21a.42.42,0,0,1-.12.26l0,.06a1.84,1.84,0,0,1-.15.35c-.06.12-.09.25-.15.37a6.47,6.47,0,0,0-.28,1.07,7.13,7.13,0,0,0-.18.8,3.88,3.88,0,0,1-.09.58c-.06.21-.11.42-.18.63a1,1,0,0,0,0,.53.74.74,0,0,1,0,.26.7.7,0,0,0,.05.25.66.66,0,0,1-.16.59.8.8,0,0,1-.32.25.26.26,0,0,0-.11.12.15.15,0,0,1-.19.07,1.18,1.18,0,0,0-.42,0,6.77,6.77,0,0,1-.78,0,.28.28,0,0,1-.2-.24c0-.05,0-.09.09-.09a.72.72,0,0,0,.32-.11.29.29,0,0,1,.18,0,.45.45,0,0,0,.2,0,.12.12,0,0,0,.09-.08,1.86,1.86,0,0,1,.29-.44.58.58,0,0,0,.16-.45,4.09,4.09,0,0,0-.05-.78,3.38,3.38,0,0,1,0-.9c0-.34,0-.68.07-1a5.77,5.77,0,0,0,0-.83,4.57,4.57,0,0,1,.09-.82,1.29,1.29,0,0,0-.07-.67,2.48,2.48,0,0,0-.13-.35c-.13-.23-.26-.46-.41-.69a3.16,3.16,0,0,1-.33-.56,1.33,1.33,0,0,1-.16-.62,1.09,1.09,0,0,0-.07-.3s0-.07,0-.1c0-.27,0-.53,0-.8s0-.4,0-.6a1.91,1.91,0,0,0-.13-.62,4.44,4.44,0,0,0-.33-.81,1,1,0,0,0-.53-.5.49.49,0,0,0-.52.08l-.55.37a.2.2,0,0,1-.15,0h-.18a1.2,1.2,0,0,0-.42,0,.25.25,0,0,1-.28-.06.18.18,0,0,0-.1,0,.52.52,0,0,1-.37-.22,1.59,1.59,0,0,1-.25-.33.33.33,0,0,1,0-.38,1.58,1.58,0,0,1,.37-.44.45.45,0,0,0,.1-.13c.21-.33.44-.65.66-1,.06-.08.14-.13.17-.22s0-.09-.05-.09a.52.52,0,0,1-.46-.44.6.6,0,0,1,.08-.29,1.41,1.41,0,0,1,.13-.24.57.57,0,0,1,.39-.3c.42-.12.83-.3,1.26-.41a4.68,4.68,0,0,0,.48-.18,2.39,2.39,0,0,1,.64-.11h.16a.82.82,0,0,1,.41.06c.14.06.3.06.44.11a4.74,4.74,0,0,1,.95.42c.19.11.39.17.58.29s.52.27.77.42a4.43,4.43,0,0,0,1.11.44,2.19,2.19,0,0,0,.57,0c.37,0,.73,0,1.1,0l.75.05a4.51,4.51,0,0,0,.52,0,17.14,17.14,0,0,1,1.76.08c.51,0,1,.12,1.52.17s.75.08,1.13.15a5.42,5.42,0,0,0,.81.08.5.5,0,0,0,.39-.13,1.66,1.66,0,0,0,.51-.69l.05-.12a.61.61,0,0,0,0-.57c-.08-.28-.19-.55-.27-.82a.61.61,0,0,1,.19-.65,1,1,0,0,1,.44-.27c.05,0,.11,0,.16,0h.28l.07,0a1.77,1.77,0,0,1,.41.12,1.55,1.55,0,0,1,.73.7,1.56,1.56,0,0,0,.16.28,1.52,1.52,0,0,1,.22.67c0,.32.08.63.12.95s.06.42.08.63c0,.48.1,1,.15,1.44s.1.68.15,1,.13.72.21,1.08a17.49,17.49,0,0,0,.5,1.79,5.57,5.57,0,0,0,.84,1.53.16.16,0,0,1,0,.07,3,3,0,0,0,.23.35c.14.17.28.33.41.5a2.27,2.27,0,0,1,.3.46Z"/><text class="d" transform="translate(189.17 209.38)">Lemuriformes</text><text class="d" transform="translate(80.64 295.42)"><tspan class="e">T</tspan><tspan x="5" y="0">arsiiformes</tspan></text><text class="d" transform="translate(89.22 153.24)">Lorisiformes</text><text class="d" transform="translate(179.91 261.95)">Simiiformes</text><text class="d" transform="translate(264.22 206.52)">Platyrrhini</text><text class="d" transform="translate(205.23 305.16)">Catarrhini</text><circle class="f" cx="164.91" cy="236.36" r="2.79"/><text class="d" transform="translate(97.22 196.24)">St<tspan class="g" x="10.01" y="0">r</tspan><tspan x="13.72" y="0">epsirrhini</tspan></text><circle class="f" cx="162.91" cy="195.36" r="2.79"/><circle class="f" cx="236.91" cy="247.36" r="2.79"/><circle class="f" cx="199.91" cy="196.36" r="2.79"/><circle class="f" cx="261.91" cy="305.36" r="2.79"/><circle class="f" cx="311.91" cy="212.36" r="2.79"/><circle class="f" cx="152.91" cy="143.36" r="2.79"/><text class="d" transform="translate(107.22 247.71)">Haplorhini</text><text class="d" transform="translate(278.23 265.16)">Hominoidea</text><text class="d" transform="translate(157.23 343.16)">Ce<tspan class="g" x="13.15" y="0">r</tspan><tspan x="16.86" y="0">copithecoidea</tspan></text><circle class="f" cx="321.91" cy="269.36" r="2.79"/><circle class="f" cx="244.91" cy="349.36" r="2.79"/><text class="d" transform="translate(65.93 224.41)">Primates</text><path class="h" d="M336.43,269.25h0l.06.51.5.11.8,0-.07.07,0,.08-.08.24-.08.35v.2l0,.16,0,.29,0,.2-.16.59-.07.4-.14.51,0,.32-.09.47,0,.41-.1.58-.07.46,0,.38.11.15-.09.21.05.19v.18l0,.12,0,.18.07.27-.07.49v.12l.14.52.23.08.13,0,.19,0,.42.26,0,.14.14.1.11,0,.25-.05.05.25.2.23.06.06.28.07.1.15h.24l.3.39.12.1,0,.22.06.06.25-.06h.16l.09.34.1.06.24.13.08.3-.14.51.08.3-.12.14.07.24-.08.18,0,.13.05.09.06.17h0v.28h.14l-.06.22,0,.23.23.83.15.24.12.22v.32l0,.11.07,0,0-.36.28,1,.12-.05,0,.36.1.33.12.3.13.39.13.2.17.1,0,.13,0,.14.14.21.19.17.1.09.46.12.36.2.26.19.23,0,.28.12.23,0,.37,0,.24.14.13.1.21.11.37.24h.21l.2.09.13,0,.17-.25-.07-.2-.09-.18-.11-.17-.06-.17-.21-.29-.3-.12-.12-.16-.08-.27-.23-.11-.25,0h-.21l-.24.13-.19.07-.24.07-.24-.12v-.12l.1-.13.06-.16.09-.19.12-.29.14-.1.22-.07.09-.1.2-.12.18-.15.08-.22,0-.19.14-.1.16-.23,0-.15L346,285l.11-.12.06-.14.05-.27,0-.34,0-.15.15.16.11.11.22.12.14.15.2.12.18.13.15.12.06.15.19.11.16.2.05,0,.1.06.19-.12.19-.07.35-.2h.05l.12-.16v-.1l.08-.09.09-.12.06-.08.11.05.14,0,.17,0h0l.13-.08.07,0,.08-.08.08-.12v-.06l-.1-.07-.12,0,0-.13,0-.11.09-.09.17-.05.18.05.15,0h.2l.17-.05.08-.09v-.11l0-.14-.11-.11,0-.07-.06-.07-.06-.08-.13-.09-.27-.1-.31,0h-.24l-.19.05-.23.1L349,283l-.13.14-.11.09-.09.2-.43.13-.2-.09-.22,0,.07,0v-.1l-.08-.08,0-.13.06-.08-.1-.21-.15-.16-.08-.08-.11-.11-.17-.11-.05-.1,0,0-.13-.11-.14-.06.07,0,0-.1-.34-.13-.27-.1-.16-.12-.19,0-.22-.06-.25.11,0-.29.15,0-.07-.19.05,0,.13-.18,0-.07v-.06l.06-.14h.13l.05,0,.2.05.09,0,0-.09v-.14l.07,0,.08.08.17-.05.11.05.15,0,.1.13h.06l.07-.09.15-.08h.16l.08-.06.18.07.14,0,.28.15.11,0,.06.07h.17l0-.25.15.1.18.05,0-.09.11.1.13,0,.15.1.15,0-.07-.25-.09,0-.05-.17-.12-.15,0,0,.08,0,.09.2.05.09.06,0-.14-.59,0-.14.07,0,.15.53h0l0-.33,0-.15v-.37l.09,0,0-.35v-.47l0-.22v-.22l.07.25,0,0,0-.28.05-.32,0-.38,0-.22.08-.16,0-.12v-.53l0-.11.07-.2,0-.3-.06-.22.05-.63.07-.54v-.27l0-.13,0-.15.09.2,0-.45-.1-.72-.07-.26-.11-.33.07,0,.2,0H350l.19.11.17,0,.22.12.27.11.23.16.14,0,.09-.08-.2-.72-.42-.2-.05-.17-.11,0-.37-.09-.21-.11-.05-.1-.08-.21-.11-.11-.1-.07-.09,0-.35-.08-.23,0-.28.1-.11.19-.2,0-.53-.16h-.4l-.3-.12h-.63l-.55-.15-.25,0-.28-.08-.28-.11-.23-.12-.2,0-.23-.1-.17-.24,0-.3-.49-.3h-.07l-.21-.12-.11,0,.06.23.37.24v.28l0,.16L343,270l-.09-.05-.34,0-.36,0-.43,0-.53-.22-.69-.15-.33-.07-.07-.27-.52-.14-.48-.18h-.47l-.28.28-.15-.32L338,269l-.12.32-.19,0-.57.08-.69-.14Zm2.71.61h0l.36.2.3-.06.31.16.58,0,.28,0,.51.24.51.15.51-.05,1,.15.8.1.29,0,.21.16.64.27.46.14.38,0,.9.14.47.13.77.07.28,1.73-.21.5,0,.54-.16-.08-.06.38,0,.6-.07,0,0,.63-.12-.15,0,.3v.32l-.12-.15-.12.6-.13.4-.26.32-.24.07,0,.24-.34.28.14-.34-.37.16-.07-.06-.29.08-.34-.17,0-.26-.06-.22-.05-.09,0-.09-.17-.09.13-.22-.14,0-.05-.13-.09,0-.06-.12-.1-.14-.08-.1-.14-.14h-.1l-.07-.1-.12,0,0,0-.05-.19-.17,0,0-.06-.09.06-.08-.06-.1,0-.1,0-.09-.06v.06l-.11,0-.11,0,0,0h-.17l-.17.05-.13-.05-.1.07-.05.05-.11,0-.1-.08-.05.12-.15-.08-.22.08,0,0-.07.05-.07.05-.11.1-.08,0v.1l0,.07-.1,0,0,.08-.19.12,0,.08-.14.1v.12l-.16.15-.06.24-.16,0-.24-.26-.07,0-.18-.11-.27,0-.16,0-.13-.06-.34-.27-.38-.11-.29-.23-.07-.14-.12-.43-.12.15,0-.11-.16-.22-.05-.05h.12l-.21-.3.09-.41,0-.43-.08-.66,0-.5v-.78l-.07,0,.08-.86h-.08l0-.4-.11.12.15-.53.14-.53.28-.6Z"/><path class="c" d="M330,149.58l.1,0c.08,0,.09,0,.07,0a0,0,0,0,1-.07,0H330s0,0,0,.05,0,.07,0,0a.58.58,0,0,0-.18,0l0,0s0,0-.07,0-.1,0,0,0,.07,0-.07,0-.12,0-.11,0l-.06,0c-.09,0,0,0,.05,0s.11,0,.09,0,0,0,.07,0,.06,0,0,.05l-.1,0c-.1,0-.1,0,0,0s.11,0,.05,0,0,0,0,0,0,0,0,0l-.16,0-.09,0,.11,0h.11l-.17.06c-.13,0-.15,0-.09,0l.14,0s.06,0,.07,0l-.14.07-.15.06.15,0c.14,0,.14,0,0,0s-.19.11,0,0,.21,0,0,0a.7.7,0,0,0-.3.18s0,0,.07,0a1.07,1.07,0,0,1,.29-.14s0,0,0,0a.18.18,0,0,1-.08.05c-.1,0-.43.29-.39.31a.12.12,0,0,0,.06-.05.5.5,0,0,1,.12-.08s.06,0,.06,0,.12-.08.19-.09h.07l-.08,0-.11.08,0,0,0,0,.09,0s0,0,0,0-.09.11,0,.06,0,0,0,0,0,0,0,0l.09-.05s0,0-.08.09-.16.19-.13.18,0,0,.07-.07.07-.07.09-.05,0,0,0,.05,0,0,.06,0,.11-.07,0,0-.06.08,0,.07a.15.15,0,0,0,.08-.05c.05-.06.05-.06.06,0a0,0,0,0,1,0,.05s0,0,0,0,0,.07-.08.14-.1.13-.09.14,0,0,.07-.07.12-.12.07,0,0,.06,0,0,0,0,0,0,0,0,.06,0,0,0,0,0,0,.11-.1.17-.05.06,0,.07,0,0,.06,0,.08-.1.09-.06,0,.07,0,.1a.28.28,0,0,0-.05.09s0,0,.07-.06.1-.11.07,0,0,.06,0,0,0,0,.08,0l.06,0-.13.06-.21.09s-.07,0-.07,0h0s0,0,0,0,0,0-.09,0-.11,0-.05,0,.06,0,.05,0l-.28.05,0,0a0,0,0,0,0,.05,0s0,0-.06,0a1,1,0,0,1-.26.09c-.08,0-.1,0-.09,0s.05,0,.08,0a.18.18,0,0,1,.1,0s0,0-.06,0l-.13,0-.24.1c-.19.08-.4.2-.33.18a0,0,0,0,1,0,0s0,0-.08,0-.08,0-.07,0,0,0,0,0,0,0,0,.05,0,0,0,.06a0,0,0,0,0,0,0s0,0-.05,0-.06,0,0,0l0-.06s-.08,0-.17.1-.05,0,0,0,0,0,0,0-.15.15-.15.2,0,.08-.08.17a.76.76,0,0,0-.09.15s0,0,0,0-.11.11-.09.12,0,0,0,0a.09.09,0,0,0-.06,0s0,.05-.08.08-.18.21-.13.19,0,0,0,0l-.05.05.06,0,.1-.06c.08-.05,0,0-.08.08s-.17.18-.14.19,0,0,0,0l0,0s0,0,0,.07L327,154l.07,0,.11-.07s0,0,0,0l-.07.07c-.17.12-.23.17-.25.22s0,.05,0,0a.15.15,0,0,0,.06,0c0-.05.05-.06.06,0a.09.09,0,0,1,0,.06.09.09,0,0,0,0,.06s0,0,0,0a0,0,0,0,0,0,.06s0,0,0,.09-.05.1,0,.1,0,0,0,.05,0,0-.05,0,0,0,0,0,0,0,0,0,0,0,0,.05a.05.05,0,0,1,0,0s0,0,0,0,0,.06-.05.11-.07.15,0,.1,0,0,0,.15,0,.05,0,.06a.29.29,0,0,1-.05.1c0,.05-.05.08,0,.08a.05.05,0,0,0,0,0c0-.07,0,0,0,.1a.82.82,0,0,0,0,.11s0,0,0,.08,0,.06,0,.06,0,0,0,.06,0,.07,0,.08,0,0,.05,0,0-.06,0,0,0,0,0,.06,0,.08,0,.06,0,.11,0,.15,0,0,0,0a0,0,0,0,0,0,0s0,0,0-.06l0,0a.42.42,0,0,1-.06.19,0,0,0,0,0,0,0,1.06,1.06,0,0,1,0,.15c0,.09,0,.13,0,.13s0,0,0,.06,0,0,0,0,0,.07,0,.14a.21.21,0,0,0,0,.07s0,.06,0,.14,0,.21,0,.22,0,0,0,0a2.58,2.58,0,0,0,0,.38.11.11,0,0,1,0,.08.33.33,0,0,0,0,.14s0,0,0,0a.28.28,0,0,0-.09.17s0,.05,0,.1a.8.8,0,0,0,0,.15c0,.09,0,.13,0,.08s0,0,0,0,0,0,0,.06,0,0-.09.07,0,0,0,0,0,0,0,0,0,0,0,0-.05.08-.13.13-.1.1,0,.05.06,0,0,0a.29.29,0,0,1-.1.09.5.5,0,0,0-.1.11.28.28,0,0,1-.09.1.36.36,0,0,0-.11.1s0,.06,0,0,.22-.11.18-.08,0,0,0,0l-.06.06c-.12.08-.14.11,0,.06s.09,0,0,0-.15.12-.12.12,0,0,0,0a.67.67,0,0,0-.12.1.16.16,0,0,0-.06.08s0,0,.07-.05.08-.06.09,0l-.11.14a.64.64,0,0,0-.11.13s0,0,.06,0,.09-.06.08,0l-.08.08c-.1.08-.15.15-.11.16s0,0,0,0,0,0,0,0,0,0,0,0,0,0,0,0,0,0,0,.08,0,.08,0,.08,0,.08,0,.09-.18.22-.15.22l.1-.09c.1-.11.09-.11.1-.07s0,0,0,0l0,0a.1.1,0,0,1,0,.05,0,0,0,0,0,0,0c0,.05,0,0,.07,0a.25.25,0,0,1,.08-.07s0,0,0,0a1.76,1.76,0,0,0-.2.27.22.22,0,0,0,.07-.06s.07-.06.08,0a0,0,0,0,0,0,0s0,0,0,0,0,0,0,0,0,0,0,0,0,0,0,0,0,0,0,.08-.08.07-.07.09,0,0,0,0a1.26,1.26,0,0,0-.22.31s0,0,.08-.08.13-.15.08-.06,0,.09,0,.05,0,0,0,0,0,0,0,.09-.08.13-.1.18-.05.07-.07.07-.05.06,0,.08,0,0,.07-.06,0-.06,0-.05h0c0-.06,0,0-.06.18a.62.62,0,0,0-.08.21s0,0,0,0,.06-.06,0,0,0,.07.05,0,0-.06,0,0a.06.06,0,0,1,0,0,0,0,0,0,0,0,0s0,.1-.07.12a.33.33,0,0,0-.11.2s0,0,0,0,0,0,0,0a.08.08,0,0,0,0-.05s0-.06,0,0,0,.06,0,.11,0,.1,0,.11,0,0,0,0l0,0a.4.4,0,0,1-.06.12c-.06.12-.06.17,0,.07s.06-.08.06,0,0,0,0,0a.61.61,0,0,1,0,.19c-.09.25-.08.26,0,.09l.06-.07s0,.11-.05.18,0,.07,0,.08l-.07.08a.23.23,0,0,0,0,.1s0,0,0,0l.07-.09.11-.13s.06-.08.06-.07-.05.12-.11.21,0,.07,0,.07l.08-.08s.06-.09.06-.08a.3.3,0,0,1-.05.15.71.71,0,0,0-.13.24s0,0,.05,0,.07-.07,0,0,0,.1,0,.07,0,0,0,.1a.44.44,0,0,0,0,.14.12.12,0,0,1,0,.1.16.16,0,0,0,0,.09s0,0,.05-.06.07-.07,0,.05a.41.41,0,0,0,0,.12s0,0,0,0,0,0,0,0,0,0,0,0,0,0,0,0a.05.05,0,0,1,0,0s0,0,0,.11a.19.19,0,0,1-.05.11s0,0,0,0,0,0,.07,0,0,0,0,.06a.09.09,0,0,0,0,.07,0,0,0,0,1,0,0s0,.06,0,.05.08.09.05.19a.13.13,0,0,0,0,.09c0,.05,0,.06,0,0s0,0,0,0a.41.41,0,0,0,0,.11c0,.06,0,.07,0,.06s0,0,0-.07a.11.11,0,0,1,0-.06s0,0,0,0,0-.12,0-.11,0,.05,0,.11,0,.12,0,.12h0s0-.05,0,0a.19.19,0,0,1,0,.11c0,.1,0,.13,0,.05s0,0,0,.13,0,.16,0,.09,0,0,0,.09a.76.76,0,0,0,0,.15.39.39,0,0,1,0,.15.43.43,0,0,0,0,.12.18.18,0,0,1,0,.11.08.08,0,0,0,0,.07s.05,0,0-.06,0,0,0-.06,0,0,0,.11,0,.13,0,.12,0,0,0,0a.29.29,0,0,1,0-.14s.07.15.06.16v.13c0,.06,0,.11,0,.11s0,0,0,0,0,0,0-.07,0-.06,0,.06,0,.1,0,.09,0,0,0,0,0,0,0,0,.1,0,.12.14,0,.18.05.18,0,0,0,0,0,0,0,.1,0,.13.07.12,0,0,0-.09,0-.18,0-.19,0,0,0,0,0,.18,0,.17,0,0,0-.05,0,0,0,0a.33.33,0,0,1,.05.12c0,.09,0,.1,0,0s0,0,0,.05,0,.11.07.09,0,0,.08.1.1.23.13.2.08,0,.09.11,0,0,0,0,0,0,0,0,0-.08,0-.09.05,0,.08.12,0,.09,0,0a.5.5,0,0,0,0-.12.08.08,0,0,1,0-.07s0,0,0,.07,0,.08,0,.08,0,0,0,0a.2.2,0,0,1,0-.07s0,0,0,0a2,2,0,0,0,.05.22.33.33,0,0,1,0,.17s0,0,0,0,0,0,0-.12,0-.2,0,0,.06.17.06.13,0,0,0,0,.07.08,0,0,0-.07,0,0,0,.06.05.06,0,0,.07.09.12.19,0,0a.73.73,0,0,1-.06-.19l.1.21c.08.21.16.32.18.29s0,0,0,0a.81.81,0,0,1-.08-.12c0-.07,0-.09,0-.09s0,0,.08.09.06.11,0,0,0-.1.1.09.06.08.05,0,0,0,.1.06.11.12.07,0,0-.07.05,0a1.46,1.46,0,0,0,.36.34l.08,0-.1-.1a2.1,2.1,0,0,1-.28-.35c0-.06,0,0,.12.09.33.4.41.48.46.46s0,0,0,0a.38.38,0,0,1-.13-.12l.08,0c.1.07.13.07.05,0a.09.09,0,0,1,0-.06s.05,0,.09.07.16.13.14.08,0,0,0,0,0,0,0-.06a.14.14,0,0,1-.06-.09s0,0,0,0a.85.85,0,0,0,.22.16s0,0-.07-.07-.1-.1-.07-.11.06,0,.11.08a1.51,1.51,0,0,0,.42.23s0,0-.08-.05-.12-.09,0,0,.07,0,.08,0h0s0,0,0,0,0,0,0,0,.05,0,.05,0,0,0,.09,0l.1,0h.05s0,0,0,0,0,0,0,0,0,0,0,0,0,0,0,0,0,0,.07,0,0,0,.08,0,.05,0,.05,0,.06,0,.15,0h.15l.14,0c.13,0,.2,0,.14,0s0,0,.06,0l.18-.05.09,0,.1,0c.09,0,.1,0,.05,0s-.06,0-.05,0,0,0,.08,0,.08,0,.07,0l0,0s0,0,0,0,0,0,0,0,0,0,0,0a.25.25,0,0,1,.11,0c.09,0,.13-.06.12-.07s0-.07.07-.07,0,0,0,0,0,0,.06,0,0,0,0,0,0,0,0,0l.07,0s0,0,0,0,0,0,0-.06a.43.43,0,0,0,.14-.12.6.6,0,0,1,.08-.08s0,0,0-.05,0,0,.07-.07,0-.05,0,0h0s0,0,.06,0,.07,0,.08,0,0,0,0,0,0,0,0,0,.16-.19.1-.17,0,0,0,0,0,0,0,0,.05,0,.07-.09,0-.08,0-.08.11-.31.07-.35,0,0,0-.05l.05,0a0,0,0,0,0,0,0l0,0a0,0,0,0,0,0,0h0s0,0-.05.08,0,.07,0,.06,0-.2.06-.21,0,0,0,0a.06.06,0,0,1,0-.06s0-.05,0,0h0s0,0,0,0,0-.05,0-.12-.05-.09-.06-.09,0,0,0,0a.07.07,0,0,0,0,0s-.05,0,0,0l0,0,0,0v.09c0,.09,0,.15-.05.12a.46.46,0,0,1,0-.1c0-.08,0-.13,0,0s0,0,0,0l-.05-.08s0,0-.08,0,0,0-.05,0a0,0,0,0,1,0-.05s0,0-.07-.06-.09,0-.1,0,0,0,0,0,0,0,0,0,0,0,0,0,0,0,0-.05,0,0-.07.06-.07.07,0,0,0-.08-.05,0l-.09.14-.05.08V166c0-.06,0-.06-.08,0s-.05,0,0-.06a.51.51,0,0,0,0-.09s-.08.16-.07.19,0,0-.05.05-.05,0,0,.06,0,0,0,.06,0,0,0,.07,0,0,0,0,0,0,0,0,0,0,0,0,0,0,0,0,0,.07,0,.09,0,0,0,.06-.06.08,0,0a.1.1,0,0,0,0-.07l0,0,0,.06s0,.06-.05.06a.07.07,0,0,0,0,0,0,0,0,0,1,0,0s0,0,0,0,0-.05-.09,0a.4.4,0,0,0-.15.08c0,.06-.13.1-.14.07a.11.11,0,0,1,.06-.06c.05,0,.06,0,0-.05s0,0-.09,0-.15.09-.11,0,0,0,0,0,0,0,.05,0,.07,0,.07,0-.11,0-.19,0-.07,0,0,0,0,0,0,0l-.09,0h-.05s0,0,.05,0a.3.3,0,0,0,.1,0l0,0-.07,0a.33.33,0,0,0-.15,0c-.07,0-.07,0,0,0s0,0,0,0h0s-.06-.05-.11,0-.05,0,0,0,0,0-.09,0-.13,0,0,0l.1,0s-.1,0-.17,0-.06,0-.07,0h-.05a.08.08,0,0,1,.08,0s.16-.05.14-.07h-.1c-.09,0-.12,0-.05,0s.06,0-.09,0h-.2a.1.1,0,0,0-.09,0,.07.07,0,0,1-.06,0s0-.05.05,0,.31-.05.27-.06a.3.3,0,0,0-.14,0c-.15,0-.22,0-.1,0s.07,0,.06,0,0,0,0,0,0,0-.07,0-.11,0-.13-.09,0-.07-.05-.07l0,0s0-.07-.07-.05a.09.09,0,0,1-.08,0s0,0,0,0l.05,0s0,0,0,0a.17.17,0,0,0-.1,0s0,0,0,0h0c-.07,0,0-.05.06-.07s.07-.05,0-.05-.09,0-.08,0l0,0s0,0,0,0h0a.12.12,0,0,1-.08,0c-.06,0-.11-.1-.09-.11s0,0-.08-.1-.07,0,0-.06,0,0,0-.07-.05,0,0-.09,0-.1-.05-.08a.05.05,0,0,1,0,0s0,0,0,0,0,0,0-.13-.11-.2-.09-.22,0,0,0,0,0,0,0,0,0,0,0,0,0-.05,0-.05,0-.05-.07-.08-.1,0,0,0,.07,0-.14-.12c-.05,0-.12-.1-.11-.11l.11,0c.06,0,.11,0,.12,0s0,0-.08-.08-.07,0-.05-.06l.05,0s0,0,0-.07-.1-.14-.06-.16,0-.05-.06-.14,0,0,0,0,.05-.05,0-.06,0,0,0-.07,0-.06,0-.08,0-.07,0-.21,0-.07,0-.07,0,0,0-.05,0-.09,0-.11,0,0,0,0-.05,0-.06-.06,0,0,0,0,.1.05.08,0-.05-.16-.09-.2-.05-.1,0-.1,0,0,0-.05,0,0,0,0,0,0,.05,0,0-.05,0-.17-.05-.11,0-.09a.37.37,0,0,1,.07.13q0,.1.06.09l0-.11c0-.05,0-.09,0-.09s0,0,0-.05,0-.08,0-.11,0,0,0,0-.05,0-.06-.06,0,0,0,0,.09.05.08,0-.05-.16-.09-.2-.06-.1,0-.1,0,0,0-.05,0,0,0,0a0,0,0,0,0,0,0s0,0,0-.1-.1-.18,0-.1.12.14.11.1,0,0,0,0l0,0-.06-.06c-.06-.06-.07-.09-.05-.1s0,0,0,0a.27.27,0,0,0,.11.1s0,0,.06.09l.05.09s0,0,0,0,0,0,0,0l.06.1a.39.39,0,0,0,.14.21s0,0,0,.05,0,0,0,.05a.31.31,0,0,1,.12.09s.06.06.05,0,0,0,0,0a.09.09,0,0,1,0,.05s.14.14.34.25.21.12.29.24.11.14.17.07,0,0,.08,0,.05,0,.06.07.07.1.12.05.05,0,.12,0a.13.13,0,0,0,.11,0,.74.74,0,0,0,.15-.36s-.08-.21-.17-.41a.15.15,0,0,0-.06,0c-.05,0-.08-.07-.05-.09a.67.67,0,0,1,.26,0s0,0,.07,0,0-.05-.06-.11a.49.49,0,0,0-.36-.14c-.29,0-.42,0-.49-.11a.68.68,0,0,0-.12-.13.67.67,0,0,1-.14-.19c-.05-.12-.05-.12,0-.17l.09-.11a.26.26,0,0,1,.12-.09.29.29,0,0,0,.11-.09s.06-.08.07-.08l.09-.09a.63.63,0,0,1,.15-.11.63.63,0,0,0,.28-.21s0-.06.08-.06.06,0,.08-.08a.16.16,0,0,1,.07-.09s.06,0,.08-.07a.74.74,0,0,1,.17-.21,1.27,1.27,0,0,0,.31-.37,2.34,2.34,0,0,0,.2-.55,2.58,2.58,0,0,1,.08-.26,1,1,0,0,0,0-.23c0-.18,0-.19,0-.19a.05.05,0,0,1,0,0l0,0s0,0,.06.06l0,.08,0-.11c0-.1,0-.11,0-.05a.42.42,0,0,0,.21.17s0,0,0,0l.05.06a.38.38,0,0,1,.1.15.76.76,0,0,0,.1.15s.05.07.08.19a1.76,1.76,0,0,0,.27.6c.09.1.19.19.21.18l.12,0c.07,0,.12,0,.13,0s0,0,.07,0a1.47,1.47,0,0,0,.61,0h0s.18,0,.33-.07l.16-.06.2,0c.25,0,.34,0,.35-.11s-.05-.22-.22-.24-.16,0-.18-.1.08-.2.17-.27a1.06,1.06,0,0,0,.15-.15.34.34,0,0,1,.09-.09s0-.09,0-.12a.09.09,0,0,0-.07,0,.27.27,0,0,1-.13,0c-.12,0-.15,0-.32.15l-.17.14a.3.3,0,0,0-.1.07.2.2,0,0,1-.16.06,1.07,1.07,0,0,1-.41-.06,1.65,1.65,0,0,1-.16-.72.17.17,0,0,0,0-.09s0-.15,0-.25a2.13,2.13,0,0,0,0-.22.19.19,0,0,1,0-.07.19.19,0,0,0,0-.1.79.79,0,0,1,0-.13,1.34,1.34,0,0,0,0-.22c0-.08,0-.21,0-.28s0-.13,0-.16,0-.07.13-.07l.17,0a.22.22,0,0,1,.22,0,.78.78,0,0,1,.09.2.84.84,0,0,0,.09.19s0,0,0,.11a.13.13,0,0,1-.17.11c-.07,0-.08,0,0,.07a.38.38,0,0,0,.28.09h.05s.21,0,.26-.08l.09-.07a.45.45,0,0,0,.12-.14.47.47,0,0,0,.06-.43c0-.13,0-.16-.07-.21a1.5,1.5,0,0,1-.24-.36.57.57,0,0,0-.26-.27l-.09-.06s0,0-.16-.1l-.06,0s0,0,0,0a.09.09,0,0,1-.05,0s-.1-.07-.12-.05-.08,0-.07,0,0,0,0,0-.06,0-.07-.06a.14.14,0,0,0-.07-.06s0,0,0,0h.05s0,0,0,0l0-.06,0,.05a.37.37,0,0,1,0,.09s0,.1,0,.07,0,0,0-.08,0-.07.05-.08a.15.15,0,0,0,.06-.05s0,0,0,0,0,0,0,0a.13.13,0,0,1,.24,0,2,2,0,0,0,.35.42l.21.15.2.14a.42.42,0,0,0,.24.11s.07,0,.11,0,.09,0,.1,0,0,0,0,0a.68.68,0,0,0,.22.06,1.26,1.26,0,0,1,.33.11.81.81,0,0,0,.48.11s.06,0,.1,0a.24.24,0,0,0,.21.07.26.26,0,0,1,.12,0c.08,0,.08,0,.36-.08a1.68,1.68,0,0,0,.59-.28.22.22,0,0,1,.07-.07s0,0,.07-.1.09-.12.21-.13.34-.14.32-.2h0s0,0,0,0a.43.43,0,0,0-.2,0,.06.06,0,0,1-.06,0s0,0,0,0,.06,0,.11,0a1.52,1.52,0,0,0,.25-.17.07.07,0,0,0,0-.11c-.05,0,0,0,0-.1a.29.29,0,0,0,.08-.07l.05-.05a.11.11,0,0,0,0-.15.44.44,0,0,0-.4,0l-.1,0a.12.12,0,0,0-.07,0,.45.45,0,0,1-.18,0H337l-.14.13a.64.64,0,0,0-.2.31c-.05.16-.07.19-.12.22a.23.23,0,0,1-.11,0l-.17,0a1.45,1.45,0,0,1-.57-.28.91.91,0,0,0-.17-.12.1.1,0,0,1-.08-.06s-.05-.05-.11-.08-.11-.06-.11-.08a.22.22,0,0,0-.1-.08.49.49,0,0,1-.14-.11.19.19,0,0,0-.14-.07l-.07,0s0,0,0,0,0,0,0,0l0-.08s0-.08,0-.08,0,0,0,0,0,0,0,0-.06,0-.06-.09,0,0,.07,0l.05,0s0,0-.1-.13-.12-.15,0-.08,0,0,0,0,0,0,0-.06-.05-.06,0-.07a.46.46,0,0,0,0-.1.62.62,0,0,1,0-.23s0,0,0,0,0,0,0,0,0,0,0,0l0,0s0,0,0,0,.05,0,0,0,0,0,0,0,0,0,0-.05-.07-.06,0-.06,0,0,0,0,0,0,0,0,0,0,0,0,0-.07,0,0,0,0,0-.05a.12.12,0,0,1,0-.1s0,0,0-.05a.11.11,0,0,1,0,0s0,0,0-.07-.07-.06,0-.06,0,0,0,0-.05-.07,0-.07,0,0,0,0-.07-.09,0-.09,0,0,0,0-.16-.17-.11-.15,0,0,0,0,0-.06-.09-.13l-.08-.09s0,0,0,0a.34.34,0,0,1-.12-.12s0,0,0,0,0,0,0-.06,0-.05,0,0,0,0,0,0,0,0,0-.06,0,0,0,0,0,0,0,0,0-.06,0,0,.08,0,.07,0h0s0,0,0,0l0,0s0,0,0-.06,0-.08,0,0h0s0,0,0,0a.14.14,0,0,1,0-.09c0-.05,0-.07,0-.07s.05,0,0,0a0,0,0,0,1,0,0s0,0,0,0,0,0,0,0-.08-.1,0-.09,0,0,0,0-.06-.05,0-.08,0,0,0-.06,0,0,0,0,0,0,0-.06-.06,0,0,0,.06,0,0,0a.15.15,0,0,1-.06,0s0,0,0,0,.08,0,0,0a.2.2,0,0,1-.08-.08c0-.05,0-.05,0,0l.05,0s0-.13-.08-.15,0,0,0,0l0,0s.06-.07.08-.05.2.07.2.05,0,0,0,0l-.11,0-.09,0h.07c.06,0,.07,0,0,0s0,0,.1,0,.08,0,.08,0,0,0-.06-.05-.07,0,0-.08.08,0,.08-.05-.06-.06-.11-.06,0,0,0,0,0,0,0,0,0,0,.07,0,.1,0,0,0-.06,0,0-.05.05,0,0,0,0,0,.07,0,.06,0,0,0,0,0,0-.06.05-.07.12-.05.09,0,0,0-.11-.06,0,0a.2.2,0,0,0,.08,0s0,0-.06,0-.14-.06-.06-.07.14,0,.07,0-.12-.05-.09-.08-.05,0-.12,0-.11,0,.07,0,.2,0,.1,0a.87.87,0,0,0-.32,0s0,0,0,0,0,0,0,0l.29-.06c.05,0,.05,0,0,0a1,1,0,0,0-.2,0c-.11,0-.15,0-.1,0a.66.66,0,0,1,.18,0c.18,0,.22-.06,0-.05l-.19,0s0,0,0,0l0,0s0,0,0,0,0,0,.1-.05.21-.09,0-.06-.12,0-.07,0l.06,0-.06,0s-.07,0-.07,0,0,0,0,0h0s-.05,0-.1,0-.1,0-.11,0a.42.42,0,0,1,.16-.08l.18-.08s-.07,0-.17,0-.1,0-.07,0,.05,0,0,0a.05.05,0,0,1,0,0s0,0,0,0a.34.34,0,0,0-.14.05c-.07,0-.11,0-.11,0s0,0-.07,0-.05,0,0,0,0,0-.06,0-.08,0,0-.06.06-.05,0,0a1.85,1.85,0,0,0-.39.3s0,0,0,0a1.67,1.67,0,0,1,.29-.32s0,0,0,0l-.13.1c-.11.12-.1.07,0-.06s.1-.12.08-.11a1.54,1.54,0,0,0-.27.31c0,.06-.06.1-.07.09s0,0,0,0,0-.1,0-.09l-.05.08s-.05.08-.07.08,0,0,0-.1,0-.08,0-.08a.38.38,0,0,0-.06.14.61.61,0,0,1-.05.11h0s-.09,0-.09-.08,0,0,0,0,0,0,0,0l0,0a0,0,0,0,1,0,0s0,0,0,0-.18,0-.19-.06,0,0,0,0-.06,0-.08,0,0,0,0,0a.18.18,0,0,1-.16,0h-.05s0,0-.06,0,0,0-.05,0h0a.05.05,0,0,0-.08,0s0,0,0,0,0,0,0,0,0,0,0,0h-.06s0,0,0,0,0,0,0,0,0,0,0,0l0,0s0,0,0,0-.05,0-.11,0,0,0,0,0,0,0,0,0,0,0,0,0a.08.08,0,0,1,0,.05s0,0-.05,0-.08-.07-.06,0,0,0,0,0,0,0,0,0,0,0,0,0,0,0,0,0,0,0,0,0a0,0,0,0,0,0,0s0,0-.05,0-.09,0-.08,0h0s0,0,0,0v.05l0,0s0,0,0,0,0,0,0,0,0,0,0,0l0,0s0,0,0,0-.09.1-.12.08h0a.1.1,0,0,0,0,0c0,.05,0,.05,0,.06a.11.11,0,0,1-.06,0s0,0-.06,0,0,0,0,.05,0,.06,0,0l-.07,0,0,0a.1.1,0,0,1,0,0s0,0,0,0,0,0,0,0,0,0,0,0,.07.06,0,0,0,0,0,0,0,0,0,0,0,0,0,0,0,0,0,0,0,0,0,0,0,0,0,.05-.06,0-.05,0-.08-.1-.09-.08,0,0-.05,0l-.16-.05-.16-.05-.05,0s0,0,.05,0,.07,0,0,.05l-.13,0c-.09,0-.13,0-.12,0s0,0,0,0S330,149.57,330,149.58Z"/><path class="c" d="M331.3,211.46q-.48-.14-.63,0a3,3,0,0,0-.37.92,9.48,9.48,0,0,1-.47,1.31c-.15.37-.17.46-.15.62s0,.29-.2.87c-.14.37-.26.72-.29.76s-.09.27-.15.49a3.71,3.71,0,0,1-.38.94,1,1,0,0,0-.13.33c0,.07-.14.39-.18.37s-.06.1-.08.27-.07.24-.13.43a2.6,2.6,0,0,0-.12.37s0,.08-.13.15a.31.31,0,0,0-.14.27c0,.28,0,.28-.26.09a1.54,1.54,0,0,0-.91-.39.39.39,0,0,1-.33-.11c-.1-.09-.14-.1-.31-.08s-.3.12-.28.37a.57.57,0,0,1-.09.38c-.08.14-.09.21-.05.3s0,.34-.27.39-.22.06-.25.23a2,2,0,0,0-.07.29.47.47,0,0,0,0,.2c0,.1.32.35.58.47a2.7,2.7,0,0,1,.43.27,2.62,2.62,0,0,0,.6.34c.43.19.53.27.48.38a.12.12,0,0,0,.05.14.21.21,0,0,1,.07.15,1.29,1.29,0,0,0,.09.74,2.56,2.56,0,0,1,.16.57,1.82,1.82,0,0,0,.22.68,1.68,1.68,0,0,1,.18.44,1,1,0,0,0,.1.33.46.46,0,0,1,.05.22.42.42,0,0,0,.06.23c.1.2,0,.38-.21.6a5.49,5.49,0,0,0-.57.59,5,5,0,0,1-.73.7l-.43.39a.52.52,0,0,1-.17.13l-.38.19c-.24.14-.29.19-.36.37s-.43.55-.48.48-.21,0-.38.18l-.19.18s.05.05.12.08.12.07.07.23-.15.26-.26.21-.24,0-.21.08.6.19.8.11a2.38,2.38,0,0,0,.62-.61.63.63,0,0,1,.2-.2l.21-.13.35-.23a3.22,3.22,0,0,0,.29-.2,5,5,0,0,1,.59-.39.13.13,0,0,0,.08-.06,1.13,1.13,0,0,1,.27-.14,2.42,2.42,0,0,0,.5-.31,2,2,0,0,1,.35-.25,1.39,1.39,0,0,0,.31-.21l.29-.2a1.32,1.32,0,0,0,.48-.53.54.54,0,0,1,.34-.32c.38-.19.65-.25.64-.16s.05.09.21.14l.36.13c.08,0,.15.05.16,0s0,0,.1,0,.08,0,.12,0,0-.09.08,0,0,.2-.3.89a8.09,8.09,0,0,1-.49,1,.53.53,0,0,0-.11.23s0,.1,0,.18a1.12,1.12,0,0,0,0,.49,9.13,9.13,0,0,1-.08,1.36.83.83,0,0,0,0,.24.62.62,0,0,1,0,.18,1,1,0,0,0,.05.31c0,.15,0,.29,0,.31a1.15,1.15,0,0,0,.16.34l.22.39a.26.26,0,0,0,.07.11.34.34,0,0,1,.08.14.2.2,0,0,1-.06.23,1.21,1.21,0,0,1-.62.31,1.64,1.64,0,0,0-.69.36c-.06.15.08.32.35.44a.58.58,0,0,0,.48,0,.89.89,0,0,0,.31-.11,1.81,1.81,0,0,1,.33-.19,6,6,0,0,0,.93-.56c.05,0,.1,0,.12,0s0,.21-.22.28a.62.62,0,0,0-.2.11,1.21,1.21,0,0,1-.26.14,3,3,0,0,0-.37.2,1.08,1.08,0,0,1-.2.13.74.74,0,0,0-.18.2c-.15.25-.09.41.21.58l.24.13.1-.3.1-.3.32-.13a3,3,0,0,1,.56-.18,1.67,1.67,0,0,0,.92-.52l.15-.2-.08-.29a3.36,3.36,0,0,1-.1-1.11s0-.09,0-.11a1.41,1.41,0,0,1,0-.27,2.33,2.33,0,0,0-.08-.62,1.84,1.84,0,0,1,0-.33,1.09,1.09,0,0,0,0-.28,2.13,2.13,0,0,1-.08-.38,1.37,1.37,0,0,0-.11-.38.17.17,0,0,1,.08-.28.58.58,0,0,0,.22-.24,2,2,0,0,1,.33-.39,2.23,2.23,0,0,0,.71-.82c.07-.16.2-.43.29-.6a3.68,3.68,0,0,0,.21-.44c0-.06.07-.18.11-.27a.33.33,0,0,0,0-.21.26.26,0,0,1,0-.17.17.17,0,0,0,0-.17.27.27,0,0,1,0-.23.29.29,0,0,0,0-.24c0-.05,0-.11,0-.12s0-.08-.12-.11a.32.32,0,0,1-.1-.37c.08-.1.08-.21,0-.25s0,0,0-.06a.12.12,0,0,0,0-.12c0-.06,0-.08.1-.09s.12,0,0-.12l-.14-.11.17,0c.17-.05.17-.06.12-.15s0-.1,0-.14a.33.33,0,0,1,.17,0c.06,0,.08,0,.08,0a.13.13,0,0,1,.13-.1,1,1,0,0,0,.29-.18.86.86,0,0,1,.26-.17c.06,0,.11,0,.12-.08a.25.25,0,0,1,.11-.09.28.28,0,0,0,.14-.16.36.36,0,0,1,.13-.14,1.84,1.84,0,0,0,.52-.33s.1-.07.18-.1a.88.88,0,0,0,.28-.17,1.15,1.15,0,0,1,.35-.19.68.68,0,0,0,.26-.16s.08-.07.13-.08a.32.32,0,0,0,.21-.17.5.5,0,0,1,.19-.18.16.16,0,0,0,.11-.08.46.46,0,0,1,.18-.12,2.9,2.9,0,0,0,.62-.34.17.17,0,0,1,.13-.05s0,0,.05-.08.06-.11.16-.15a.36.36,0,0,0,.2-.14.59.59,0,0,1,.25-.18,2.15,2.15,0,0,0,.47-.3c.39-.31,1.07-.85,1.42-1.1a2.9,2.9,0,0,0,.42-.37c.31-.38.36-.46.41-.64a.86.86,0,0,0,0-.39.43.43,0,0,0-.27-.32.79.79,0,0,0-.41-.12.66.66,0,0,1-.23,0,1.27,1.27,0,0,0-.75.2c-.41.23-.61.7-.43,1s.07.2-.15.33-.3.18-.45.29l-.33.22-.66.4c-.79.5-1.06.67-1.23.75a2,2,0,0,0-.34.19l-.43.26-.85.49c-.33.2-.74.42-.91.5a2.11,2.11,0,0,0-.44.24.57.57,0,0,1-.23.12,3.4,3.4,0,0,0-.42.23,3.73,3.73,0,0,1-.55.29,3.49,3.49,0,0,0-.61.29,1.32,1.32,0,0,1-.78.1,3.62,3.62,0,0,1-.55-.2,3,3,0,0,1-1.21-.86c-.07-.11-.21-.28-.3-.39a1.94,1.94,0,0,1-.52-1.17,2.12,2.12,0,0,1,0-.54.88.88,0,0,0,0-.47.14.14,0,0,1,0-.11s0-.13,0-.2A15.19,15.19,0,0,1,330,218a3.55,3.55,0,0,0,.13-.43,1.61,1.61,0,0,1,.25-.59,1.15,1.15,0,0,0,.27-.64.51.51,0,0,1,.06-.23.72.72,0,0,0,.05-.32,6.33,6.33,0,0,1,0-1.51,4.43,4.43,0,0,1,.17-.56,2.47,2.47,0,0,0,.14-.55,2,2,0,0,1,.24-.7c.2-.43.22-.45.32-.43s.2,0,.16-.21a.6.6,0,0,0-.46-.4Zm10.17,6.91c0,.06-.43.36-.48.32s.05-.29.23-.34.23,0,.25,0"/><path d="M282.66,140.6l-1.05.06c-.49,0-1,.09-1.46.13s-1.1.11-1.65.16a7.55,7.55,0,0,0-1.16.17l-1,.24a3.23,3.23,0,0,1-1,.11,2.89,2.89,0,0,1-1-.29.74.74,0,0,1-.35-.39.43.43,0,0,1,.45-.51,1.16,1.16,0,0,1,.51.15,2,2,0,0,0,1,.18,10.69,10.69,0,0,0,1.78-.22c.67-.12,1.35-.24,2-.3.42,0,.83-.1,1.24-.15a15.31,15.31,0,0,1,2-.07,9.56,9.56,0,0,1,1.59.18,14,14,0,0,1,1.41.38,1.22,1.22,0,0,1,.35.2.32.32,0,0,0,.55-.21,7.12,7.12,0,0,0,.19-1.53,11.06,11.06,0,0,1,0-1.41,3.9,3.9,0,0,1,.72-1.82,3.47,3.47,0,0,1,.55-.6,1.3,1.3,0,0,1,.34-.15l.41-.16a.51.51,0,0,0,.25-.67c-.06-.19-.16-.37-.24-.56a2.3,2.3,0,0,1-.1-1,1.2,1.2,0,0,1,.26-.73,2,2,0,0,1,.92-.61,2.49,2.49,0,0,1,.66-.13.87.87,0,0,1,.84.31.68.68,0,0,1,.11.31.83.83,0,0,0,.53.69.75.75,0,0,1,.24.19.46.46,0,0,1,0,.6,1.17,1.17,0,0,1-.65.49c-.09,0-.17.07-.16.19a.34.34,0,0,0,.2.3.73.73,0,0,0,.5-.08,3.84,3.84,0,0,0,.74-.59c.15-.13.31-.25.47-.37s.37-.33.56-.49a2.7,2.7,0,0,1,.39-.27,4,4,0,0,1,.71-.37,1.19,1.19,0,0,1,1.21.32.46.46,0,0,1,0,.44.34.34,0,0,1-.38.14,2,2,0,0,1-.35-.1.73.73,0,0,0-.9.28,8.43,8.43,0,0,0-.7,1c-.34.44-.69.88-1,1.34s-.5.8-.74,1.21a1.1,1.1,0,0,0-.18.78,2.69,2.69,0,0,0,.19.67,3.26,3.26,0,0,1,.31,1,1.13,1.13,0,0,1-.3.81c-.44.5-.84,1-1.26,1.54-.21.26-.38.55-.6.8a.21.21,0,0,0,0,.31,4,4,0,0,1,.77,1.41c.1.35.2.7.28,1.06a5.9,5.9,0,0,1,.08,2.33,5.51,5.51,0,0,1-.4,1.48,6.12,6.12,0,0,1-.68,1.08,7.93,7.93,0,0,1-1.07,1.1,6.61,6.61,0,0,1-1,.71,1,1,0,0,0-.36.4.32.32,0,0,0,.1.39,1.16,1.16,0,0,0,.75.3,2.32,2.32,0,0,1,.74.1.5.5,0,0,1,.22.13c.1.12.07.2-.07.25a2.76,2.76,0,0,1-.63.1,11.43,11.43,0,0,1-1.17,0c-.27,0-.53,0-.8,0a1.51,1.51,0,0,0-.58.18,2.37,2.37,0,0,1-.67.3H286a.19.19,0,0,1-.17-.07c0-.06,0-.11.06-.16a.24.24,0,0,0,.05-.1.61.61,0,0,1,.3-.4,4.43,4.43,0,0,1,.46-.29.63.63,0,0,0,.42-.64,1,1,0,0,1,.39-.77,15.45,15.45,0,0,0,1.64-1.88,5.07,5.07,0,0,0,.64-1,2.82,2.82,0,0,0,.21-1.44,9,9,0,0,0-.4-1.85,12,12,0,0,0-.54-1.41,5,5,0,0,0-.31-.56c-.06-.08-.11-.09-.17,0a3.12,3.12,0,0,0-.31.49c-.6,1.05-1.18,2.11-1.82,3.13a6.88,6.88,0,0,1-.94,1.21c-.32.33-.65.65-1,1s-.63.59-.93.89a8,8,0,0,0-1.09,1.3,3,3,0,0,0-.26.68,5.62,5.62,0,0,1-.47,1,1.67,1.67,0,0,1-.54.64,1.32,1.32,0,0,1-1,.26l-.15-.05c-.19-.1-.2-.15-.12-.35a3.57,3.57,0,0,1,.46-.94l.54-.68a4.34,4.34,0,0,0,.64-1.13,7.56,7.56,0,0,1,1.11-1.9c.43-.57.93-1.08,1.41-1.61a12.62,12.62,0,0,0,1.05-1.25,1.26,1.26,0,0,0,.19-.71c0-.26,0-.51,0-.77a1.53,1.53,0,0,1,.25-.78c.21-.32.45-.61.64-.94s.17-.71-.22-1a3.92,3.92,0,0,0-1.38-.7,7.59,7.59,0,0,0-1.49-.31A4.87,4.87,0,0,0,282.66,140.6Z"/><path class="c" d="M132.27,306.66a4,4,0,0,0-1.49-.18,5,5,0,0,0-2,.42l-.22.12-.14-.22a1,1,0,0,0-.7-.51.62.62,0,0,0-.63.13c-.42.36-.42.82,0,1.36l.4.55.16.23-.35.24a6.37,6.37,0,0,1-.58.35,7.85,7.85,0,0,0-1.28.92A6.2,6.2,0,0,0,124,311.8a8.33,8.33,0,0,0-.76,2.16,2.89,2.89,0,0,0-.13,1.15,4.57,4.57,0,0,0,.1.69,9,9,0,0,0,.83,1.95,5.69,5.69,0,0,0,1.12,1.13l.34.25-.09.36a21,21,0,0,1-1.43,4,15.66,15.66,0,0,0-1.28,3.69,5.49,5.49,0,0,0-.21,1.41,11.82,11.82,0,0,0,.54,3.59,1.47,1.47,0,0,1,.08.4,3.09,3.09,0,0,0,.23.88s0,.1,0,.12a.23.23,0,0,0,0,.11l.11.25a10.84,10.84,0,0,0,1.3,1.9c.06,0,.1.09.09.11s0,.09.12.1l.28.15c.18.1.27.14.29.11s0,0,.12,0,.1.07.16,0,.07,0,.06,0,.07.06.21.09l.58.14a1.92,1.92,0,0,0,1,.06.35.35,0,0,1,.18,0c.06,0,.11,0,.11,0s0,0,.1,0,.42.05.42,0,.17-.11.22-.06,0,0,0,0a.12.12,0,0,1,0-.1c.07,0-.14-.33-.23-.33s-.15-.12-.09-.29.05-.15,0-.16,0,0,0-.08-.13-.19-.29-.11a.26.26,0,0,1-.21,0s-.08,0-.09,0-.07.06-.19.05l-.42,0c-.21,0-.26,0-.28,0s0-.05-.06,0a1.38,1.38,0,0,1-.55-.07c-.41-.09-.51-.12-.51-.17s-.05-.06-.14-.06-.13,0-.13-.07,0-.07-.11-.09a.12.12,0,0,1-.1-.08s-.06-.08-.12-.09a.35.35,0,0,1-.17-.1l-.23-.25a2.18,2.18,0,0,1-.33-.45,1.42,1.42,0,0,0-.22-.32c0-.05-.09-.1-.08-.13a.06.06,0,0,0,0-.07s-.1-.09-.14-.19a2.75,2.75,0,0,0-.23-.38.84.84,0,0,1-.15-.27.48.48,0,0,0-.11-.23,9,9,0,0,1-.72-3.44,6,6,0,0,1,.21-1.83,17.44,17.44,0,0,1,1.42-3.62A21.87,21.87,0,0,0,126,320l.13-.44.4.09a4,4,0,0,0,.73.09,12.17,12.17,0,0,0,2.87-.42,2,2,0,0,1,.77-.14.84.84,0,0,1,.57.25.27.27,0,0,0,.13.11.11.11,0,0,1,.08.1c0,.09.16.24.26.26s.11-.1.07-.27-.15-.23-.37-.35-.08-.13,0-.11l.38.17c.33.17.51.2.44.07s-.14-.14-.38-.27-.29-.22-.25-.24a1.5,1.5,0,0,1,.56.25c.13.1.31.11.36,0s-.57-.47-1.07-.58a.73.73,0,0,1-.29-.12c-.06-.07,0-.07.25,0s.52.15.78.24c.48.15.57.15.55,0s-.3-.25-1.18-.51c-.28-.09-.29-.1-.24-.16a.76.76,0,0,1,.26-.09c.3-.05.32-.2,0-.26-.07,0-.13-.05-.12-.07a1.13,1.13,0,0,1,.27-.21,1,1,0,0,0,.28-.22c0-.07.45.08.61.21s.16.12.17.11.4.2.5.34.1.15,0,.13-.24.06-.21.17.23.16.46.12.23-.11.18-.25,0-.11.07-.13a.41.41,0,0,1,.19,0,1.94,1.94,0,0,0,.58,0,.17.17,0,0,0,.11-.12c0-.08,0-.13-.14-.24l-.17-.13h.12c.19,0,.24,0,.28-.19s0-.24-.38-.39l-.25-.12c-.06,0,0-.31,0-.39a.31.31,0,0,0,.08-.15.18.18,0,0,1,.1-.11,1.44,1.44,0,0,0,.24-.2,9.62,9.62,0,0,1,.94-.87.21.21,0,0,0,.05-.31c-.09-.13-.22-.09-.38.12a3.74,3.74,0,0,1-.67.64,3.31,3.31,0,0,1-.73.53l.18-.27a.75.75,0,0,1,.31-.28.19.19,0,0,0,.11-.31c-.1-.15-.24-.15-.4,0a4.23,4.23,0,0,0-.5.66.72.72,0,0,1-.44.16,1.71,1.71,0,0,1,.22-.25l.29-.33a5.06,5.06,0,0,1,.78-.72,1,1,0,0,0,.29-.29,3.86,3.86,0,0,1,.38-.47,2.41,2.41,0,0,0,.32-.41.11.11,0,0,1,.08-.07.11.11,0,0,0,.08-.09s.08-.09.15-.12.2-.1.16-.2-.19-.11-.38,0a.57.57,0,0,1-.25,0c-.1,0-.13,0-.24.15a2.86,2.86,0,0,1-.35.42l-.34.36a1.24,1.24,0,0,1-.22.19l-.1.07.06-.09.17-.24c.13-.16.12-.26,0-.18a.23.23,0,0,1-.13,0c-.06,0-.4.25-.48.4a1,1,0,0,1-.24.26l-.17.11,0-.2a4.48,4.48,0,0,0-.19-2l-.12-.31.24-.18a3.07,3.07,0,0,0,1-1.14c.05-.14.09-.19.2-.22a4.54,4.54,0,0,0,.55-.32c.56-.35.73-.57.83-1s.07-.33,0-.46-.33-.22-.82-.09l-.44.1-.11-.22a3.88,3.88,0,0,0-2.24-1.67Zm1.78,10.23s.07,0,.08,0a.19.19,0,0,0,.11.06c.12,0,.16.1.06.12s-.15,0-.24-.11S134,316.89,134.05,316.89Zm-.56.43.28,0c.17,0,.41.15.35.19a.5.5,0,0,1-.19,0c-.1,0-.19,0-.21,0s-.08,0-.18-.05-.19-.15,0-.12"/><path class="c" d="M202.62,102c.16-.41.73-.56.61-1.14a5.46,5.46,0,0,0,1.18-.87c0-.07,0-.08,0-.16s0,.09-.11.08c-.12-.32-.34-.79-.23-1.06-.08.13-.52.19-.87.26.12-.13.45,0,.49-.26.22,0,.24-.12.38,0-.07-.13-.17,0-.3,0v-.12c0,.16-1.2.11-.5.08a.94.94,0,0,1,.35,0v-.11c-.28.08-.38,0-.73,0-.18,0,0-.06.12,0h.57c-.26-.07-.52-.14-.8-.19,0-.09.07-.06.07-.12a2.31,2.31,0,0,0,.92.23c.08,0,0-.18.11-.07,0-.22-.22-.11-.42-.12,0-.08.17,0,.16-.11s-.16.12-.23,0,.1-.08.15-.12-.07-.06-.08-.11a.1.1,0,0,0-.07.11c-.1-.07-.08,0-.23,0s.22-.06.26-.12-.3,0-.49,0,.1,0,.15,0-.2,0-.3-.08c.07-.08.3,0,.38-.08s0-.17-.15-.15c0-.16.17,0,.19-.11s-.25-.08-.19,0-.07-.11-.19-.08.16,0,.22,0,0-.07-.07-.07.13.06.19.07c-.05-.22-.27,0-.38-.19s.13,0,.15,0,0-.1-.08-.11.16.09.23.11,0-.28-.15-.3.06,0,.08,0c.1-.17-.12-.34-.19-.46s.16.14.19.23,0-.16.07-.23-.24,0-.23-.15a.4.4,0,0,0,.23,0c-.13-.16.14-.49-.15-.5.05-.11.15,0,.19,0,0-.17-.19-.19-.27-.3s.18.09.23.15,0-.08.08-.19c-.16.15-.11,0-.31-.08,0-.06.18,0,.16.12.18-.08-.11-.15-.08-.31.09,0,.12.16.19.23.19-.08,0-.15,0-.27.23.17.28-.27.61-.23,0,0-.07-.06-.07-.11s.11.17.26.11-.06-.11-.11-.15c.12-.07.22.21.42.19s-.24-.19,0-.3c.06.1,0,.2.23.34.1,0-.14-.08-.08-.23.09,0,.1.13.19.15,0-.13-.15,0-.11-.19,0,0,.07,0,.07,0,.08.18.26.25.31.45.09-.12-.18-.19-.12-.42a4.16,4.16,0,0,0,.23.42c0-.07-.09-.31-.15-.42.19,0,.2.45.34.58-.13-.21.08-.19-.08-.46a.31.31,0,0,1,.12.38s0-.05,0-.08,0,.07,0,.12a.47.47,0,0,0,0-.46c0-.09.08.06.07.11s0-.13,0-.19.06.11.08,0c0,.16.13.25.11.46.11-.14-.05-.33,0-.53.13.07.17,0,.23.11s-.06-.21,0-.27.07,0,.07.08-.08-.2,0-.27c.07.14.15.06.12-.11a.11.11,0,0,1,.07.11c.13,0-.08-.09,0-.19s.12,0,.12-.07.07.1.15.11-.08-.19,0-.26c.08.12.08,0,.08-.12,0,0,.07,0,.07,0s0,.13.08.16,0-.23.07,0c.12,0,0-.1,0-.19a.1.1,0,0,1,.08.11c.09-.08-.11-.19,0-.26s0,.12.15.11-.07-.1,0-.19.12.08.12.19c.11-.06,0-.17,0-.27a.17.17,0,0,1,.07.16c.08-.06,0-.14,0-.23s.07.13.12.19-.05-.1,0-.19,0,.13.07.15-.05-.1,0-.19a.11.11,0,0,1,.08.11c.09-.18.22-.1.34-.26.06,0,.08.09.08.19,0-.19,0-.19.15-.27s0,.14,0,.19,0-.13,0-.19.16.06.19,0a.46.46,0,0,1,.08.27c.12-.06,0-.17,0-.27s.18.18.23,0c0,.2.1.16.11.34.13-.1-.07-.2,0-.34s.12.06.11.15a.24.24,0,0,0,.08-.11c.06,0,0,.07,0,.11s.07,0,.07-.07-.09.23,0,.3,0-.2.08-.3,0,.16,0,.23.1-.23.11,0c.06-.09.08-.16.08,0a.64.64,0,0,0,.11-.16c.06,0,.06.23.08,0,.08,0,0,.24,0,.35.16-.07,0-.17.07-.23s0,.14,0,.15.25-.19.15-.27c.09,0,0,.2,0,.23s.07,0,.08-.08-.12.14-.08.27,0-.07,0-.11c.18.21,0-.19.27-.19a.42.42,0,0,0,0,.38l.12-.12s.06.19.11,0c.09,0-.11.12-.07.23.1-.17.07,0,.23-.08,0,.07,0,.08,0,.16s.05-.15,0-.23a.69.69,0,0,0,.19-.19c.07.08-.12.21-.12.34a.9.9,0,0,0,.38-.23c.11,0,0,.12-.07.08,0,.22-.18.09-.08.26.08-.09.22-.13.3-.22.13.1-.21.06-.11.26-.09-.08-.15.08-.23.12s.08-.12.19-.08,0,.08,0,.15a.75.75,0,0,1,.27-.26c.12.12-.11.21-.08.38.08,0,.09-.12.16-.16s.06.07.11.08-.07,0-.08.11.11-.09.08.08c.07,0,.06-.14.15-.15s-.14.13,0,.23a.41.41,0,0,0,.16-.16c.08.09-.16.17-.19.27s.18-.23.15,0c.1,0,0-.18.07-.15.1-.13-.07.11,0,.11s0-.16.08-.23,0,.11,0,.15.1,0,.11-.07,0,.09,0,.07a.17.17,0,0,0,.11.12c.09,0,0-.17.11-.12s-.09.11-.07.23c.05,0,.08-.12.07,0,.07,0,.09-.06.08-.15.09.06.09.21.11.34,0,0,.14,0,.12-.11s0,0-.12,0,.06-.1.16-.08v.19c.07-.07.15-.09.07,0a.11.11,0,0,0,.12-.08c.07.12-.1.14-.19.16.1.11.27,0,.34-.08s0,.1,0,.15.15,0,.27,0c0,.19-.17,0-.23.16.09,0,.24.13.38.19,0,.08-.2,0-.23,0,0,.12.12,0,.15.11s-.11,0-.11.08.19,0,.23.11,0-.1-.08-.11c.24-.12,0,.34.23.38-.07.12-.1-.1-.23,0,.06.08.18.09.27.15a1,1,0,0,0,.49.61c.11.39.46.6.5,1a.21.21,0,0,0-.12,0,.88.88,0,0,0,.15.12c0,.05,0,0-.07,0a2.87,2.87,0,0,1,.26.49c-.16-.09,0,.1,0,.19s-.1-.1-.11-.19,0,.08,0,.15-.06-.06-.11-.07.36.17.26.45c-.14-.08,0-.19-.11-.3-.11.05.05.15,0,.27s.14.15.15.07-.08.18.08.19a.3.3,0,0,1-.23-.19c-.1.11.25.27.15.38.07,0,.07,0,.08-.07s0,.11,0,.19c.33,0,.33.16.65.22.05.14-.13,0-.12.12.21.08.54-.16.65,0a1.2,1.2,0,0,1,.49-.19c0,.15-.08.14,0,.3.07-.11.22-.14.27-.26-.12,0-.13.14-.27.15,0-.07.11-.07.08-.19.14.07.17,0,.31,0s-.08,0-.08.11.21-.14.42-.11c0,.09-.13.1-.15.19s.08,0,.15.08c-.08-.09.13-.15.19-.23s-.09.14-.15.15,0,0,0,.08.06-.13.12-.16c0,.16.15,0,.23-.15,0,.17-.14.21-.19.34.2-.06.26,0,.45-.11q0,.18-.15.15c.13.13.39-.2.57-.26s-.08.11-.15.11.14-.09.27,0c-.07.09-.17.14-.23.23.09.07.27-.1.34-.19.06.14-.2.28-.38.31.2.11.36-.15.53-.2-.08.09-.11.22-.26.23.09.12.3-.17.34,0s-.18,0-.15.08c.19,0,.5-.21.68-.19s-.06.07-.08.11.17,0,.19-.11c.05.16,0,.12-.26.19.32.16.33,0,.57-.08.08.09-.17.16-.27.19.21.06.35,0,.61-.07.07,0,0,0-.07,0s.06,0,.11,0-.17.06-.27.08c.08.11.11,0,.23.08s-.14,0-.15.11.17-.13.3-.11a.1.1,0,0,1-.11.07s.13.12.11,0-.08.12-.11,0c.05.16.21,0,.3,0s-.09.11-.15.15a.71.71,0,0,0,.65,0c-.05.13-.26.1-.31.23a.47.47,0,0,0,.46-.08c.11,0-.06.06-.08.08s.13.06.19.08-.1.13.08.11c0,.08-.05.07-.11.08s.09,0,.15,0,0-.1,0-.11.13,0,.19,0-.12.08,0,.15.15-.2.38-.07a2.38,2.38,0,0,1-.57.19c.05.12.1,0,.15.11s0-.08,0-.15a.44.44,0,0,0,.54,0c.13.06-.08.1-.16.07s.07.08,0,.16a.6.6,0,0,1,.31,0s-.17.08,0,.11c0,.07-.09,0-.08,0a.09.09,0,0,0-.11.07c.16.09.29,0,.49,0,0,.11-.19.13-.34.15,0,.16.09,0,.23,0s-.1.06-.11,0,.29.12.38.26.42.27.45.42c-.12,0-.16,0-.26-.07.11.14.63.25.38.76,0,.19.35.23.23.42.07.14.29.13.34.3-.11.09-.15-.14-.27-.15.1.19.25.17.34.3s-.48-.19-.26-.11c0,0,0-.07-.08-.08-.06.28.49.27.46.65-.1-.13-.15-.31-.31-.38s.1.15.16.19c-.1.09-.21-.13-.27-.19.09.36.53.62.53.91-.06,0-.06,0-.11,0s.1.08.11.16-.07-.06-.11-.08c0,.14.16.14.15.3-.1-.11-.13,0-.19-.19-.06,0,0,.18.11.16-.07.18.1,0,0,.22,0,0,0,0,0-.07s0,.14-.11.07c.08-.1-.09,0,0-.19-.13.07,0,.24,0,.31s-.06-.06-.12,0a7.55,7.55,0,0,0,.23.76c-.13-.07-.13-.27-.19-.42-.06.14.11.38.15.54-.18-.18.08.34,0,.45-.11-.17,0-.4-.11-.64a8.89,8.89,0,0,0,0,1c-.05,0,0-.06,0-.11s.06.17,0,.27,0,0,0-.08,0,.24-.08.34,0-.26,0-.38c-.19.18.05.47,0,.65-.08,0,0-.14,0-.19-.11.3.08,1-.11.3-.12.08.05.2,0,.35s0-.19-.08-.19,0,.31,0,.45c-.1-.1-.07,0-.07.15a.26.26,0,0,1-.08-.22c-.11.09.05.23,0,.34s-.12-.14-.12-.27c-.15.07-.1.31-.07.46-.21-.15-.29.87-.23.23,0,0,0,.08-.12.07,0-.17.17-.24.12-.49-.17.09-.06.29-.15.49,0,0,0-.07,0-.11s0,.19,0,.27c-.06-.07-.06-.14-.19,0,0,0,0-.16,0-.26s-.07.16-.08.26a.29.29,0,0,1-.07-.22c-.09.11,0,.26,0,.41-.09,0,0-.24,0-.34s0,.1,0,.15a.18.18,0,0,1-.07-.19c-.15.05-.05.67-.12.16a1,1,0,0,1,0-.39.33.33,0,0,0-.07.27c-.07.11,0-.19,0-.27-.09.14,0,.43,0,.58a1.48,1.48,0,0,1-.19-.35c-.07,0,0,.07,0,.12a.47.47,0,0,1-.19-.38c-.12.09,0,.24,0,.38-.08,0,0-.18-.12-.19s-.08.32,0,.38c-.23-.07,0-.36-.23-.61,0,.09,0,.18-.07.34-.09-.1.07-.35,0-.49a.94.94,0,0,0-.15.3c-.13-.09,0-.2.07-.27-.12-.07,0-.15-.11-.26s0,.16-.08.23,0-.36-.11-.38,0,0,0,.07,0,0,0,0-.08.38,0,.42a.51.51,0,0,1,0-.3c-.19.23,0,.56-.08,0a.57.57,0,0,0,0-.27c-.08,0,0,.14,0,.19s0-.19,0-.34c-.07,0-.09.06-.08.15-.11-.11.07-.27-.08-.34a.68.68,0,0,0,0,.38c0,.12-.05-.07,0-.12,0,.64-.12-.17,0-.45-.1,0-.08.12-.08.23s-.06-.15,0-.23c-.12.12-.12-.06-.15.07s.1-.17,0-.34c-.13.23,0-.07,0-.19a.38.38,0,0,0-.12.38c-.17-.1,0-.37-.07-.49s0,0,.07,0,0-.42-.07-.12c-.08.1,0-.19,0-.23s-.1.08-.12.16,0-.13,0-.23c-.13.16,0-.06,0-.19a.41.41,0,0,0-.07.11c-.07-.06.14-.46.19-.64-.2.06-.3.9-.23.26-.08,0-.09-.14-.08-.26s0,0,0,.07.06-.21.07-.3-.06,0-.07,0c-.12.32-.11.33-.08-.08,0,0,0,0,.08,0s0-.14,0-.23c-.13.2,0-.2,0-.3a.64.64,0,0,0-.15.53c-.25-.1-.13-.58-.19-.87-.16.22,0,.29-.07.6-.13-.12,0-.51-.08-.83a.53.53,0,0,0-.08.3s0,0,0-.07,0,0,0,.07v.08a.18.18,0,0,0-.11,0c0-.17-.07-.24,0-.42.12.3.05,0,0-.19-.09.07,0,.29,0,.42s-.1-.35-.15-.46c-.08.06,0,.13,0,.23s0-.19,0-.26c-.1.16,0,.34,0,.53.15-.31,0,.06.08.19-.15-.11-.26-.58-.5-.72.1-.17-.1-.29,0-.46-.21.18.07.68.12.72s0,.08,0,.15a11.78,11.78,0,0,1-.46-1.14c-.06.23.51,1.33.08.46.12.48.14.71,0,.23a3.41,3.41,0,0,1-.11-.61c-.06.12,0,.31-.12.42.09-.16.09.2.19.34-.1.09-.15-.1-.23-.15s.16.06.16.15c0-.22-.37-.52-.27-.8-.06,0-.12-.07-.11-.23-.11.3.16.55.22.8a.21.21,0,0,1-.11-.19c-.05,0,0,.1,0,.15s-.12-.29-.19-.38c-.11.11.09.21.08.34a4.32,4.32,0,0,1-.34-.64s0,.07,0,.11,0-.19,0-.23c-.06.11-.1,0-.12-.07-.11,0,.05.15,0,.26a.33.33,0,0,1-.07-.38c-.13,0-.06.22-.08.35s0-.26-.07-.27-.13.25-.16,0c.11.09.09-.2,0-.31-.06.09,0,.28-.11.35-.11-.29-.15-.25-.08-.5-.12,0-.11.19-.15.31,0-.12,0-.33-.08-.46-.11,0,0,.09,0,.19a.19.19,0,0,1-.07-.19s-.07.16-.08,0c-.11,0,0,.16,0,.23-.2,0,0-.16-.11-.27s-.19,0-.16-.15c-.07,0-.08.14-.07.27s0-.14,0-.2a.41.41,0,0,0-.11-.07,2.9,2.9,0,0,1,.07.34c-.11-.13-.09-.39-.3-.42,0-.3-.16-.37-.15-.64-.09.25-.13.39-.12,0-.11.14,0,.26-.08.45a7,7,0,0,1-.15-.72,1.57,1.57,0,0,0,0,.27s-.07-.28-.07-.42-.07.08-.08.15a1,1,0,0,1-.19-.42c-.09.26-.22-.06-.3-.15a9.79,9.79,0,0,0-1.83.08.72.72,0,0,1,.08.42.63.63,0,0,1,.23.87c-.27,0-.38,0-.46.3-.11,0-.22-.12-.19.08-.35,0-.62.17-.88-.11a.64.64,0,0,0-.07-.69c-.48,0-1.1.49-1.11-.26.09-.06.15-.14.23-.19s-.23,0-.23-.19c-.06.16-.16,0-.15.26,0-.06-.11-.09-.11-.19s-.12.06-.15.12c-.07-.17-.21-.13-.27-.23s0,.09,0,.15c-.19-.07-.26,0-.38.15-.21-.13-.48.15-.65.31a.19.19,0,0,0,.08.15.69.69,0,0,0-.38.19.65.65,0,0,0,0,.26c.5.1.58.62.68,1.11-.12-.13,0,.11-.15.07.16-.14-.13-.13-.19-.19s-.08-.68-.49-.64c-.5.65,0,2.1-.54,2.7-.41-.73.28-1.77-.11-2.63a.91.91,0,0,0-.57,1c.06.28.49.4.49.69-.22,0-.24-.2-.3-.27s-.08,0-.12,0c-.47-.6-.07-1,.08-1.71,0-.1-.16-.07-.19-.15-.31.17.05.67-.15,1-.4,0-.26-.71-.27-1.07.13-.06.19-.19.38-.19s.1-.21.15-.3c-.17-.13-.29-.09-.57-.08,0-.09-.07-.08,0-.19-.1,0-.13.15-.12.3-.33-.62.67-.72,1-.53.11-.08.16-.22.27-.3a2.73,2.73,0,0,0-1.07.07c0-.06,0-.06,0-.11s-.12.06-.15.11,0-.07,0-.11a.17.17,0,0,0-.11.11c-.05,0,0-.07,0-.11-.13.19-.19.14-.27.27a.36.36,0,0,1-.08-.12c-.05.21-.06,0-.15.15s0-.07,0-.11,0,.07,0,.11,0,0,0-.07,0,.07,0,.11-.2,0-.15-.15c-.06,0-.06.27-.08,0,0,0-.07.2-.07,0,0,.08-.2,0-.19.15-.31-.12-.8,0-.73.49.15.2.61.18.69,0,.09.39-.54.2-.76.26,0,.24.24.27.34.42.17,0,.32-.11.42,0,0,0,0-.1,0-.15.36.52-.66.57-.77.19-.06,0-.1.14,0,.15-.22.13-.44-.16-.34-.5-.11-.13-.3-.2-.42-.34Zm15.95-1.82c0-.11.21,0,.19-.15S218.45,100.11,218.57,100.2Zm4.64,4.75c0,.08.09.34.19.23-.07,0,0-.05,0-.11s0-.25-.15-.15c0,0,.06,0,.07.07A.18.18,0,0,1,223.21,105ZM219,106.06c0-.1.08-.37,0-.46C218.92,105.7,218.86,106,219,106.06Zm-.76-.92c0-.2,0-.63-.19-.76a1.63,1.63,0,0,1,.11.57.19.19,0,0,0-.08-.15A.36.36,0,0,0,218.19,105.14Zm-.39-.8a2,2,0,0,1,.08.35s.18,0,.08-.08,0,0,0,0S217.91,104.38,217.8,104.34Zm-.11-.11c0-.12-.14-.06-.15-.15a.37.37,0,0,0,.15.3c0-.09.13-.16,0-.19S217.72,104.24,217.69,104.23Zm-1-.49s.13.22,0,.26c0-.12-.07-.44-.15-.38a1.64,1.64,0,0,0,.11.38c.16,0,.24.36.38.31-.27-.21-.06-.42-.3-.76,0,.15.16.34.07.45C216.8,103.93,216.7,103.39,216.7,103.74Zm-13.58-1.45c.06-.13.06-.32.11-.46C203,101.8,203,102.2,203.12,102.29Zm19.36.68c.33.4-.1-.26-.19-.07C222.41,102.87,222.37,103,222.48,103Zm.12.2c-.14,0-.23-.3-.31-.12C222.43,103,222.51,103.27,222.6,103.17Zm-6,.57a1.51,1.51,0,0,1-.11-.38s0,.07,0,.07,0-.11,0-.11A.64.64,0,0,0,216.55,103.74Zm.72.64c0-.13.11-.4-.07-.49.05.1,0,.25.07.11C217.29,104.19,217.12,104.25,217.27,104.38Zm2.21,2.86a2.06,2.06,0,0,0,0-.54A.86.86,0,0,0,219.48,107.24Zm3.39,1.56c0-.11.1-.27,0-.35C222.92,108.62,222.69,108.73,222.87,108.8Zm-.39.53c0-.14.12-.32,0-.42C222.46,109,222.4,109.25,222.48,109.33Z"/><path class="c" d="M165.12,123.41a3.68,3.68,0,0,1,.3.36c.13.19-.25,0-.61.48s-.32.24-.74.45a5.76,5.76,0,0,0-3.83,2.18,3.44,3.44,0,0,0-.54,1.45c-.13.64.05.59-.08,1.09a5.06,5.06,0,0,0,0,.69,6.51,6.51,0,0,0-.06.82,3.78,3.78,0,0,0,.33,1.87c.14.33-.1.49.18,1.28a3,3,0,0,0,.11,1,21.06,21.06,0,0,0,1.22,3.89,18,18,0,0,0,1.08,1.91,5.31,5.31,0,0,0,4,2.42,8.37,8.37,0,0,0,3-.33,6.11,6.11,0,0,0,2.86-1.68,3.53,3.53,0,0,0,.9-2.6,4.1,4.1,0,0,0-.62-1.66,3.46,3.46,0,0,0-3-1.48,3.29,3.29,0,0,0-2.19.95,3.83,3.83,0,0,0-.71,1.49c-.39,1.9,1.21,3.3,1.79,2.49.81-1.17,0-1.63-.13-2-.44-1,.51-1.34,1.35-1.27a1.56,1.56,0,0,1,1.42,1.58c0,.61-.18,1.56-1.7,2.24a5.69,5.69,0,0,1-3.43.25,5.34,5.34,0,0,1-2.43-2.21,15.51,15.51,0,0,1-1.05-2.39,14.36,14.36,0,0,1-.67-1.89,2.26,2.26,0,0,0-.09-.53c-.07-.16.08-.21.25-.23s.23-.17.26-.07a.64.64,0,0,0,.31.47c.16.08.37-.07.45,0a1.83,1.83,0,0,0,.89.3.65.65,0,0,1,.56.1,1.08,1.08,0,0,1,.36.24.93.93,0,0,1,.16.24c.23.46.06.17.28.41,0,0,0,.25.24.24s.25-.19.26-.19a.28.28,0,0,0,.35,0,.24.24,0,0,0,.11-.16.47.47,0,0,0,0-.16c0-.08-.09-.12-.06-.15a.32.32,0,0,0,.16-.33c-.05-.21-.19-.23-.29-.21s-.1.07-.14.06a.71.71,0,0,1-.28-.23c-.09-.17-.16-.13-.15-.17s-.08-.11,0-.13.05-.06.09-.1a.39.39,0,0,1,.17,0c.17.13.22.17.35.14a.47.47,0,0,0,.23-.13c.06-.08-.15-.21-.25-.24a.64.64,0,0,0-.22,0,.42.42,0,0,1-.2-.08,1.3,1.3,0,0,0-.42-.14c-.1,0,.19-.29.11-.37a.3.3,0,0,0-.29,0,.69.69,0,0,0-.14.22.27.27,0,0,0,0,.12c-.25-.28.1-.26,0-.49s.16.07.29-.23a5.23,5.23,0,0,1,.61-1,10.37,10.37,0,0,0,.81-1.58c.15-.71-.15-1,0-1.13.36-.36.56-.25.67-.24,1,0,1-.33,1.14-.34a1.2,1.2,0,0,0,.64-.18,1.32,1.32,0,0,0,.21-.25l.17-.23a1.77,1.77,0,0,0,.34,0,1.9,1.9,0,0,0,.38,0,.78.78,0,0,1,.3,0c.13,0,0,.07.19.14s.09.23.22.28a.34.34,0,0,0,.24,0c.09,0,.19-.14.16-.22s0-.32-.33-.13c-.06,0-.05-.05,0-.15s0-.08-.06-.13-.11-.07-.11-.08.15-.07.18,0,.15,0,.18.11,0,.15.11.2a.25.25,0,0,0,.26,0,.2.2,0,0,0,.12-.19c0-.1,0-.21-.15-.23s-.13,0-.15,0-.07,0-.09,0,0-.11,0-.12.07,0,.14,0a.22.22,0,1,0,0-.41c-.1,0-.16,0-.13,0s-.15-.16-.32-.15-.52.24-.58.08-.34-.09-.28-.17.06-.11.1-.09c.28.15.66-.25.27-.36-.14,0-.26.25-.24.16a.37.37,0,0,0,0-.11.17.17,0,0,0-.2-.1c-.15,0-.1.11-.12.2a.58.58,0,0,1-.21.35c-.12.13-.19.13-.19.07s0-.21-.07-.24-.33.12-.37.14-.15.11,0,.3-.16,0-.23,0,0-.17-.11-.33l-.32-.47c-.13-.26.09-.12.2-.11a4.2,4.2,0,0,0,.47-.08c.25-.08.28-.13.33-.21s.21-.47.31-.54a1.39,1.39,0,0,0,.55-1.27,4,4,0,0,0-.1-.52s.1-.18.14-.37-.08-.24,0-.36a1.74,1.74,0,0,0,.43-.83c0-.47,0-1-.17-1.11-.69-.26-1.35.77-1.44,1,0,0,0,0-.07,0a1.36,1.36,0,0,0-.6-.14,1,1,0,0,0-.48.09c-.07,0-.06,0-.19,0s-.1.07-.19.08a1.9,1.9,0,0,0-.7.21.92.92,0,0,0-.33.38s-.54-.38-.78-.46a.77.77,0,0,0-.77.15c-.39.41-.07.88.22,1.19Z"/><text class="i" transform="translate(378.35 298.15)">Gibbons</text><text class="i" transform="translate(363.17 334.22)">G<tspan class="j" x="7.59" y="0">r</tspan><tspan class="k" x="10.74" y="0">eat apes</tspan></text><text class="l" transform="translate(409.36 317.55)">(humans)</text><line class="m" x1="404.99" y1="314.94" x2="356.13" y2="321.24"/><text class="i" transform="translate(369.14 122.71)">Marmosets<tspan x="-3.99" y="12">and tamarins</tspan></text><text class="i" transform="translate(98.95 70.28)">Lorises</text><text class="i" transform="translate(146.71 41.34)">Galagos<tspan x="-10.01" y="12">(bushbabies)</tspan></text><text class="i" transform="translate(256.56 406.93)">Guenons, vervet<tspan x="-7.24" y="12">and patas monkeys</tspan></text><text class="i" transform="translate(324.16 370.36)">Baboons, mandrills<tspan x="10" y="12">and macaques</tspan></text><text class="i" transform="translate(169.8 412.92)">Langurs<tspan x="-31.13" y="12">and colobus monkeys</tspan></text><text class="i" transform="translate(105.33 390.75)"><tspan class="n">T</tspan><tspan x="4.63" y="0">arsiers</tspan></text><text class="i" transform="translate(382.09 159.76)">Owl monkeys</text><text class="i" transform="translate(391.74 179.24)">Capuchin and<tspan x="-6.76" y="12">squir</tspan><tspan class="o" x="15.28" y="12">r</tspan><tspan x="18.43" y="12">el monkeys</tspan></text><text class="i" transform="translate(400.83 216.13)">Howler and<tspan x="-9.92" y="12">spider monkeys</tspan></text><text class="i" transform="translate(394.13 256.16)">Sakis, titis<tspan x="-3.06" y="12">and uakaris</tspan></text><text class="i" transform="translate(201.93 36.57)"><tspan class="j">A</tspan><tspan x="6.3" y="0">ye-</tspan><tspan x="-0.09" y="12">ayes</tspan></text><text class="i" transform="translate(278.76 53.12)">Dwarf<tspan x="-1.87" y="12">lemurs</tspan></text><text class="i" transform="translate(315.69 80.69)">Sifakas, indris</text><text class="i" transform="translate(334.9 99.12)">Sportive lemurs</text><text class="i" transform="translate(230.81 47.34)">Lemurs</text><circle class="p" cx="215.34" cy="229.05" r="0.28"/></svg>