<?xml version="1.0" encoding="utf-8"?>
<!-- Generator: Adobe Illustrator 15.0.0, SVG Export Plug-In . SVG Version: 6.00 Build 0)  -->
<!DOCTYPE svg PUBLIC "-//W3C//DTD SVG 1.1//EN" "http://www.w3.org/Graphics/SVG/1.1/DTD/svg11.dtd">
<svg version="1.1" id="Layer_1" xmlns="http://www.w3.org/2000/svg" xmlns:xlink="http://www.w3.org/1999/xlink" x="0px" y="0px"
	 width="200px" height="200px" viewBox="0 0 200 200" enable-background="new 0 0 200 200" xml:space="preserve">
<g>
	<path fill-rule="evenodd" clip-rule="evenodd" fill="#9D8181" d="M89.786,97.757c0.154,0,0.308,0,0.461,0
		c1.364,0.482,1.049,2.643,2.538,2.999c-0.755,2.883,2.128,5.737-0.461,7.844c-0.311,0.253-0.828,0.036-1.153,0.23
		c-2.066,1.234-3.062,3.794-3.922,5.998c-4.588,1.41-5.191,6.805-7.844,10.15c-3.523,1.546-5.294-1.68-7.382-2.999
		c0.363-1.564,0.101-3.754-1.615-4.383c0.428-2.303,0.201-3.833,0.461-6.229c-2.286-0.637-4.407-1.438-3.921-4.845
		c2.24-0.451,4.618-0.765,5.767-2.307c5.698,0.448,11.246-0.573,15.226-2.538c0.621-1.32-0.754-0.987-0.692-2.307
		c0.696-0.303,1.841-0.158,2.538-0.461C89.786,98.526,89.786,98.142,89.786,97.757z M81.48,111.599
		c-1.119,1.774-4.654-0.188-4.614,2.537c0.817,0.261,1.313-0.969,1.846-0.23c-0.219,1.396-1.004,2.226-1.846,2.999
		c1.079-0.527,3.018-0.119,4.614-0.692c1.975-0.708,5.333-3.229,5.537-4.383c0.274-1.55-1.536-2.865-1.153-5.075
		C83.688,107.654,81.714,108.756,81.48,111.599z"/>
	<path fill-rule="evenodd" clip-rule="evenodd" fill="#ADB7C9" d="M144.921,148.971c0.185-0.8-0.344-0.887-0.23-1.615
		c2.4,4.213,5.826,7.4,10.611,9.228c3.149,1.695,3.439,6.25,4.614,9.92c-2.369,0.45-2.357-0.32-4.845,0.231
		c0.165,1.145,0.187,1.229-0.23,2.076c-2.57,0.646-4.656-1.201-6.921-1.385C146.937,162.219,146.381,155.309,144.921,148.971z"/>
	<path fill-rule="evenodd" clip-rule="evenodd" fill="#ADB7C9" d="M196.365,188.188c-1.286-0.498-1.959-1.718-3.691-1.153
		c-0.927-1.892-4.14-2.029-4.383-3.922c-1.809-1.113-3.595-2.25-5.306-3.461c0.044-0.801,0.815-0.876,0.923-1.614
		c-3.138-0.733-5.611-3.028-7.613-5.537c-1.56,0.1-2.468-0.453-2.537-1.846c-1.853-0.685-3.467-1.608-4.614-2.999
		c-0.715,0.693-1.052-0.062-1.615-0.691c-0.168-1.011,0.459,0.186,0.462-0.462c-0.905-1.236-3.631-1.398-5.075-1.384
		c-1.042-1.188-1.832-2.628-2.769-3.922c0.395-0.673,0.84,0.522,1.615,0.23c12.151,4.689,22.591,11.09,34.604,15.918
		C196.365,180.96,196.365,184.574,196.365,188.188z"/>
	<path fill-rule="evenodd" clip-rule="evenodd" fill="#1B191B" d="M95.553,171.117c-0.584,0.261-0.58,1.112-1.615,0.923
		c-0.169-0.216-0.419-0.35-0.692-0.462c0.521-1.111,0.423-2.061,0.23-3.46c1.275-0.727,2.693,0.165,3.46,0.692
		c1.919-0.843,5.283,0.58,6.92-1.846c0.86,0.217,2.083,0.07,2.308,0.923c0.631-0.215,0.983-0.708,1.614-0.923
		c1.243,0.538,1.508,1.604,2.999,1.384c0.42-0.272,0.182-1.203,0.462-1.614c0.869-0.178,1.103,0.281,1.846,0.23
		c0.111,0.797,0.211,2.974-0.692,3.46c-0.453,0.426-1.153-0.202-1.385-0.692c-1.445,1.51-3.118,4.88-6.229,3.23
		C101.621,174.074,97.252,174.014,95.553,171.117z"/>
	<path fill-rule="evenodd" clip-rule="evenodd" fill="#6B8FB7" d="M81.02,196.493c-1.923,0-3.845,0-5.768,0
		c-0.729-1.808-1.594-3.481-2.076-5.536c-3.729-0.995-6.408,0.942-8.074,2.768c0.53-6.698,2.137-14.318,3.922-20.531
		c1.6,4.32,1.586,10.256,3.691,14.072c0.487,0.508,0.682-0.296,1.384-0.23C76.118,190.475,77.994,194.059,81.02,196.493z"/>
	<path fill-rule="evenodd" clip-rule="evenodd" fill="#4B3029" d="M149.535,109.753c-0.357-5.065,0.211-6.73,0.691-10.15
		c-0.385-3.355,0.038-9.174-2.999-10.612c-1.438,0.098-2.409,0.84-3.229-0.23c-0.466,0.491,0.488,1.904-0.923,1.845
		c-1.31-0.483-1.294-3.179-1.153-4.383c-2.671-3.686-4.677-8.2-8.767-10.612c-2.639-1.557-6.178-1.513-8.766-3.691
		c-2.228,0.086-3.501-1.529-5.537-0.923c-2.005-0.994-4.792-1.205-6.689-2.307c-3.219,0.345-9.206-0.557-13.38,0
		c-4.39,0.585-8.573,0-12.688,0c-3.746,0-6.096,3.164-9.228,2.538c-3.737,1.8-8.353,2.72-10.381,6.229
		c-1.183,0.047-1.68,0.781-2.769,0.923c-0.732,2.756-3.172,5.442-3.46,8.997c-0.27,3.337,0.905,7.208-0.23,10.842
		c-4.691,1.213-4.43-2.452-6.921-3.921c-4.723,2.833-0.787,9.854-1.153,15.456c1.821,1.569,0.432,4.33,1.846,4.614
		c0.387,0.923,0.354,2.749,1.153,3.922c0.454,0.665,2.958,2.698,3.46,5.536c0.11,0.622-0.218,1.398,0,2.076
		c0.698,2.175,3.5,3.321,4.152,5.768c0.384,1.438-0.004,2.939,0.461,4.383c0.456,1.411,1.715,2.841,2.538,4.383
		c2.154,4.037,5.055,8.175,6.69,12.228c-0.738-0.367-1.309,0.029-1.384,0.922c-0.411-0.169-0.033-0.419,0-0.691
		c-0.543-0.15-0.716,2.046-2.076,1.846c4.322-2.945-0.266-6.987-2.307-10.612c-1.29-2.289-3.068-4.84-3.922-7.151
		c-0.728-1.97-0.442-4.231-1.153-5.998c-0.75-1.861-2.882-2.835-3.46-4.383c-0.319-0.853-0.061-1.643-0.231-2.538
		c-0.415-2.178-1.922-3.312-2.999-5.306c-1.363-2.524-2.659-6.536-3.229-9.228c-0.637-3.009,0.291-6.569-1.384-8.536
		c-0.163-3.919,0.369-7.626,2.999-7.844c2.233-0.185,3.115,2.688,5.537,2.999c0.554-5.702-0.094-10.204,0.461-15.226
		c0.324-2.929,3.544-7.711,6.229-9.689c0.504-0.372,1.141-0.322,1.615-0.692c1.487-1.162,2.266-3.062,4.152-3.691
		c1.547-0.515,4.438-1.274,5.998-1.615c3.895-0.85,9.132-1.651,12.688-1.615c1.969,0.02,3.854,0.91,5.537-0.461
		c2.757,0.402,6.273-0.383,8.535,0.923c4.42-1.558,8.487-0.527,13.381,0.461c2.113,0.427,4.645,0.283,6.229,0.922
		c1.38,0.558,2.34,2.272,3.69,2.999c2.437,1.312,5.577,2.044,7.613,3.46c3.61,5.156,7.86,9.672,10.381,15.918
		c5.803-0.651,4.137,6.167,5.998,9.458C150.047,100.883,150.033,105.561,149.535,109.753z"/>
	<path fill-rule="evenodd" clip-rule="evenodd" fill="#353235" d="M196.365,176.423c-6.587-1.97-12.228-6.462-18.687-9.228
		c-1.592-0.682-3.274-1.063-4.844-1.846c-1.387-0.69-2.725-1.629-4.152-2.307c-4.273-2.028-8.916-2.592-11.073-6.69
		c-3.677-1.301-7.303-2.841-9.689-5.767c-1.798-2.205-2.192-5.204-4.152-7.383c-1.437-1.597-3.46-1.899-3.691-4.152
		c-0.161-1.569,2.217-5.19,2.999-8.074c0.387-1.424,0.134-4.245,0.692-5.768c0.845-2.301,3.904-3.801,3.46-6.92
		c1.283-2.332,1.825-5.403,2.308-8.536c0.498-4.192,0.512-8.87,1.614-12.457c-1.861-3.291-0.195-10.109-5.998-9.458
		c-2.521-6.246-6.771-10.762-10.381-15.918c-2.036-1.417-5.177-2.149-7.613-3.46c-1.351-0.727-2.311-2.441-3.69-2.999
		c-1.584-0.64-4.115-0.496-6.229-0.922c-4.894-0.989-8.961-2.019-13.381-0.461c-2.262-1.306-5.778-0.521-8.535-0.923
		c-1.683,1.372-3.568,0.481-5.537,0.461c-3.556-0.036-8.793,0.765-12.688,1.615c-1.56,0.34-4.451,1.1-5.998,1.615
		c-1.886,0.628-2.665,2.529-4.152,3.691c-0.475,0.371-1.111,0.321-1.615,0.692c-2.685,1.978-5.904,6.76-6.229,9.689
		c-0.555,5.021,0.093,9.523-0.461,15.226c-2.422-0.312-3.303-3.184-5.537-2.999c-2.63,0.218-3.162,3.924-2.999,7.844
		c1.675,1.966,0.747,5.527,1.384,8.536c0.57,2.691,1.867,6.703,3.229,9.228c1.077,1.994,2.584,3.128,2.999,5.306
		c0.17,0.896-0.088,1.686,0.231,2.538c0.578,1.548,2.711,2.521,3.46,4.383c0.711,1.767,0.426,4.028,1.153,5.998
		c0.854,2.312,2.632,4.862,3.922,7.151c2.041,3.625,6.628,7.667,2.307,10.612c-4.665,1.105-8.109,3.426-12.457,5.306
		c-3.096,1.338-6.763,1.942-9.689,3.46c-1.424,0.739-2.473,2.414-4.152,2.999c-6.248,2.179-12.859,3.814-19.147,6.229
		c-3.91,1.502-7.75,3.522-11.073,4.384c-3.22,0.835-6.592,0.453-8.766,2.537c0-0.23,0-0.461,0-0.691
		c1.801-1.716,5.448-1.72,8.536-2.538c4.082-1.082,8.112-3.344,12.458-4.845c4.445-1.535,8.931-3.002,13.149-4.152
		c1.535-0.418,3.283-1.016,4.614-1.614c1.457-0.656,2.522-2.002,3.922-2.769c2.832-1.552,6.704-2.104,9.919-3.461
		c3.189-1.346,5.958-3.47,8.767-4.613c1.622-0.661,3.594-0.274,4.844-1.615c1.292-2.366-1.872-5.979-3.46-8.766
		c-1.319-2.316-3.361-5.184-4.152-7.383c-0.716-1.99-0.557-4.217-1.153-5.767c-0.688-1.79-2.916-3.121-3.46-4.614
		c-0.405-1.11-0.166-2.409-0.461-3.46c-0.526-1.873-1.995-3.104-2.768-4.614c-1.367-2.671-2.577-6.081-3.23-9.228
		c-0.419-2.022,0.113-4.403-0.461-6.69c-0.751-2.991-5.181-4.775-7.843-6.459c-1.791-1.132-4.035-3.162-5.998-4.845
		c-2.017-1.729-4.454-3.325-5.768-4.845c-0.64-0.74-1.084-2.134-1.845-3.229c-1.435-2.064-4.083-4.259-4.153-7.613
		c-0.074-3.581,3.223-6.736,4.614-9.458c2.918-2.007,4.725-3.798,8.997-5.075c4.634-1.385,10.88-3.42,16.841-3.922
		c1.646-4.05,1.791-8.122,3.229-11.765c1.413-3.579,2.727-7.087,4.383-10.381c3.264-6.491,6.35-13.423,10.842-18.917
		c1.975-2.416,5.17-5.345,8.074-6.459c3.092-1.187,8.397-0.768,12.919-1.384c2.315-0.316,3.928-0.923,5.998-0.923
		c7.95,0,13.996,4.194,19.378,7.382c1.526,0.904,2.901,1.661,4.383,2.769c3.144,2.35,6.354,3.61,8.767,6.921
		c1.01,1.387,2.217,3.506,2.999,5.306c1.401,3.229,3.307,6.637,3.921,10.381c0.124,0.752-0.134,2.158,0,3.229
		c0.128,1.021,0.847,1.826,1.154,3.46c0.733,3.908-0.153,9.595,1.384,11.535c1.489,1.878,5.63,1.869,8.535,2.768
		c2.242,0.693,5.107,2.389,8.074,3.46c2.346,0.847,4.888,0.95,6.921,1.846c2.219,0.978,4.676,2.375,5.998,3.46
		c1.205,0.988,3.624,3.509,3.461,5.998c-0.096,1.452-1.97,4.092-3.23,5.537c-2.456,2.816-7.401,5.715-10.381,8.074
		c-1.691,1.339-3.234,3.354-4.845,4.383c-2.2,1.407-5.767,2.104-6.459,4.845c-0.263,1.042,0.152,2.507,0,3.691
		c-0.121,0.94-0.595,1.77-0.692,2.538c-0.189,1.502,0.115,2.944,0,4.383c-0.2,2.513-1.349,5.303-2.076,8.074
		c-0.48,1.833-0.388,3.391-1.153,4.845c-0.515,0.977-2.039,1.94-2.537,3.229c-0.511,1.319-0.288,3.768-0.692,5.536
		c-0.699,3.056-3.315,6.14-2.999,8.306c0.19,1.304,2.437,2.106,3.46,3.229c1.452,1.592,2.76,5.325,3.922,6.921
		c1.461,2.004,3.859,3.883,5.768,4.844c1.288,0.649,2.875,0.761,4.152,1.615c1.226,0.819,1.951,2.67,3.229,3.46
		c2.444,1.512,5.756,1.973,8.536,3.461c1.378,0.737,2.56,1.444,3.922,2.076c7.614,3.531,15.679,7.649,22.607,10.843
		C196.365,176.115,196.365,176.27,196.365,176.423z M102.704,8.479c-0.47-0.53-1.916-0.083-2.768-0.231
		C94.53,9.536,89.44,9.115,84.941,9.863c-4.064,0.677-7.467,3.629-9.919,6.459c-4.176,4.82-7.38,11.322-10.381,17.763
		c-3.555,7.629-7.003,14.49-7.613,23.3c-5.33,2.042-13.128,2.356-17.302,4.845c24.465-0.531,52.89-2.829,78.436-1.153
		c20.463,1.342,41.452,2.088,54.442,11.535c1.546,1.351,1.114,4.743,0.462,5.998c2.132-0.5,2.001-3.208,1.384-5.306
		c-2.81-2.885-7.567-6.379-12.227-7.382c-0.835-0.18-1.874,0.078-2.769-0.23c-0.947-0.327-1.967-1.509-2.768-1.846
		c-1.562-0.657-4.521-1.614-7.151-2.307c-2.676-0.705-6.159-1.299-7.151-2.538c-1.681-2.097-0.861-7.94-1.615-11.996
		c-1.132-6.089-2.689-11.566-4.614-16.148c-2.986-7.111-7.315-9.899-13.841-14.072c-5.829-3.728-11.708-7.122-19.147-8.305
		C103.012,8.479,102.858,8.479,102.704,8.479z"/>
	<path fill-rule="evenodd" clip-rule="evenodd" fill="#6C5B5D" d="M72.945,44.467c-5.803,2.81-11.194,6.031-14.765,11.073
		c0.772-12.301,6.704-21.44,11.766-30.221c0.275-1.34,0.865-2.364,2.076-2.769c-0.783,1.538,0.434,2.266-0.692,3.46
		c1.1,1.287,2.271,1.217,4.383,1.615c3.223-2.699,4.503-7.339,6.69-11.073c-0.39-0.917-0.164-2.451-0.923-2.999
		c-0.891-0.045-1.7-0.008-2.307,0.23c3.798-5.662,15.521-3.722,23.53-5.306c0.154,0,0.308,0,0.462,0
		c8.271,1.821,14.743,5.709,20.531,9.689c1.415,0.973,3.104,1.628,4.383,2.538c6.305,4.48,9.014,12.407,11.305,20.993
		c-0.924-2.306-1.056-5.404-2.538-7.151c-1.837-8.444-8.64-13.424-15.918-17.994c-4.951-3.109-10.506-6.512-16.84-7.613
		c-3.449-0.6-7.664,0.729-11.766,0.922c-4.132,0.636-9.559-0.023-11.535,2.769c0.198,0.571,1.606-0.068,1.846,0.461
		c-0.099,1.175,0.354,1.799,0.692,2.538c-2.011,5.832-5.204,10.483-8.766,14.764c-1.071-0.931-3.329-1.897-4.614-1.846
		c-0.313-0.071-0.191-0.578-0.231-0.922c-4.303,4.316-7.009,12.609-9.689,18.917c0.692,1.647-0.538,2.455-0.231,4.383
		c1.775,0.764,6.024-2.224,5.537-4.383c1.575-0.04,0.725-1.724,2.769-1.615c-0.164,0.989-1.294,1.013-1.384,2.076
		C69.204,46.57,70.645,45.089,72.945,44.467z"/>
	<path fill-rule="evenodd" clip-rule="evenodd" fill="#6C5B5D" d="M81.942,41.699c9.141-2.444,20.575-2.695,29.759-0.461
		c-1.669-0.022-2.636-0.748-4.383-0.692c-1.15,1.982,0.132,4.643-0.23,7.151c-1.31-0.052-1.893,0.408-2.999,0
		c-0.156-1.079,1.486-0.358,1.384-1.384c-0.025-0.59-0.772-0.458-1.384-0.461c-0.122,1.938-3.577,1.769-3.23-0.461
		c-2.675,0.291-2.938-1.831-5.075-2.076c0.146-1.536,1.413-1.285,2.768-1.154c0,0.461,0,0.923,0,1.384
		c1.036-0.113,1.729,0.117,2.538,0.231c0.266,0.272,0.261,0.815,0.23,1.384c1.3,0.224,1.982-0.171,2.076-1.153
		c-0.255-0.461-1.239,0.281-2.076,0c-0.237-0.532-0.794-0.744-0.692-1.615c-0.552-0.14-1.052-0.332-1.845-0.231
		c-0.237-0.532-0.794-0.744-0.692-1.615c-0.934-0.065-1.604-0.396-2.538-0.461c-0.617,0.565,0.94,1.045,0.231,1.846
		c-0.826,0.416-1.874,0.157-2.538-0.231c-0.001-0.77,0.75-0.787,0.692-1.615C90.29,40.562,85.591,40.62,81.942,41.699z"/>
	<path fill-rule="evenodd" clip-rule="evenodd" fill="#6C5B5D" d="M116.315,42.391c4.711,1.44,9.119,3.185,12.919,5.537
		c0.323,2.234,1.225,5.053,0.922,7.151c1.874,1.836,3.658-1.072,5.768-1.153c-1.107,1.199-3.247,1.366-3.691,3.229
		c-0.855,0.164-0.989-0.394-1.845-0.23c-3.19-3.442-8.633-5.799-14.304-5.998c-0.426,0.035-0.142,0.781-0.461,0.922
		c-0.461,0-0.923,0-1.384,0c-0.56,0.133-0.514,0.872-0.692,1.384c-1.298-0.842-2.335,1.609-3.46,0.923
		c1.714-0.451,0.636-0.889,1.384-2.307c-0.206-0.566-1.614-0.625-2.076-0.23c0.132,0.637,0.244,1.293,1.153,1.153
		c-1.611,0.99-1.225-2-2.769-1.845c0-0.385,0-0.769,0-1.154c0.855-0.529,1.483-0.326,2.538-0.922
		c0.296,0.396,1.098,0.286,1.153,0.922c7.264-0.419,12.048,2.854,17.994,4.845c0.124-1.619,0.029-4.926-0.692-6.459
		c-0.652-0.19-0.598,0.325-1.153,0.231c-0.27-1.454-1.655-2.654-3.461-1.846c-0.017-0.402,0.052-0.717,0.231-0.923
		c-1.06-0.543-2.7-1.416-3.922-0.461c-0.146-2.084-2.799-1.662-4.152-2.538C116.315,42.545,116.315,42.468,116.315,42.391z"/>
	<path fill-rule="evenodd" clip-rule="evenodd" fill="#39434F" d="M103.166,8.479c7.439,1.183,13.318,4.577,19.147,8.305
		c6.525,4.173,10.854,6.961,13.841,14.072c1.925,4.582,3.482,10.059,4.614,16.148c0.754,4.056-0.065,9.899,1.615,11.996
		c0.992,1.239,4.476,1.833,7.151,2.538c2.631,0.693,5.59,1.65,7.151,2.307c0.801,0.337,1.82,1.519,2.768,1.846
		c0.895,0.309,1.934,0.051,2.769,0.23c4.659,1.003,9.417,4.498,12.227,7.382c0.617,2.097,0.748,4.806-1.384,5.306
		c0.652-1.254,1.084-4.646-0.462-5.998c-12.99-9.447-33.979-10.193-54.442-11.535C92.616,59.402,64.19,61.7,39.726,62.23
		c4.173-2.488,11.972-2.802,17.302-4.845c0.61-8.81,4.058-15.671,7.613-23.3c3.001-6.441,6.205-12.943,10.381-17.763
		c2.453-2.831,5.855-5.783,9.919-6.459c4.499-0.749,9.589-0.328,14.995-1.615c0.853,0.147,2.298-0.299,2.768,0.231
		c-8.009,1.583-19.732-0.356-23.53,5.306c0.607-0.239,1.416-0.276,2.307-0.23c0.759,0.548,0.533,2.082,0.923,2.999
		c-2.187,3.734-3.467,8.375-6.69,11.073c-2.112-0.398-3.283-0.329-4.383-1.615c1.126-1.194-0.091-1.922,0.692-3.46
		c-1.211,0.404-1.801,1.429-2.076,2.769c-5.062,8.781-10.994,17.919-11.766,30.221c3.571-5.042,8.962-8.263,14.765-11.073
		c2.889-1.032,5.448-2.396,8.997-2.769c3.649-1.079,8.348-1.136,11.996-1.615c0.059,0.828-0.693,0.845-0.692,1.615
		c0.664,0.388,1.711,0.646,2.538,0.231c0.709-0.801-0.848-1.28-0.231-1.846c0.934,0.065,1.604,0.396,2.538,0.461
		c-0.102,0.871,0.455,1.083,0.692,1.615c0.793-0.101,1.293,0.091,1.845,0.231c-0.102,0.871,0.455,1.083,0.692,1.615
		c0.837,0.281,1.821-0.461,2.076,0c-0.094,0.982-0.776,1.377-2.076,1.153c0.03-0.568,0.035-1.111-0.23-1.384
		c-0.81-0.114-1.502-0.344-2.538-0.231c0-0.461,0-0.923,0-1.384c-1.355-0.131-2.622-0.382-2.768,1.154
		c2.138,0.246,2.4,2.367,5.075,2.076c-0.347,2.23,3.108,2.399,3.23,0.461c0.611,0.003,1.358-0.128,1.384,0.461
		c0.103,1.025-1.54,0.305-1.384,1.384c1.106,0.408,1.689-0.052,2.999,0c0.362-2.508-0.92-5.169,0.23-7.151
		c1.747-0.056,2.714,0.67,4.383,0.692c1.617,0.306,3.153,0.692,4.614,1.154c0,0.077,0,0.154,0,0.23
		c1.354,0.876,4.007,0.453,4.152,2.538c1.222-0.955,2.862-0.082,3.922,0.461c-0.18,0.206-0.248,0.521-0.231,0.923
		c1.806-0.808,3.191,0.392,3.461,1.846c0.556,0.094,0.501-0.421,1.153-0.231c0.722,1.534,0.816,4.84,0.692,6.459
		c-5.946-1.991-10.73-5.264-17.994-4.845c-0.056-0.637-0.857-0.526-1.153-0.922c-1.055,0.597-1.683,0.394-2.538,0.922
		c0,0.385,0,0.769,0,1.154c1.544-0.155,1.157,2.835,2.769,1.845c-0.909,0.14-1.021-0.516-1.153-1.153
		c0.462-0.395,1.87-0.336,2.076,0.23c-0.748,1.418,0.33,1.856-1.384,2.307c-0.919,0.073-0.625-1.067-1.385-1.153
		c-0.728,0.195-0.656,1.189-1.384,1.384c-6.177,0.334-12.036,0.07-17.302,0.461c-4.603,0.342-7.61,2.872-11.765,2.769
		c-1.083,0.917-2.555,1.443-4.152,1.846c25.781,0.133,55.686,0.456,80.05,4.614c-1.642-1.328-3.702-1.749-5.768-2.307
		c-1.861-0.503-4.622-0.855-5.997-2.076c-1.589-1.41-1.33-4.835-1.615-8.074c-0.354-4.013-1.398-5.992-1.384-9.92
		c-2.291-8.586-5-16.512-11.305-20.993c-1.279-0.91-2.968-1.565-4.383-2.538C117.909,14.189,111.438,10.301,103.166,8.479z
		 M79.866,43.083c-7.684,2.312-15.023,4.97-18.686,11.304c-1.451,0.625-2.243,1.909-3.229,2.999
		c6.938-0.366,12.525-2.085,18.686-3.229c0.201-0.685-0.986-1.138-0.461-1.384c1.604-0.318,2.427-1.418,3.922-1.845
		c0.588,1.428-0.615,1.938,0.23,3.229c4.394-0.163,10.723-0.336,14.995-1.384c1.794,1.148,3.731-0.028,5.306-0.461
		c1.036,2.1,4.063-0.106,5.306-0.692c-1.169-2.437-3.646,2.897-4.844-0.23c-0.07-1.224,1.61-0.696,1.614-1.846
		c-1.836-1.148-1.555,1.622-3.691,0.923c-0.134-0.903,0.199-1.339,0.461-1.846c-6.468-0.216-13.536,0.819-18.917,1.846
		C80.545,47.763,81.131,45.553,79.866,43.083z"/>
	<path fill-rule="evenodd" clip-rule="evenodd" fill="#A2989E" d="M92.323,9.863c4.102-0.194,8.317-1.522,11.766-0.922
		c6.334,1.101,11.889,4.504,16.84,7.613c7.278,4.569,14.081,9.549,15.918,17.994c2.016,4.722,2.031,8.38,2.999,15.687
		c0.342-0.325,0.496-0.736,0.461,0.231c-0.212,2.173-0.183,4.67,0.462,6.69c-1.197,0.804-1.423-1.339-2.307-1.615
		c-0.451-0.396-1.291-0.401-1.846-0.692c0.226-1.072-0.299-1.393-0.462-2.076c-0.272,0.266-0.815,0.261-1.384,0.231
		c-0.188-0.369-0.875-1.408-0.23-1.846c-0.524-0.398-0.892-0.954-1.846-0.923c-0.221-0.471-0.472-0.913-0.692-1.384
		c-5.88-4.026-12.956-7.253-21.915-8.767c-2.319-0.392-4.232-1.752-7.152-0.692c-1.987-1.024-3.732-1.189-6.228-1.384
		c0.49-0.587,1.598-0.555,2.538-0.692c-0.49-0.433-1.698-0.147-2.076-0.692c-0.099-0.637,0.86-0.216,0.922-0.692
		c-0.192-0.653-1.417-0.274-1.845-0.692c0.212-0.403,0.721-0.509,1.384-0.461c-0.625-0.682-1.922-0.692-2.999-0.923
		c0.726-0.627,1.716-0.095,2.307-0.461c-0.659-1.109-2.292,0.473-2.768-0.923c0.95,0.181,1.184-0.354,2.076-0.23
		c-0.091-0.755-1.13-0.562-1.846-0.692c0.974-1.148,3.016,0.193,4.152-0.692c-0.463-1.295-3.442,0.124-4.614-0.923
		c0.655-0.344,1.668-0.331,2.307-0.692c-0.668-0.639-2.323-0.292-3.23-0.692c0.294-1.167,3.167,0.245,3.46-0.922
		c-0.898-1.204-3.364,0.327-4.152-0.692c2.261-0.89,6.106-0.146,8.074-0.23c-2.42-0.656-5.156-0.996-7.844-1.384
		c0.546-0.454,1.736-0.264,2.307-0.692c-0.555-0.753-2.262-0.353-2.999-0.923c0.784-0.754,2.864-0.211,3.922-0.692
		c-0.307-0.462-1.024-0.514-1.615-0.692c0.098-0.748,1.232-0.459,1.615-0.923c-0.654-0.345-1.43-0.569-2.307-0.692
		c0.21-0.405,0.809-0.422,1.153-0.692c-0.256-0.572-1.8-0.622-0.922-1.615c-0.179-0.59-1.487-0.051-1.384-0.923
		c0.603-0.353,2.049,0.444,2.538-0.461c-0.982-0.685-2.265,0.336-2.999-0.461c0.236-0.533,1.061-0.478,1.846-0.461
		c0.16-1.006-1.746,0.054-1.384-1.154c1.8-0.18,3.12,0.539,4.614,0c-0.619-0.534-1.399-0.908-2.538-0.922
		c0.793-0.437,0.729-1.732,2.307-1.384c-0.717-1.259-2.375-0.964-2.769-2.076c-0.938,0.311-0.049,0.589,0,1.153
		c-0.461,0-0.923,0-1.384,0c0.045-0.59-0.385-1.167-0.23-1.615C92.323,10.017,92.323,9.94,92.323,9.863z M137.309,37.085
		c-2.775-9.997-8.813-16.414-17.533-19.839c0.64,1.744,3.445,1.322,4.383,2.768c-0.591,0.771-1.828-0.477-2.307,0.231
		c0.954,0.815,2.423,1.114,3.461,1.846c-0.195,0.497-1.471-0.086-1.615,0.461c0.846,0.309,1.718,0.589,2.076,1.384
		c-0.729-0.037-1.393-0.008-1.615,0.461c0.544,0.225,1.464,0.075,1.385,0.923c-2.292-0.092-4.147-0.621-5.998-1.153
		c-0.266,0.676,1.106,0.856,0.461,1.153c-1.47,0.324-2.473-1.521-3.46-0.231c-1.214-0.907-2.41-0.921-3.922-1.615
		c-1.282-0.587-1.96-1.746-2.769-1.845c-1.38-0.17-5.224-3.352-5.306-5.768c0.051-0.18,0.193-0.268,0.462-0.23
		c-0.005-0.996-1.149-0.85-1.154-1.846c-0.778,0.067-1.237,0.454-1.614,0.923c0.232,0.921,0.595,1.712,0.923,2.538
		c-1.021-1.068-2.682,0.104-3.922,0.23c0.867,1.235-1.229,0.028-1.384,0.923c1.207-0.053,1.501,0.806,2.768,0.692
		c0.685-0.055-0.925-0.858,0-1.154c1.083,0.853,1.961,0.808,2.769,1.615c-0.904,0.28-0.325,1.014-1.384,1.384
		c0.411,0.358,0.903,0.634,1.384,0.923c0.07,0.532-0.667,0.256-0.692,0.692c0.486,0.36,1.279,0.413,1.385,1.154
		c-0.801,0.185-0.887-0.344-1.615-0.231c0.156,1.074,1.945,0.515,2.307,1.384c-1.158,0.356-2.397-0.76-2.768,0.23
		c0.829,0.324,2.113,0.193,2.307,1.154c-1.004,0.004-2.076,0.076-2.769-0.231c1.677,1.246,5.062,0.782,6.459,2.307
		c-0.062,0.475-0.859,0.217-0.922,0.692c0.563,0.206,1,0.538,1.845,0.461c0.305-0.577-0.912-0.722-0.23-0.923
		c1.16-0.006,1.858,0.449,2.307,1.154c-0.272-0.266-0.815-0.261-1.384-0.231c-0.18,1.18,1.635,0.364,1.615,1.384
		c-1.532-0.467-3.137-0.862-4.845-1.153c0.735,1.573,4.565,1.275,4.845,2.538c-1.697-0.533-3.468-0.993-5.537-1.154
		c-0.285,0.747,0.747,0.176,0.462,0.923c-0.949,0.414-2.187-0.833-2.308,0.231c0.856,0.489,1.38-0.04,2.538,0.23
		c0.036-0.271-0.04-0.655,0.23-0.692c0.714,0.301,0.896-0.182,1.384,0.461c-1.333-0.07-0.383,0.943-1.153,1.153
		c-0.862,0.306-1.595-0.688-2.076,0c0.793,0.244,2.919,0.704,1.846,1.384c1.102,0.708,1.997,0.084,3.461,0c0,0.384,0,0.769,0,1.153
		c0.908-0.062,1.603,0.089,1.845,0.692c-0.677,0.391-1.701-0.51-2.999-0.23c0.39,1.106-0.146,0.812-0.691,1.384
		c1.755,0.244,3.299,0.7,4.613,1.384c-0.013,0.295-0.296,0.32-0.23,0.692c10.633,2.67,18.94,7.667,26.068,13.841
		c-0.161-1.376-1.638-1.438-1.615-2.999c0.48,0.13,0.746,0.659,1.153,0.231c-0.577-1.652-1.536-2.924-2.076-4.614
		c1.331-0.254,1.248,0.905,2.538,0.692C137.469,43.563,138.391,40.984,137.309,37.085z M111.24,19.091
		c0.757,0.785,1.701,2.599,2.999,2.076c-0.21-0.063-0.775-0.859-0.231-0.923c0.823,0.49,2.068,1.77,2.999,1.384
		c-0.178-0.778-0.354-1.251-1.153-1.846c-0.549,0.333-0.566,0.35-0.691,0.692c-0.844-0.323-2.031-1.39-2.769-0.461
		c-0.346-0.423-0.963-0.575-1.153-1.153c0.18-0.051,0.268-0.193,0.23-0.461c0.334,1.08,1.05-0.453,0.23-0.461
		c0.742,0.008,1.038,1.142,1.846,0.923c-0.331-0.284-0.438-0.793-0.461-1.384c1.197-0.038,1.668,1.86,2.537,1.384
		c-0.506-1.032-1.639-1.437-1.846-2.768c1.444,0.562,2.436,2.524,3.691,2.538c-0.262,0.753-0.771-0.057-0.923,0.923
		c0.302,0.182,1.221,0.902,1.384,0.461c-0.215-0.246-0.851-0.072-0.691-0.692c1.21-0.136,1.559,0.687,2.307,0.461
		c-2.711-2.056-4.675-4.86-7.382-6.921c-0.036,0.271,0.039,0.655-0.231,0.692c-0.74-0.566-1.873-0.742-2.999-0.923
		c-0.138,0.718-2.175,0.733-1.384,1.615c0.473-0.879,1.377-0.434,2.076-0.692c-0.431,0.41,0.188,0.586,0,1.384
		c-0.312-0.072-0.44-0.328-0.923-0.23c-0.533,1.351,0.708,1.764,0.923,2.999c-1.696-0.227-1.196-2.648-2.537-3.23
		C105.447,16.831,108.231,19.247,111.24,19.091z"/>
	<path fill-rule="evenodd" clip-rule="evenodd" fill="#ADB7C9" d="M138.692,47.005c-1.29,0.213-1.207-0.946-2.538-0.692
		c0.54,1.69,1.499,2.961,2.076,4.614c-0.407,0.428-0.673-0.101-1.153-0.231c-0.022,1.561,1.454,1.623,1.615,2.999
		c-7.128-6.175-15.436-11.171-26.068-13.841c-0.065-0.373,0.218-0.397,0.23-0.692c-1.314-0.684-2.858-1.14-4.613-1.384
		c0.546-0.572,1.081-0.278,0.691-1.384c1.298-0.279,2.322,0.622,2.999,0.23c-0.242-0.603-0.937-0.754-1.845-0.692
		c0-0.384,0-0.769,0-1.153c-1.464,0.084-2.359,0.708-3.461,0c1.073-0.681-1.053-1.141-1.846-1.384c0.481-0.688,1.214,0.306,2.076,0
		c0.771-0.21-0.18-1.224,1.153-1.153c-0.487-0.643-0.67-0.16-1.384-0.461c-0.271,0.037-0.194,0.42-0.23,0.692
		c-1.158-0.27-1.682,0.259-2.538-0.23c0.121-1.064,1.358,0.183,2.308-0.231c0.285-0.747-0.747-0.176-0.462-0.923
		c2.069,0.161,3.84,0.621,5.537,1.154c-0.279-1.262-4.109-0.964-4.845-2.538c1.708,0.291,3.312,0.687,4.845,1.153
		c0.02-1.02-1.795-0.205-1.615-1.384c0.568-0.03,1.111-0.035,1.384,0.231c-0.448-0.705-1.146-1.16-2.307-1.154
		c-0.682,0.201,0.535,0.346,0.23,0.923c-0.845,0.076-1.281-0.256-1.845-0.461c0.062-0.475,0.859-0.217,0.922-0.692
		c-1.396-1.525-4.782-1.062-6.459-2.307c0.692,0.307,1.765,0.235,2.769,0.231c-0.193-0.961-1.478-0.83-2.307-1.154
		c0.37-0.99,1.609,0.125,2.768-0.23c-0.361-0.869-2.15-0.31-2.307-1.384c0.729-0.113,0.814,0.416,1.615,0.231
		c-0.105-0.741-0.898-0.794-1.385-1.154c0.025-0.436,0.763-0.16,0.692-0.692c-0.48-0.289-0.973-0.565-1.384-0.923
		c1.059-0.37,0.479-1.104,1.384-1.384c-0.808-0.808-1.686-0.763-2.769-1.615c-0.925,0.296,0.685,1.099,0,1.154
		c-1.267,0.113-1.561-0.746-2.768-0.692c0.155-0.895,2.251,0.312,1.384-0.923c1.24-0.126,2.9-1.299,3.922-0.23
		c-0.328-0.825-0.69-1.617-0.923-2.538c0.377-0.469,0.836-0.856,1.614-0.923c0.005,0.996,1.149,0.85,1.154,1.846
		c-0.269-0.038-0.411,0.051-0.462,0.23c0.082,2.416,3.926,5.597,5.306,5.768c0.809,0.1,1.486,1.258,2.769,1.845
		c1.512,0.693,2.708,0.708,3.922,1.615c0.987-1.291,1.99,0.555,3.46,0.231c0.646-0.297-0.727-0.477-0.461-1.153
		c1.851,0.533,3.706,1.061,5.998,1.153c0.079-0.848-0.841-0.698-1.385-0.923c0.223-0.47,0.887-0.498,1.615-0.461
		c-0.358-0.795-1.23-1.076-2.076-1.384c0.145-0.547,1.42,0.036,1.615-0.461c-1.038-0.731-2.507-1.031-3.461-1.846
		c0.479-0.708,1.716,0.54,2.307-0.231c-0.938-1.446-3.743-1.024-4.383-2.768c8.72,3.425,14.758,9.842,17.533,19.839
		C138.391,40.984,137.469,43.563,138.692,47.005z"/>
	<path fill-rule="evenodd" clip-rule="evenodd" fill="#6B8FB7" d="M138.462,55.541c0.884,0.276,1.109,2.419,2.307,1.615
		c-0.645-2.02-0.674-4.517-0.462-6.69c-1.103,10.272,3.916,10.795,11.535,12.688c-16.525-1.813-34.337-3.937-52.136-4.152
		c6.536-1.294,13.679,0.713,19.839-0.692c0.142-0.741-0.83-0.316-0.23-0.923c2.153,0.724,5.172-0.624,6.229,0.923
		c2.393-0.117,3.852,0.16,5.306-0.692c0.827,0.342-0.135,1.042,0.692,1.384c2.265-2.698,5.836,0.495,8.766,0
		C140.343,57.197,138.892,56.878,138.462,55.541z"/>
	<path fill-rule="evenodd" clip-rule="evenodd" fill="#5B708D" d="M107.088,14.477c1.341,0.582,0.841,3.003,2.537,3.23
		c-0.215-1.235-1.456-1.648-0.923-2.999c0.482-0.098,0.611,0.158,0.923,0.23c0.188-0.798-0.431-0.974,0-1.384
		c-0.699,0.258-1.604-0.188-2.076,0.692c-0.791-0.882,1.246-0.897,1.384-1.615c1.126,0.181,2.259,0.356,2.999,0.923
		c0.271-0.038,0.195-0.421,0.231-0.692c2.707,2.061,4.671,4.865,7.382,6.921c-0.748,0.225-1.097-0.597-2.307-0.461
		c-0.159,0.62,0.477,0.446,0.691,0.692c-0.163,0.441-1.082-0.279-1.384-0.461c0.151-0.98,0.661-0.169,0.923-0.923
		c-1.256-0.013-2.247-1.976-3.691-2.538c0.207,1.332,1.34,1.736,1.846,2.768c-0.869,0.476-1.34-1.422-2.537-1.384
		c0.023,0.591,0.13,1.1,0.461,1.384c-0.808,0.219-1.104-0.915-1.846-0.923c0.819,0.009,0.104,1.541-0.23,0.461
		c0.037,0.269-0.051,0.411-0.23,0.461c0.19,0.578,0.808,0.73,1.153,1.153c0.737-0.929,1.925,0.138,2.769,0.461
		c0.125-0.342,0.143-0.359,0.691-0.692c0.8,0.595,0.976,1.068,1.153,1.846c-0.931,0.386-2.176-0.895-2.999-1.384
		c-0.544,0.063,0.021,0.859,0.231,0.923c-1.298,0.523-2.242-1.292-2.999-2.076C108.231,19.247,105.447,16.831,107.088,14.477z"/>
	<path fill-rule="evenodd" clip-rule="evenodd" fill="#5B708D" d="M140.307,50.465c0.035-0.967-0.119-0.556-0.461-0.231
		c-0.968-7.307-0.983-10.965-2.999-15.687c1.482,1.748,1.614,4.846,2.538,7.151c-0.015,3.928,1.03,5.907,1.384,9.92
		c0.285,3.239,0.026,6.664,1.615,8.074c1.375,1.221,4.136,1.573,5.997,2.076c2.065,0.559,4.126,0.979,5.768,2.307
		c-24.364-4.158-54.269-4.481-80.05-4.614c1.597-0.402,3.069-0.929,4.152-1.846c4.155,0.103,7.163-2.426,11.765-2.769
		c5.266-0.391,11.125-0.127,17.302-0.461c0.728-0.195,0.656-1.189,1.384-1.384c0.76,0.086,0.466,1.227,1.385,1.153
		c1.125,0.687,2.162-1.765,3.46-0.923c0.179-0.513,0.133-1.251,0.692-1.384c0.461,0,0.923,0,1.384,0
		c0.319-0.141,0.035-0.888,0.461-0.922c5.671,0.199,11.113,2.556,14.304,5.998c0.855-0.164,0.989,0.394,1.845,0.23
		c0.444-1.863,2.584-2.03,3.691-3.229c-2.109,0.082-3.894,2.989-5.768,1.153c0.303-2.099-0.599-4.917-0.922-7.151
		c-3.8-2.352-8.208-4.096-12.919-5.537c-1.461-0.462-2.997-0.848-4.614-1.154c-9.185-2.233-20.619-1.982-29.759,0.461
		c-3.548,0.373-6.107,1.736-8.997,2.769c-2.301,0.622-3.741,2.103-6.229,2.538c0.09-1.063,1.22-1.087,1.384-2.076
		c-2.044-0.109-1.193,1.575-2.769,1.615c0.487,2.16-3.761,5.147-5.537,4.383c-0.307-1.928,0.923-2.736,0.231-4.383
		c2.68-6.308,5.386-14.601,9.689-18.917c0.04,0.345-0.083,0.851,0.231,0.922c1.285-0.051,3.543,0.915,4.614,1.846
		c3.562-4.281,6.755-8.932,8.766-14.764c-0.338-0.739-0.791-1.363-0.692-2.538c-0.24-0.529-1.647,0.109-1.846-0.461
		c1.976-2.792,7.403-2.132,11.535-2.769c0,0.077,0,0.154,0,0.231c-1.618,0.15-2.829,0.708-4.614,0.692
		c0.467,0.599-0.527,1.859,1.153,1.846c-0.576,1.55,0.073,2.989-1.384,3.46c0.289,1.256,1.583-0.378,1.846,0.23
		c-0.094,0.922-0.79-0.075-1.153,0.692c0.433,0.784,0.53,1.289-0.461,1.615c0.029,0.509,0.979,0.098,1.384,0.23
		c-0.053,0.947-1.125,0.875-2.077,0.923c0.118,1.341-0.322,1.918-1.153,2.768c1.545,1.063-0.806,2.581,0.461,2.769
		c-0.317,0.836-1.122,1.185-2.076,1.384c0.449,0.86-0.516,1.201-0.231,2.538c-0.48-0.13-0.746-0.659-1.153-0.231
		c0.085,1.395-0.259,2.002,0.231,3.23c-1.407-0.189-0.954,1.126-1.154,1.615c-1,0-1.597,0.402-2.076,0.923
		c0.459,0.688,1.667-0.588,2.076,0c0.174,0.866-0.881,0.503-0.922,1.153c0.826-0.11,1.333-0.375,2.076,0
		c0.556,1.751-0.65,1.225-1.154,2.307c1.33,0.177,2.199-0.548,3.23,0c-0.325,0.751-1.633,0.52-2.076,1.153
		c4.475,1.431,13.298-0.751,19.839,0c2.92-1.061,4.833,0.3,7.152,0.692c8.959,1.514,16.035,4.741,21.915,8.767
		c0.221,0.471,0.472,0.913,0.692,1.384c0.954-0.031,1.321,0.524,1.846,0.923c-0.645,0.438,0.042,1.477,0.23,1.846
		c0.568,0.03,1.111,0.035,1.384-0.231c0.163,0.684,0.688,1.004,0.462,2.076c0.555,0.292,1.395,0.297,1.846,0.692
		c0.43,1.338,1.881,1.656,1.845,3.46c-2.93,0.495-6.501-2.698-8.766,0c-0.827-0.342,0.135-1.042-0.692-1.384
		c-1.454,0.852-2.913,0.575-5.306,0.692c-1.057-1.546-4.075-0.199-6.229-0.923c-0.6,0.607,0.372,0.182,0.23,0.923
		c-6.16,1.405-13.304-0.602-19.839,0.692c17.799,0.215,35.611,2.339,52.136,4.152C144.223,61.261,139.204,60.738,140.307,50.465z"/>
	<path fill-rule="evenodd" clip-rule="evenodd" fill="#8C6C69" d="M105.934,73.765c14.169,0.869,30.451,1.507,34.604,13.149
		c-0.002,2.155,0.591,3.715,1.384,5.075c3.487,0.873,2.758-2.471,5.998-1.846c2.088,1.834,1.279,6.564,2.307,9.458
		c-0.48,3.42-1.049,5.085-0.691,10.15c-0.482,3.133-1.024,6.204-2.308,8.536c1.377-4.787,2.288-11.231,1.846-17.071
		c-0.034-0.515-0.581,0.299-1.153,0c-1.24-1.836-1.143-5.01-2.307-6.921c-1.758-0.473-3.161-1.3-5.075-1.615
		c-2.215-6.629-4.646-11.747-11.535-12.688c-2.303-0.314-4.396,0.292-5.767-1.845c-6.256-1.684-13.409-1.094-19.379-1.154
		c-0.702,0.374-0.994,1.158-1.845,1.384c-0.063,0.613,0.443,1.605-0.692,2.076c-1.507-0.398-2.993-2.697-5.998-2.538
		c-1.272,0.068-1.979,1.277-2.999,1.384c-2.902-1.828-5.486,0.058-8.766,0c-1.703,0.45-1.467,2.84-2.307,4.152
		c-2.077-0.37-3.146,0.279-4.152,1.846c0.402,1.424,2.884,2.04,4.844,2.307c3.44,0.469,7.006,0.949,9.689-0.23
		c0.491,1.479,1.938,2.644,3.46,2.999c0.235,4.958,3.099,8.214,2.538,12.919c-0.455,3.816-3.926,7.513-1.153,11.534
		c2.032-0.042,2.8,2.284,4.383,2.999c1.345,0.607,3.139-0.07,4.153,1.384c1.196-0.341,1.288-1.786,2.537-2.076
		c1.883,0.507,3.263,1.091,5.537,0.692c1.483-3.031-0.869-5.78-1.154-8.535c2.558,0.874,3.802,3.451,5.768,5.075
		c0.575,0.475,1.48,0.634,2.076,1.153c2.715,2.368,4.952,5.396,8.074,7.382c1.392-0.03,1.206,0.278,2.538,0.462
		c2.579,4.372-0.812,9.612-2.999,12.688c-0.156,2.693,1.939,3.136,2.076,5.537c2.438-0.022,2.362-2.56,4.383-2.999
		c1.575,3.384-2.023,8.133-5.998,8.305c-0.034,1.617-0.513,3.058-1.614,4.152c1.865,5.388-1.847,7.419-2.077,12.457
		c1.073,0.407,1.78,0.704,1.615,1.846c0.649,0.35,0.946-0.077,1.846,0.23c0.365,1.365-0.81,1.19-0.692,2.308
		c0.617,0.756,1.442,0.2,2.308,0.923c2.061-2.631,5.198-4.183,7.151-6.921c-0.122,0.186-0.241,0.374-0.231,0.691
		c-4.113,5.883-8.725,11.269-15.226,14.765c-0.668,0.665,0.449,0.722,0.231,1.615c-2.219,2.734-0.816,5.895-2.308,8.997
		c0.152,0.616,0.848,0.69,1.153,1.153c0,0.076,0,0.153,0,0.23c-0.835,1.241-1.908,2.244-2.537,3.691
		c-0.756,0.013-0.882,0.655-1.846,0.461c-0.58-0.648,0.208-1.326,0.23-2.076c-0.57-0.813-1.578-1.189-2.307-1.846
		c-6.734,1.118-13.483-3.562-20.532-1.614c-0.611-0.543-1.37-0.938-2.076-1.385c-0.931,1.062-1.176,1.8-0.923,3.691
		c-2.362,3.409-6.897,0.019-9.689-0.923c-0.224-0.007-0.179-0.282-0.23-0.462c2.005,0.989,4.447,0.922,5.998,0.231
		c1.808-3.44-1.679-6.292-1.154-10.612c3.649,1.089,8.438,3.791,11.766,1.846c1.709,1.045,4.495,0.927,6.69,1.615
		c0.651,0.204,1.133,0.891,1.846,0.923c1.495,0.066,2.988-1.27,4.845-1.385c0.208-0.013,2.094,0.381,1.845,0.462
		c0.899-0.294,1.507-1.881,2.538-1.846c0.008,0,1.347,0.385,2.307,0c1.278-0.513,1.953-1.849,3.461-2.076
		c-0.094-0.444-0.895-0.183-0.692-0.923c-0.001-0.77,0.75-0.788,0.692-1.615c-0.504-4.52-1.037-10.172,2.999-12.457
		c0.104-2.468,2.204-4.539,2.768-6.69c0.386-1.471-0.418-3.097-0.461-4.845c-0.098-3.955,4.183-8.697,0.23-11.304
		c1.132-1.349,0.008-2.409,0.23-3.922c0.506-3.429,4.634-6.323,2.769-9.919c-3.088-2.755-7.077-3.668-9.228-7.152
		c-1.149-1.861-2.346-4.334-5.075-4.844c0.021,2.61,3.55,3.666,5.075,5.536c0.229,1.463,1.202,2.182,1.384,3.691
		c-2.507-0.003-3.477-0.135-5.306-0.692c-0.896,0.182-0.654,1.499-1.153,2.076c-1.093-1.367-2.874-2.048-3.922-3.46
		c-0.179-1.409,1.229-1.232,1.153-2.538c-0.212-0.402-0.721-0.509-1.384-0.461c-1.102,0.178-1.485-0.361-2.538-0.23
		c-1.609,0.236-1.8,1.891-2.999,2.537c-4.257-0.126-6.213-2.553-9.458-3.691c-0.75,1.776-3.652,2.841-5.768,1.846
		c-0.375,1.136,0.833,2.502,1.154,3.691c-0.17,1.291-1.162,1.761-0.923,3.46c-2.555-0.783-3.448,1.053-5.075,1.846
		c-0.47-0.068-0.615-0.462-0.923-0.692c-3.224,1.852-6.881,3.271-9.92,5.307c-0.03,1.261,0.697,1.764,1.384,2.307
		c1.124,2.276,1.259,5.15,2.307,7.382c0.554,1.181,2.067,1.562,2.076,2.999c-1.487-1.357-3.35-2.34-4.845-3.69
		c-0.819,0.111-0.954,2.109-1.615,1.614c-1.1-0.84-1.226-2.474-2.999-2.076c-1.434-2.589-4.969-4.226-3.922-8.535
		c-0.111-0.889-1.349-0.651-1.615-1.385c0.502-1.083,1.912,0.004,2.538,0.231c0.363-2.604-1.812-4.513-3.922-4.845
		c0.118-3.807,0.045-6.358,0.692-10.15c0.336-1.973,0.559-4.406,0.461-6.229c-0.133-2.482-0.917-4.812-0.461-7.152
		c0.157-0.805,0.935-1.141,1.153-1.845c0.348-1.119-0.73-2.682,0.692-3.23c0.914,0.707,1.274,2.384,0.923,3.691
		c3.256,2.193,7.956-0.747,9.92-2.768c2.903,0.887,6.984,0.038,8.536-1.846c1.336,0.102,2.286,1.639,3.46,1.153
		c0.785-0.725-0.7-1.132-0.461-2.076c2.394,0.832,4.452,1.051,6.459,0.692c-0.162-3.568-2.676-4.909-5.536-6.229
		c-1.692-0.781-2.907-1.621-5.076-1.845c-2.168-0.225-5.364-0.483-6.69,0.922c0.698,1.378,2.287,1.866,3.922,2.307
		c-1.03,1.525-2.772,1.071-4.383,1.384c-3.074,0.598-4.56,2.399-8.305,2.538c-1.134-4.658,6.288-5.981,4.152-10.15
		c-1.026-0.253-1.682,0.558-2.307,0c0.117-2.345,1.891-3.031,2.769-4.614c4.191-1.191,7.222-3.544,9.92-6.229
		c5.113-0.504,10.997-3.965,17.302-1.615c0.91-0.089,1.254-0.745,1.846-1.153C103.204,72.958,104.523,73.407,105.934,73.765z
		 M89.786,98.911c-0.697,0.303-1.841,0.158-2.538,0.461c-0.062,1.32,1.312,0.987,0.692,2.307c-3.979,1.965-9.527,2.986-15.226,2.538
		c-1.149,1.542-3.527,1.855-5.767,2.307c-0.486,3.407,1.636,4.208,3.921,4.845c-0.26,2.396-0.033,3.926-0.461,6.229
		c1.716,0.629,1.978,2.818,1.615,4.383c2.088,1.319,3.858,4.545,7.382,2.999c2.652-3.346,3.256-8.74,7.844-10.15
		c0.86-2.204,1.856-4.764,3.922-5.998c0.325-0.194,0.843,0.022,1.153-0.23c2.589-2.106-0.293-4.961,0.461-7.844
		c-1.489-0.356-1.174-2.517-2.538-2.999c-0.154,0-0.308,0-0.461,0C89.786,98.142,89.786,98.526,89.786,98.911z"/>
	<path fill-rule="evenodd" clip-rule="evenodd" fill="#6C5B5D" d="M51.952,109.753c0.767-1.282-0.319-3.499,0.23-4.613
		c0.705-0.582,1.153,0.708,2.077,0c0.868,0.746,0.482,2.746,1.615,3.229c1.363,0.287,1.319-0.835,2.076-1.153
		c0.148,3.164-1.429,7.703,2.076,8.766c1.169-3.077,1.145-7.125,0.923-10.611c-0.833-0.547-1.004,1.207-2.307,0.923
		c-0.683-0.548-1.45-1.011-2.076-1.615c0.205-2.18,3.014-1.623,4.152-0.692c-0.164-6.786,1.906-11.678,4.153-16.609
		c1.627-2.372,4.2-3.797,5.075-6.921c1.955-0.484,2.754-2.481,4.844-3.229c3.28-1.175,7.017-0.72,8.305-3.922
		c4.35,0.516,8.443-1.523,12.918-1.615c2.054-0.042,4.091,0.926,5.999,0c1.373,0.626,2.511,1.488,3.921,2.076
		c-1.41-0.358-2.729-0.807-3.69-1.615c-0.592,0.408-0.936,1.064-1.846,1.153c-6.305-2.351-12.188,1.11-17.302,1.615
		c-2.698,2.685-5.729,5.038-9.92,6.229c-0.877,1.583-2.652,2.269-2.769,4.614c0.625,0.558,1.281-0.253,2.307,0
		c2.135,4.169-5.286,5.493-4.152,10.15c3.745-0.138,5.23-1.94,8.305-2.538c1.611-0.313,3.353,0.141,4.383-1.384
		c-1.635-0.441-3.224-0.929-3.922-2.307c1.326-1.405,4.521-1.147,6.69-0.922c2.168,0.225,3.383,1.064,5.076,1.845
		c2.86,1.32,5.374,2.661,5.536,6.229c-2.007,0.359-4.065,0.139-6.459-0.692c-0.239,0.944,1.246,1.351,0.461,2.076
		c-1.174,0.486-2.124-1.052-3.46-1.153c-1.551,1.884-5.632,2.732-8.536,1.846c-1.964,2.021-6.664,4.961-9.92,2.768
		c0.352-1.307-0.009-2.984-0.923-3.691c-1.422,0.548-0.344,2.111-0.692,3.23c-0.219,0.704-0.997,1.04-1.153,1.845
		c-0.455,2.341,0.328,4.67,0.461,7.152c0.098,1.822-0.125,4.256-0.461,6.229c-0.647,3.792-0.575,6.344-0.692,10.15
		c2.109,0.332,4.285,2.24,3.922,4.845c-0.626-0.228-2.035-1.314-2.538-0.231c0.266,0.733,1.504,0.496,1.615,1.385
		c-1.047,4.31,2.488,5.946,3.922,8.535c1.773-0.397,1.899,1.236,2.999,2.076c0.661,0.495,0.795-1.503,1.615-1.614
		c1.495,1.351,3.357,2.333,4.845,3.69c-0.009-1.438-1.522-1.818-2.076-2.999c-1.048-2.231-1.183-5.105-2.307-7.382
		c-0.687-0.543-1.415-1.046-1.384-2.307c3.039-2.036,6.696-3.455,9.92-5.307c0.308,0.23,0.453,0.624,0.923,0.692
		c1.627-0.793,2.52-2.629,5.075-1.846c-0.239-1.699,0.753-2.169,0.923-3.46c-0.321-1.189-1.529-2.556-1.154-3.691
		c2.115,0.995,5.017-0.069,5.768-1.846c3.245,1.139,5.201,3.565,9.458,3.691c1.199-0.646,1.39-2.301,2.999-2.537
		c-1.605,0.368-1.348,2.21-2.768,2.768c-2.662,1.046-6.672-1.532-8.767-2.537c-1.791,0.747-4.021,1.055-5.998,1.614
		c0.156,1.998,1.476,2.83,2.307,4.152c-1.303,1.466-2.7,2.837-3.921,4.384c-1.274,0.091,0.021-1.05-0.692-1.615
		c-1.091,0.216-1.139,1.477-2.076,1.846c-3.527-0.221-6.045,0.567-7.151,2.769c-1.776-0.161-2.21,1.019-2.999,1.846
		c0.471,3.758,1.717,6.741,3.229,9.458c2.083-1.269,2.788-3.095,5.537-3.46c2.633-0.351,6.039,1.991,7.844-0.462
		c0.65-0.35,1.442-0.558,2.538-0.461c-0.273,0.419-1.203,0.181-1.615,0.461c-0.461,0.462-0.406,1.439-0.923,1.846
		c-2.942,0.65-5.191-0.795-7.382-0.692c-3.747,0.176-4.115,3.126-5.537,5.768c1.354,1.953,2.223,4.39,3.922,5.998
		c-0.422,3.081,2.549,4.646,3.229,7.382c1.826,0.284,3.858-1.57,6.229-0.691c0.876-2.047,2.479-3.365,2.538-6.229
		c-1.612-0.743-3.017-1.959-4.845-1.845c-0.554-1.676-1.232-3.229-3.46-3.23c0.892-4.052,7.386-3.248,10.612-2.307
		c1.42-0.96,5.206-2.211,6.921-0.692c2.132-1.591,6.038-0.835,6.921,1.385c0.217,1.062-1.249,0.442-1.615,0.923
		c0.182,1.334-0.643,1.664-0.461,2.999c-2.914,1.519-5.049,2.323-8.997,2.076c-0.745,0.206-0.324-0.753-0.692-0.923
		c-1.201,1.541-0.646,3.45-1.846,4.845c-1.13,0.206-1.084-0.763-2.307-0.462c-0.47,0.068-0.452,0.624-0.923,0.692
		c0.131,0.759,1.133,1.467,0.461,2.307c0.47,0.607,1.871,0.282,2.538,0.692c0.688,0.715-0.749,0.606-0.692,1.384
		c0.068,0.471,0.624,0.452,0.692,0.923c0.41-0.75,1.353-0.3,2.307-0.692c2.173-0.893,3.05-2.088,5.537,0
		c0.516-0.099,0.094-1.137,0.23-1.614c1.617,0.424,1.878-1.665,4.152-0.692c0.537,0.31,0.356,1.335,0.692,1.846
		c1.576-0.357,2.649,0.2,4.152-0.23c0.311,0.459,0.439,1.098,0.692,1.614c1.639-0.129,1.931-1.606,3.69-1.614
		c2.452-2.086,4.195-4.88,3.691-9.92c0.718-0.129,1.152-0.54,1.384-1.153c-0.873-3.181-0.845-6.371,0.462-9.459
		c-2.573-1.462-3.893-4.756-8.074-3.922c3.311-1.512,5.229,1.662,7.612,2.538c1.831-0.245,1.094-3.059,2.538-3.691
		c-0.134-2.835,3.06-4.252,1.846-6.689c-1.203-2.414-5.867-4.17-7.844-6.229c-0.166,1.017,1.743,1.943,1.846,3.46
		c-1.078,0.515-3.467-0.977-4.614,0.23c-0.23,1.087,0.987,1.922,0.231,2.769c-1.199-0.416-0.705-2.524-1.846-2.999
		c-1.023-0.023-0.802,1.198-1.615,1.384c-2.349-0.88-3.163-3.296-5.306-4.383c-0.538-0.774,3.971-2.552,0.923-2.999
		c0-0.077,0-0.154,0-0.23c0.663-0.048,1.172,0.059,1.384,0.461c0.075,1.306-1.332,1.129-1.153,2.538
		c1.048,1.412,2.829,2.093,3.922,3.46c0.499-0.577,0.258-1.895,1.153-2.076c1.829,0.558,2.799,0.689,5.306,0.692
		c-0.182-1.51-1.154-2.229-1.384-3.691c-1.525-1.87-5.055-2.926-5.075-5.536c2.729,0.51,3.926,2.982,5.075,4.844
		c2.15,3.484,6.14,4.397,9.228,7.152c1.865,3.596-2.263,6.49-2.769,9.919c-0.223,1.513,0.901,2.573-0.23,3.922
		c3.952,2.606-0.328,7.349-0.23,11.304c0.043,1.748,0.847,3.374,0.461,4.845c-0.563,2.151-2.664,4.223-2.768,6.69
		c-4.036,2.285-3.503,7.938-2.999,12.457c0.058,0.827-0.693,0.846-0.692,1.615c-0.202,0.74,0.599,0.479,0.692,0.923
		c-1.508,0.228-2.183,1.563-3.461,2.076c-0.96,0.385-2.299,0-2.307,0c-1.031-0.035-1.639,1.552-2.538,1.846
		c0.249-0.081-1.637-0.475-1.845-0.462c-1.856,0.115-3.35,1.451-4.845,1.385c-0.713-0.032-1.194-0.719-1.846-0.923
		c-2.195-0.688-4.981-0.57-6.69-1.615c-3.328,1.945-8.117-0.757-11.766-1.846c-0.525,4.32,2.962,7.172,1.154,10.612
		c-1.551,0.69-3.993,0.758-5.998-0.231c-0.183-0.509-1.084-0.3-1.154-0.922c2.587-2.581,0.113-8.48-0.922-11.766
		c-1.805-5.722-4.095-10.88-5.998-15.918c-0.073-0.772-0.238-1.454-0.692-1.846c-1.652,0.578-0.988,3.472-2.307,4.384
		c-1.755,11.24-3.632,22.359-5.306,33.681c-0.615,0-1.23,0-1.845,0c0.065-3.503,1.503-6.76,1.153-9.92
		c-2.694,0.536-3.347,3.112-5.306,4.384c0.403-5.157,2.146-10.404,0.231-14.534c1.468-1.251,3.314-1.28,3.922-2.769
		c0.211-0.519-0.472-1.667-0.231-2.537c0.271-0.979,1.128-0.903,1.153-2.076c-0.498-0.362-1.271,0.973-2.076,0
		c1.889-1.187,3.729-2.423,3.922-5.306c-0.349-0.344-1.013-0.372-1.615-0.462c2.545-1.838,4.152-4.613,5.998-7.151
		c-2.59-1.38-5.234,1.03-6.921,2.076c-3.724,2.041-7.546,3.007-11.765,4.383c-2.812,0.918-5.242,3.178-8.305,4.384
		c-9.22,3.629-18.998,5.615-27.683,9.92c-3.529,1.161-8.119,1.262-10.842,3.229c0-0.154,0-0.308,0-0.462
		c2.174-2.084,5.546-1.702,8.766-2.537c3.323-0.861,7.164-2.882,11.073-4.384c6.289-2.414,12.9-4.05,19.147-6.229
		c1.679-0.585,2.729-2.26,4.152-2.999c2.927-1.518,6.593-2.122,9.689-3.46c4.348-1.88,7.792-4.2,12.457-5.306
		c1.36,0.2,1.533-1.996,2.076-1.846c-0.033,0.272-0.411,0.522,0,0.691c0.076-0.893,0.646-1.289,1.384-0.922
		c-1.635-4.053-4.536-8.19-6.69-12.228c-0.823-1.542-2.082-2.972-2.538-4.383c-0.466-1.443-0.078-2.944-0.461-4.383
		c-0.652-2.446-3.455-3.593-4.152-5.768c-0.218-0.678,0.11-1.454,0-2.076c-0.502-2.838-3.007-4.871-3.46-5.536
		c-0.799-1.173-0.767-2.999-1.153-3.922C52.384,114.083,53.773,111.322,51.952,109.753z M77.79,98.449
		c2.464,1.042,6.15-0.379,7.382-2.076c0.86,0.216,1.282,0.871,2.538,0.692c0.058-0.827-0.693-0.845-0.692-1.615
		c1.98-0.476,4.099,0.693,5.998,0c0.597-2.736-3.569-3.323-5.998-4.614c-1.922-1.021-4.865-2.066-8.074-1.154
		c0.001,1.999,2.61,1.389,3.46,2.538c-0.143,0.703-1.241,0.451-1.384,1.154c0.337,0.508,1.827-0.136,1.845,0.692
		c-2.532-0.381-4.992,1.151-6.459-0.23c-3.917,1.08-6.701,3.295-7.382,7.613c3.858,0.616,5.966-2.483,7.843-4.614
		c-0.089-0.12-1.121-0.341-0.461-0.461c1.216,0.015,1.225,1.236,2.307,1.384c0.032-0.43,0.152-0.771,0.461-0.922
		c1.052,0.54,1.879,0.76,2.768,0.461c0.039-1.347-1.436-1.179-2.768-1.154c0.395-0.878-0.684-1.44-0.231-1.615
		c1.154,0,2.307,0,3.46,0c1.235,1.124,0.021,2.713,0.231,3.229C81.399,98.474,78.77,98.826,77.79,98.449z M84.71,158.66
		c-3.675-3.861-3.435-11.638-9.228-13.381c-0.061,0.324-0.506,0.264-0.692,0.462c-0.235,1.103,0.149,3.108,0,4.845
		c1.159,0.454,1.914,3.84,0.231,4.383c-0.83-0.785-1.514-1.716-2.538-2.307c-0.036,1.681,0.821,4.385,1.384,6.229
		c3.626,2.525,4.955,7.349,7.844,10.611c0.698,0.282,1.236-0.192,2.076,0.23c0.198,0.802-0.006,0.876,0.461,1.615
		c2.951-1.071,4.389,0.728,6.229,1.153c1.036,0.354,1.911,1.556,3.23,0.923c0.498,0.348,0.842,0.85,1.153,1.385
		c2.845,0.317,5.192-0.281,7.843,0.23c3.125,1.269,6.218-1.846,9.228-1.385c1.266-2.194,4.056-2.865,5.307-5.075
		c0-0.23,0-0.461,0-0.691c2.935-1.295,3.681-4.777,5.536-7.151c-0.527-0.242-0.817-0.721-1.614-0.692
		c-0.352,0.571-0.058,1.788-0.462,2.307c-0.66-0.169-0.866-1.556-1.615-0.923c-0.768,0.386-0.186,2.121-1.153,2.308
		c-0.544-0.071-0.429-0.802-1.153-0.692c-0.331,0.36-0.581,0.803-1.153,0.923c-0.576-0.73-1.118-1.497-2.307-1.615
		c-0.816,0.185-0.652,1.347-1.385,1.615c-0.383-0.386-0.604-0.935-1.384-0.923c-0.422,0.665-0.374,0.722-0.23,1.614
		c0.908,0.426,1.198-0.925,1.614-0.23c-0.379,0.467-0.771,0.921-1.614,0.923c-0.874-0.433-1.469-1.146-2.076-1.846
		c-1.24-0.163-1.891,0.264-2.769,0.462c-0.787-0.905-2.299-1.085-3.46-1.615c-0.468,0.302-0.317,1.222-0.923,1.385
		c-2.604-0.271-5.665,0.676-8.075-0.692c-0.804,0.477-2.099,1.805-2.768,0.461c0.31-0.337,0.472-1.827-0.231-1.846
		c-0.328,0.595-0.54,1.306-1.384,1.385C86.924,161.982,85.864,160.274,84.71,158.66z"/>
	<path fill-rule="evenodd" clip-rule="evenodd" fill="#8C6C69" d="M62.103,158.198c1.687-1.046,4.331-3.456,6.921-2.076
		c-1.846,2.538-3.453,5.313-5.998,7.151c0.602,0.09,1.266,0.118,1.615,0.462c-0.193,2.883-2.033,4.119-3.922,5.306
		c0.805,0.973,1.578-0.362,2.076,0c-0.025,1.173-0.882,1.098-1.153,2.076c-0.241,0.87,0.442,2.019,0.231,2.537
		c-0.607,1.488-2.454,1.518-3.922,2.769c1.916,4.13,0.172,9.377-0.231,14.534c1.959-1.271,2.612-3.848,5.306-4.384
		c0.35,3.16-1.088,6.417-1.153,9.92c-8.305,0-16.61,0-24.915,0c2.088-1.219,5.977-0.637,7.613-2.307
		c0.019-1.231-0.007-2.774,0-4.384c-2.436,0.174-4.887-1.339-5.998-3.229c0.915-0.085,2.211,0.212,2.769-0.23
		c-0.41-2.495-2.659-4.334-1.846-6.69c1.318-0.241,1.351,0.803,2.307,0.923c3.551-1.985,5.148-5.925,8.536-8.074
		c2.825-2.48,4.75-5.861,7.843-8.074c0.074-0.541,0.365-0.865,0.231-1.614c1.169-0.676,2.661-1.03,3.229-2.308
		c0.842-0.204,1.229,0.408,1.615,0c0.847-1.844,2.517-2.866,3.922-4.152C65.142,155.703,63.85,157.79,62.103,158.198z
		 M42.955,183.805c0.503,0.728,1.215,1.246,1.615,2.076c1.123,0.031,2.591-0.284,2.538,0.923c-0.563,0.567-1-0.17-1.845,0
		c-0.247,0.862,0.573,0.658,0.461,1.385c0.724-0.261,0.609,0.066,1.153-0.23c0.235,0.303,0.226,0.85,0.461,1.153
		c0.928,0.158,1.317-0.222,2.076-0.231c-0.061-0.983-0.125-1.971,0.692-2.076c-1.422-0.588,0.526-1.976-0.692-2.999
		c0.438-0.707,2.059-1.935,0.923-2.768c0.585-0.598,1.046-0.806,2.076-0.462c0.405-1.091-0.304-1.052-0.231-2.307
		c0.345-0.348,1.315-0.069,1.154-0.923c-0.753-0.862-2.308-0.923-3.46-1.384C48.804,179.811,43.374,179.302,42.955,183.805z"/>
	<path fill-rule="evenodd" clip-rule="evenodd" fill="#A2989E" d="M146.536,119.673c-0.225,1.006-0.8,1.661-1.153,2.537
		c-0.359,0.334-0.899,0.485-1.385,0.692c-1.628,5.523-2.173,12.13-5.536,15.918c-0.368-2.886,0.073-6.662-0.462-9.459
		c-0.915-4.779-5.024-6.171-7.382-9.458c-2.287-1.404-5.323-2.059-6.69-4.383c-4.687-1.089-8.113-6.675-12.919-6.921
		c0.19,3,2.643,4.582,1.846,7.844c-2.292,2.303-3.187-0.717-5.306-1.385c-1.65-0.52-4.055-0.134-5.536-0.691
		c-0.838-0.315-3.761-1.863-3.922-2.076c-0.402-0.535,0.038-1.447-0.461-1.615c0.274-0.649,0.988-0.857,1.384-1.384
		c0.177-0.87-0.281-1.104-0.23-1.846c2.181-2.926-0.448-7.375,0.461-10.15c-2.15-2.172-1.274-6.815,1.384-8.305
		c1.284,0.043,1.685,1.607,1.153,2.769c0.263,0.737,1.407,0.592,1.846,1.153c0.167,2.783,0.064,6.126,1.615,8.074
		c1.171-0.136,1.539-1.076,2.537-1.384c4.079,2.685,13.12,2.932,17.764,0.692c-0.605-1.009-2.438-0.791-3.229-1.615
		c0.117-0.651,0.558-0.979,0.691-1.615c4.061-1.111,5.103,2.305,9.228,1.846c-0.17-0.586-0.152-1.666,0.923-2.076
		c-0.846,0-1.691,0-2.537,0c-1.384-2.691-2.649-5.502-4.845-7.382c0.402-0.905,0.63-1.984,1.615-2.307
		c0.939,0.757,1.903-0.709,3.46,0.231c0.591-2.071-1.103-2.976-2.307-3.922c2.165-1.192,2.731,2.868,5.998,2.076
		c3.251,2.132,4.55,6.216,5.306,10.843c1.104-0.05,0.384-1.923,1.384-2.076c2.717,0.098-0.733,4.947,2.769,4.152
		c-0.309-1.054,0.133-2.361,1.153-3.23c2.028,1.741,1.271,6.265,3.691,7.613c-0.017,0.982-0.386,1.613-0.23,2.769
		c-0.432-1.493-1.528-4.315-3.229-5.306c-1.985,0.805-2.426-1.239-4.614-0.922c-1.876,3.662,2.257,5.951,2.537,8.997
		c0.116,1.256-1.104,2.208,0,3.46c2.723-0.508,3.817-2.643,4.845-4.845c1.213,3.628-0.722,8.021-1.384,11.305
		c0.367-3.401,1.585-5.952,1.384-9.92c-1.589,0.717-1.41,3.203-3.69,3.229c-0.646,0.123-0.427,1.111-0.692,1.615
		c-2.469-1.132-0.486-3.684-0.923-5.768c-0.212-1.012-1.427-1.377-2.076-2.538c-1.017-1.816-0.916-4.595-1.615-7.151
		c-0.23-0.844-0.965-1.366-1.384-2.307c-1.068-2.399-0.27-4.194-2.538-5.306c-0.868,0.054-0.977,0.869-1.845,0.923
		c-0.35,2.438,0.257,3.859,1.384,5.306c-0.343,0.982-1.139,1.831,0,2.538c-1.082,0.84-2.167,1.678-3.922,1.845
		c-1.598-1.264-3.726-3.173-5.998-2.999c-0.196,2.119,2.98,0.864,3.461,2.307c-0.085,1.069-1.602,0.706-2.308,1.154
		c0.486,0.513,1.364,0.635,1.615,1.384c-0.142,1.089-0.876,1.585-0.923,2.769c-2.246,1.374-4.603,2.727-7.844,1.384
		c-1.265-4.083-10.172-6.211-11.304-1.153c-3.114-0.5-3.348-3.881-4.614-6.229c-0.822,0.229-0.222,2.308-1.614,2.537
		c0.857,2.481,0.243,6.823-0.692,9.459c0.821,0.88,1.383,1.95,3.229,2.537c1.375,0.438,3.376-0.021,4.384,0.462
		c1.226,0.586,2.237,4.067,4.383,1.614c0.675-3.841-2.822-4.694-1.846-8.074c4.417-0.241,6.194,4.093,10.612,4.614
		c0.315,0.606,0.971,0.874,1.153,1.614c6.659,0.031,8.233,5.146,12.227,7.844c0.542-0.073,0.866-0.364,1.615-0.23
		c2.16,2.376,3.142,5.933,3.921,9.689c3.139-1.092,1.769-6.691,3.461-9.229C145.259,122.438,145.794,120.832,146.536,119.673z"/>
	<path fill-rule="evenodd" clip-rule="evenodd" fill="#6B8FB7" d="M139.846,141.127c-0.374-1.146,3.017,2.034,2.076,1.385
		c-0.653-0.039-0.961-0.423-1.615-0.462c-0.037,0.269,0.052,0.41,0.231,0.462c2.251,7.938-0.601,14.255-2.769,21.915
		c-3.079,10.878-7.029,18.174-11.996,26.53c2.04,1.958,5.263,2.734,6.459,5.536c-0.153,0-0.307,0-0.461,0
		c-2.251-3.439-6.431-4.95-11.534-5.536c8.226-9.23,14.559-20.354,18.686-33.682c-0.436,0.025-0.16,0.763-0.692,0.692
		C140.729,154.005,139.809,145.01,139.846,141.127z"/>
	<path fill-rule="evenodd" clip-rule="evenodd" fill="#8C6C69" d="M120.929,84.377c0.396,0.373,0.573,0.965,0.462,1.846
		c0.383,0.386,1.354,0.184,2.076,0.23c-0.213,1.71-1.935,1.911-2.769,2.999c1.72,1.566,4.233,1.185,5.998,2.538
		c1.891,1.448,2.737,3.853,3.46,5.767c-2.312-0.002-4.718-1.762-7.843-1.615c-1.922,0.091-3.794,0.888-5.537,0.692
		c1.021,0.287,2.078,0.536,3.229,0.692c0.125,0.817-0.816,0.567-0.691,1.384c0.581,0.803,1.969,0.799,2.768,1.384
		c-3.378,1.647-9.089,0.155-11.765-1.153c-0.03-0.569-0.035-1.111,0.23-1.384c-1.705-1.313-4.83-0.041-5.768-2.307
		c0.328-2.925-1.734-5.191-0.691-7.382C109.634,88.316,115.452,84.882,120.929,84.377z M123.467,91.528
		c-2.692-0.628-6.909,0.275-7.844-1.615c0.619-0.606,2.973-1.319,2.769-2.076c-0.291-1.079-3.277-0.757-4.845-0.231
		c-2.118,0.711-4.396,3.609-5.998,3.23c-0.639,1.084-1.948,2.36-1.384,3.921c1.646,0.815,3.183-0.308,4.613-0.461
		c0.06,0.905-0.834,0.857-0.691,1.845c2.442,0.366,2.424-1.728,3.921-2.307c0.812,0.265,0.89,1.264,1.385,1.845
		c1.902-0.057,3.285,0.406,5.306,0.231c0.845-0.309,0.812-1.495,1.846-1.615c1.185,1.524,4.516,2.073,6.229,2.307
		C127.827,93.934,126.364,92.205,123.467,91.528z"/>
	<path fill-rule="evenodd" clip-rule="evenodd" fill="#6C463D" d="M82.634,97.757c-0.21-0.516,1.004-2.106-0.231-3.229
		c-1.153,0-2.307,0-3.46,0c-0.453,0.175,0.626,0.736,0.231,1.615c1.332-0.025,2.807-0.193,2.768,1.154
		c-0.889,0.298-1.716,0.079-2.768-0.461c-0.31,0.151-0.43,0.493-0.461,0.922c-1.083-0.147-1.091-1.369-2.307-1.384
		c-0.659,0.12,0.373,0.341,0.461,0.461c-1.877,2.131-3.985,5.23-7.843,4.614c0.681-4.317,3.464-6.533,7.382-7.613
		c1.467,1.381,3.927-0.151,6.459,0.23c-0.018-0.828-1.508-0.184-1.845-0.692c0.143-0.703,1.241-0.451,1.384-1.154
		c-0.85-1.149-3.459-0.539-3.46-2.538c3.209-0.912,6.152,0.132,8.074,1.154c2.429,1.291,6.595,1.878,5.998,4.614
		c-1.899,0.693-4.018-0.476-5.998,0c0,0.77,0.75,0.788,0.692,1.615c-1.256,0.179-1.678-0.476-2.538-0.692
		c-1.232,1.697-4.918,3.119-7.382,2.076C78.77,98.826,81.399,98.474,82.634,97.757z"/>
	<path fill-rule="evenodd" clip-rule="evenodd" fill="#6C463D" d="M128.772,96.604c-1.713-0.233-5.044-0.782-6.229-2.307
		c-1.033,0.12-1.001,1.306-1.846,1.615c-2.021,0.175-3.403-0.288-5.306-0.231c-0.495-0.581-0.573-1.58-1.385-1.845
		c-1.497,0.579-1.479,2.673-3.921,2.307c-0.143-0.988,0.751-0.94,0.691-1.845c-1.431,0.153-2.968,1.276-4.613,0.461
		c-0.564-1.561,0.745-2.837,1.384-3.921c1.603,0.379,3.88-2.519,5.998-3.23c1.567-0.526,4.554-0.848,4.845,0.231
		c0.204,0.757-2.149,1.47-2.769,2.076c0.935,1.89,5.151,0.987,7.844,1.615C126.364,92.205,127.827,93.934,128.772,96.604z"/>
	<path fill-rule="evenodd" clip-rule="evenodd" fill="#8C6C69" d="M94.861,138.59c1.081-0.381,2.548-0.375,3.46-0.923
		c0.021-1.028-0.722-1.431-0.231-2.308c3.786-0.108,8.167-2.632,11.765-0.922c0.702-0.221,0.929-0.918,2.076-0.692
		c0.387,0.383,0.184,1.354,0.231,2.076c1.767,0.152,2.762-0.468,4.383-0.462c4.182-0.834,5.501,2.46,8.074,3.922
		c-1.307,3.088-1.335,6.278-0.462,9.459c-0.231,0.613-0.666,1.024-1.384,1.153c0.504,5.04-1.239,7.834-3.691,9.92
		c-1.76,0.008-2.052,1.485-3.69,1.614c-0.253-0.517-0.382-1.155-0.692-1.614c-1.503,0.431-2.576-0.127-4.152,0.23
		c-0.336-0.511-0.155-1.536-0.692-1.846c-2.274-0.973-2.535,1.116-4.152,0.692c-0.137,0.478,0.285,1.516-0.23,1.614
		c-2.486-2.088-3.363-0.893-5.537,0c-0.955,0.393-1.897-0.058-2.307,0.692c-0.068-0.471-0.624-0.452-0.692-0.923
		c-0.057-0.777,1.38-0.669,0.692-1.384c-0.667-0.41-2.068-0.085-2.538-0.692c0.671-0.84-0.33-1.548-0.461-2.307
		c0.471-0.068,0.453-0.624,0.923-0.692c1.223-0.301,1.177,0.668,2.307,0.462c1.2-1.395,0.645-3.304,1.846-4.845
		c0.368,0.17-0.053,1.129,0.692,0.923c3.948,0.247,6.083-0.558,8.997-2.076c-0.182-1.335,0.643-1.665,0.461-2.999
		c0.366-0.48,1.832,0.14,1.615-0.923c-0.883-2.22-4.789-2.976-6.921-1.385c-1.715-1.519-5.501-0.268-6.921,0.692
		c-3.226-0.941-9.72-1.745-10.612,2.307c2.229,0.002,2.906,1.555,3.46,3.23c1.828-0.114,3.232,1.102,4.845,1.845
		c-0.058,2.864-1.662,4.183-2.538,6.229c-2.371-0.879-4.403,0.976-6.229,0.691c-0.681-2.735-3.651-4.301-3.229-7.382
		c-1.699-1.608-2.568-4.045-3.922-5.998c1.421-2.642,1.79-5.592,5.537-5.768c2.191-0.103,4.44,1.343,7.382,0.692
		c0.517-0.406,0.462-1.384,0.923-1.846C93.658,138.771,94.588,139.009,94.861,138.59z M119.775,157.737
		c3.319-1.25,1.938-6.671,2.769-9.92c-1.045-2.175,0.659-4.623,0.692-7.151c-2.688-1.542-2.729-4.294-6.229-4.614
		c-3.96-0.362-9.406,2.034-14.303,2.538c-2.279,0.234-4.188-0.048-5.998,0.923c-0.272,1.958-2.145,2.315-2.999,3.69
		c4.783,1.372,15.822-2.51,19.839,1.385c0.405,2.644-0.704,2.38-2.307,3.69c-1.152,0.942-1.841,2.628-3.23,3.229
		c-1.225,0.531-2.135,1.495-3.69,1.154c-0.32,0.372-0.195,1.188-0.692,1.384c-0.91,0.205-1.254-1.343-1.846-0.692
		c1.556,1.239-0.228,2.301-0.922,3.229c-0.102,0.871,0.455,1.083,0.692,1.615c1.811,0.042,2.62-0.917,3.691-1.615
		c3.096,0.058,4.831,1.475,7.382,2.077c0.444-0.095,0.183-0.895,0.923-0.692C115.128,158.43,119.646,161.372,119.775,157.737z"/>
	<path fill-rule="evenodd" clip-rule="evenodd" fill="#6C463D" d="M107.779,118.289c1.053-0.131,1.437,0.408,2.538,0.23
		c0,0.076,0,0.153,0,0.23c3.048,0.447-1.461,2.225-0.923,2.999c2.143,1.087,2.957,3.503,5.306,4.383
		c0.813-0.186,0.592-1.407,1.615-1.384c1.141,0.475,0.646,2.583,1.846,2.999c0.756-0.847-0.462-1.682-0.231-2.769
		c1.147-1.207,3.536,0.284,4.614-0.23c-0.103-1.517-2.012-2.443-1.846-3.46c1.977,2.059,6.641,3.814,7.844,6.229
		c1.214,2.438-1.979,3.854-1.846,6.689c-1.444,0.633-0.707,3.446-2.538,3.691c-2.383-0.876-4.302-4.05-7.612-2.538
		c-1.621-0.006-2.616,0.614-4.383,0.462c-0.048-0.722,0.155-1.693-0.231-2.076c-1.147-0.226-1.374,0.472-2.076,0.692
		c-3.598-1.71-7.979,0.813-11.765,0.922c-0.491,0.877,0.251,1.279,0.231,2.308c-0.913,0.548-2.38,0.542-3.46,0.923
		c-1.096-0.097-1.887,0.111-2.538,0.461c-1.805,2.453-5.211,0.111-7.844,0.462c-2.749,0.365-3.454,2.191-5.537,3.46
		c-1.513-2.717-2.759-5.7-3.229-9.458c0.789-0.827,1.223-2.007,2.999-1.846c1.106-2.201,3.624-2.989,7.151-2.769
		c0.938-0.369,0.985-1.63,2.076-1.846c0.713,0.565-0.582,1.706,0.692,1.615c1.221-1.547,2.618-2.918,3.921-4.384
		c-0.831-1.322-2.151-2.154-2.307-4.152c1.978-0.56,4.208-0.867,5.998-1.614c2.094,1.005,6.104,3.583,8.767,2.537
		C106.432,120.499,106.174,118.657,107.779,118.289z M109.164,122.672c-0.656,0.923-1.175,0.549-2.076,1.153
		c-1.176-2.444-4.386-1.711-7.613-1.615c-1.107-2.445-6.002-3.671-7.613-0.691c0.16,1.224,1.66,1.108,1.846,2.307
		c-0.801,1.531,0.593,3.488-1.384,4.383c-1.18,0.129-1.521-0.836-2.538-0.23c0.184,1.885,0.065,4.468,1.615,5.768
		c-0.174,0.825-0.534,1.466-1.384,1.614c-0.56-0.439-1.512-0.486-1.615-1.384c-0.06-0.675,0.521-0.709,0.461-1.384
		c-0.976-0.562-0.733-1.31-0.923-2.308c-0.726,0.111-0.902-0.328-1.384-0.461c-0.873,1.126-0.851,3.147-2.538,3.46
		c-0.285-1.592,1.195-1.42,1.154-2.768c-1.637-1.904-3.091,0.758-4.614,0.23c-1.058,1.326-1.773,2.994-3.691,3.46
		c0.11,3.12,0.742,5.718,2.307,7.383c2.433-4.996,10.532-2.953,15.687-4.384c0.343-1.195,1.379-1.697,2.076-2.537
		c-0.583-0.903-2.268-0.316-2.999,0c-0.984-0.477-1.753-1.169-1.846-2.538c0.596-0.878,1.627,0.103,2.538-0.461
		c0.001-0.77-0.75-0.788-0.692-1.615c1.022-0.816,1.295-2.694,0.923-3.69c1.885,0.716,0.64,2.535,0.461,4.152
		c0.965-0.266,1.562-0.898,1.384-2.308c0.903,0.135,1.339-0.198,1.845-0.461c-0.077-0.769-0.668-1.023-0.461-2.076
		c0.341-0.12,0.582-0.342,0.923-0.462c0.093,1.291,1.007,1.762,1.153,2.999c0.964-0.573,1.049-2.026,2.538-2.076
		c0.241-3.271,3.345-0.458,4.152,0.462c0.949-0.559,1.066,0.625,2.538,0.691c0.97-0.16-0.221-1.05,0.692-1.153
		c0.669,0.254,1.56,0.286,1.614,1.153c-0.152,0.694-1.329,0.363-1.384,1.154c-0.052,0.436,0.26,0.509,0.23,0.922
		c1.11,0.178,2.386-0.24,3.229,0c0.581-1.062-1.285-1.412-1.384-2.537c0.06-0.324,0.506-0.263,0.692-0.461
		C112.136,124.775,110.825,123.548,109.164,122.672z M119.083,126.824c-0.191,1.269,0.578,1.575,0.462,2.769
		c-0.705,0.166-0.841-0.236-1.384-0.231c-0.048,0.723,0.155,1.694-0.231,2.077c-2.028,0.201-3.646,0.813-5.075,1.614
		c-0.073,0.92-0.013,1.704,0.462,2.076c2.433-0.412,4.924-0.767,6.689-1.846c0.43-1.285-0.823-2.084-0.23-2.768
		c1.777,2.207,0.615,5.32,4.383,5.998c1.66-1.34,1.681-4.318,2.538-6.46c-0.894-0.124-0.95,0.588-1.615,0.692
		C123.404,129.541,121.511,124.278,119.083,126.824z"/>
	<path fill-rule="evenodd" clip-rule="evenodd" fill="#9D8181" d="M147.228,118.289c0.444,3.119-2.615,4.619-3.46,6.92
		c-0.559,1.522-0.306,4.344-0.692,5.768c-0.782,2.884-3.16,6.505-2.999,8.074c0.231,2.253,2.255,2.556,3.691,4.152
		c1.96,2.179,2.354,5.178,4.152,7.383c2.387,2.926,6.013,4.466,9.689,5.767c2.157,4.099,6.8,4.662,11.073,6.69
		c1.428,0.678,2.766,1.616,4.152,2.307c1.569,0.782,3.252,1.164,4.844,1.846c6.459,2.766,12.1,7.258,18.687,9.228
		c0,0.154,0,0.308,0,0.462c-6.012-1.728-11.462-5.207-17.071-8.074c-2.885-1.475-5.907-2.318-8.767-3.922
		c-2.854-1.602-5.887-2.396-8.766-3.691c-2.073-0.932-3.109-2.933-4.845-4.152c-3.239-2.277-7.318-3.074-9.689-6.229
		c-2.069-2.753-2.325-5.874-5.306-8.305c0.94,0.649-2.45-2.531-2.076-1.385c-0.544-0.071-0.429-0.801-1.153-0.692
		c-1.512,7.221-6.814,13.735-5.768,21.686c1.859,0.62,3.877-1.541,4.845-3.229c-0.303,1.157-0.952,1.97-1.384,2.999
		c-1.953,2.738-5.091,4.29-7.151,6.921c-0.865-0.723-1.69-0.167-2.308-0.923c-0.117-1.117,1.058-0.942,0.692-2.308
		c-0.899-0.308-1.196,0.119-1.846-0.23c0.165-1.142-0.542-1.438-1.615-1.846c0.23-5.038,3.942-7.069,2.077-12.457
		c1.102-1.095,1.58-2.535,1.614-4.152c3.975-0.172,7.573-4.921,5.998-8.305c-2.021,0.439-1.944,2.977-4.383,2.999
		c-0.137-2.401-2.232-2.844-2.076-5.537c2.188-3.075,5.578-8.315,2.999-12.688c-1.332-0.184-1.146-0.492-2.538-0.462
		c-3.122-1.986-5.359-5.014-8.074-7.382c-0.596-0.52-1.501-0.679-2.076-1.153c-1.966-1.624-3.21-4.201-5.768-5.075
		c0.285,2.755,2.638,5.504,1.154,8.535c-2.274,0.398-3.654-0.186-5.537-0.692c-1.249,0.29-1.341,1.735-2.537,2.076
		c-1.014-1.454-2.808-0.776-4.153-1.384c-1.583-0.715-2.352-3.041-4.383-2.999c-2.772-4.021,0.698-7.718,1.153-11.534
		c0.562-4.705-2.302-7.961-2.538-12.919c-1.521-0.355-2.969-1.521-3.46-2.999c-2.683,1.18-6.249,0.7-9.689,0.23
		c-1.96-0.267-4.442-0.883-4.844-2.307c1.006-1.567,2.076-2.216,4.152-1.846c0.84-1.312,0.604-3.702,2.307-4.152
		c3.28,0.058,5.864-1.828,8.766,0c1.02-0.107,1.727-1.316,2.999-1.384c3.005-0.16,4.491,2.14,5.998,2.538
		c1.136-0.471,0.629-1.463,0.692-2.076c0.851-0.226,1.143-1.01,1.845-1.384c5.97,0.06,13.123-0.53,19.379,1.154
		c1.371,2.137,3.464,1.531,5.767,1.845c6.89,0.941,9.32,6.059,11.535,12.688c1.914,0.315,3.317,1.142,5.075,1.615
		c1.164,1.911,1.066,5.084,2.307,6.921c0.572,0.299,1.119-0.515,1.153,0C149.516,107.058,148.604,113.502,147.228,118.289z
		 M146.767,118.289c0.662-3.283,2.597-7.677,1.384-11.305c-1.027,2.202-2.122,4.337-4.845,4.845c-1.104-1.252,0.116-2.204,0-3.46
		c-0.28-3.046-4.413-5.335-2.537-8.997c2.188-0.316,2.629,1.728,4.614,0.922c1.701,0.991,2.798,3.813,3.229,5.306
		c-0.155-1.155,0.214-1.786,0.23-2.769c-2.421-1.348-1.663-5.872-3.691-7.613c-1.021,0.869-1.462,2.176-1.153,3.23
		c-3.502,0.795-0.052-4.054-2.769-4.152c-1,0.153-0.28,2.026-1.384,2.076c-0.756-4.627-2.055-8.711-5.306-10.843
		c-3.267,0.792-3.833-3.269-5.998-2.076c1.204,0.946,2.897,1.851,2.307,3.922c-1.557-0.94-2.521,0.526-3.46-0.231
		c-0.985,0.323-1.213,1.402-1.615,2.307c2.195,1.88,3.461,4.691,4.845,7.382c0.846,0,1.691,0,2.537,0
		c-1.075,0.411-1.093,1.49-0.923,2.076c-4.125,0.459-5.167-2.957-9.228-1.846c-0.134,0.635-0.574,0.964-0.691,1.615
		c0.791,0.824,2.624,0.606,3.229,1.615c-4.644,2.24-13.685,1.993-17.764-0.692c-0.998,0.309-1.366,1.248-2.537,1.384
		c-1.551-1.948-1.448-5.291-1.615-8.074c-0.438-0.561-1.583-0.416-1.846-1.153c0.531-1.162,0.131-2.725-1.153-2.769
		c-2.658,1.49-3.534,6.133-1.384,8.305c-0.909,2.775,1.719,7.225-0.461,10.15c-0.051,0.742,0.408,0.976,0.23,1.846
		c-0.396,0.526-1.11,0.734-1.384,1.384c0.5,0.168,0.059,1.08,0.461,1.615c0.161,0.213,3.084,1.761,3.922,2.076
		c1.481,0.558,3.886,0.172,5.536,0.691c2.119,0.668,3.014,3.688,5.306,1.385c0.797-3.262-1.655-4.844-1.846-7.844
		c4.806,0.246,8.232,5.832,12.919,6.921c1.367,2.324,4.403,2.979,6.69,4.383c2.357,3.287,6.467,4.679,7.382,9.458
		c0.535,2.797,0.094,6.573,0.462,9.459c3.363-3.788,3.908-10.395,5.536-15.918c0.485-0.207,1.025-0.358,1.385-0.692
		c0.354-0.876,0.929-1.531,1.153-2.537C146.802,119.4,146.797,118.857,146.767,118.289z M104.089,88.068
		c-1.043,2.191,1.02,4.458,0.691,7.382c0.938,2.266,4.062,0.994,5.768,2.307c-0.266,0.273-0.261,0.815-0.23,1.384
		c2.676,1.308,8.387,2.8,11.765,1.153c-0.799-0.585-2.187-0.581-2.768-1.384c-0.125-0.817,0.816-0.567,0.691-1.384
		c-1.151-0.156-2.209-0.405-3.229-0.692c1.743,0.195,3.615-0.602,5.537-0.692c3.125-0.147,5.53,1.613,7.843,1.615
		c-0.723-1.915-1.569-4.319-3.46-5.767c-1.765-1.353-4.278-0.972-5.998-2.538c0.834-1.088,2.556-1.289,2.769-2.999
		c-0.722-0.047-1.693,0.156-2.076-0.23c0.111-0.881-0.065-1.473-0.462-1.846C115.452,84.882,109.634,88.316,104.089,88.068z"/>
	<path fill-rule="evenodd" clip-rule="evenodd" fill="#A2989E" d="M139.846,141.127c-0.037,3.883,0.884,12.878-1.615,16.841
		c-0.119,0.341-0.341,0.581-0.461,0.923c-0.968,1.688-2.985,3.85-4.845,3.229c-1.047-7.95,4.256-14.465,5.768-21.686
		C139.417,140.326,139.302,141.056,139.846,141.127z"/>
	<path fill-rule="evenodd" clip-rule="evenodd" fill="#A2989E" d="M140.538,142.512c-0.18-0.052-0.269-0.193-0.231-0.462
		c0.654,0.039,0.962,0.423,1.615,0.462c2.98,2.431,3.236,5.552,5.306,8.305c2.371,3.154,6.45,3.951,9.689,6.229
		c1.735,1.22,2.771,3.221,4.845,4.152c2.879,1.295,5.911,2.09,8.766,3.691c2.859,1.604,5.882,2.447,8.767,3.922
		c5.609,2.867,11.06,6.347,17.071,8.074c0,0.153,0,0.308,0,0.461c-12.013-4.828-22.452-11.229-34.604-15.918
		c-2.715-1.053-4.024-3.511-6.46-4.845c-4.785-1.827-8.211-5.015-10.611-9.228c-0.113,0.729,0.415,0.815,0.23,1.615
		c0.327,5.38,1.774,11.436,0.923,16.841c0.079,0.997,1.123,1.029,0.923,2.307c-0.978,0.205-1.173-0.145-1.846,0.461
		c0.417,4.012,0.153,7.777,2.307,10.843c0.819-0.1,1.624,0.306,1.846,1.384c0.77-0.246,0.015-0.699,0.462-1.384
		c1.178,0.36,0.359,2.716,1.845,2.769c0.703,0.01,0.897-0.487,1.385-0.692c0.24-2.485-1.184-2.49-1.385-4.845
		c1.686,0.392,2.306,1.848,3.691,2.538c-0.273,0.957-1.073,1.387-1.614,2.076c1.837,1.664,4.231,0.671,6.459,0.23
		c-2.443-0.83,0.485-2.878-1.153-4.152c-0.039-0.5,0.818-0.104,1.153-0.23c0-0.692,0-1.385,0-2.076c0.385,0,0.769,0,1.153,0
		c0.084-1.236-0.778-1.968-0.23-2.999c0.956-0.265,0.898,0.485,1.614,0.461c1.839-2.959-2.335-1.224-2.768-2.769
		c0.775-0.652,1.918,0.335,2.307-0.461c-0.644-2.125-1.106-4.431-2.076-6.229c2.263,0.597,2.63,5.049,5.306,5.998
		c-0.266,0.272-0.261,0.815-0.23,1.384c3.184,6.044,6.044,12.412,11.304,16.379c-0.837-2.967-3.633-4.813-5.306-7.382
		c-2.415-3.708-4.028-7.961-5.998-11.534c1.56-0.402,2.91,1.393,3.46,2.768c0.747-0.022,0.493-1.045,1.615-0.691
		c0.65,0.35,0.654,1.345,1.153,1.846c3.325,0.212,3.49,3.584,5.537,5.075c0.752,0.061,0.666-0.718,1.153-0.923
		c3.121,1.723,4.511,5.178,6.229,8.305c0.746-0.207,0.724-2.05,1.614-1.384c0.031,0.568,0.035,1.111-0.23,1.384
		c1.161,1.596,3.035,1.221,4.614,2.537c0.207,0.676,0.207,0.709,0,1.385c1,0.845,2.36,1.33,2.999,2.537
		c1.341-0.006,2.005-0.709,3.229-0.23c0,1.999,0,3.999,0,5.998c-7.459,0-14.918,0-22.377,0c2.293-1.628,6.444-1.398,8.535-3.229
		c-0.563-0.433-1.522-0.644-2.307-1.385c-1.08,0.074-1.855,1.422-2.999,0.692c0.031-1.43,2.125-0.797,2.769-1.614
		c0.152-2.306-1.512-2.796-2.076-4.384c-0.646,1.354-3.025,0.974-3.691,2.307c-2.165-1.756-2.324-5.519-5.306-6.459
		c-0.111-0.727,0.708-0.522,0.461-1.384c-1.21-1.374-2.042,0.62-2.999,0.923c0.333,0.624,1.13,0.286,1.846,0.923
		c-0.295,2.914,0.311,5.233,1.846,6.92c-1.062,0.694-0.465,1.817-0.23,2.999c-2.23,3.211-5.642,0.396-6.229-2.537
		c-1.659,0.537-2.442,0.674-4.614,0.461c0.443,1.325,1.825,1.712,2.537,2.769c-0.093,1.119-1.603,2.021-0.461,2.999
		c-6.536,0-13.072,0-19.608,0c0.129-1.179,1.51-1.104,1.845-2.076c0.081-1.157-1.021-1.132-1.153-2.076
		c0.958-4.836,0.67-10.802,2.538-14.765c-2.863-8.397,2.079-18.497-0.462-28.605c-0.655-1.574-0.553-3.907-2.307-4.383
		C141.269,144.088,141.459,142.743,140.538,142.512z"/>
	<path fill-rule="evenodd" clip-rule="evenodd" fill="#5B708D" d="M137.539,196.493c0.79-8.748,1.593-17.333,3.229-26.068
		c1.268-6.77,2.832-13.965,2.307-20.07c-0.168-1.95-0.844-3.797-1.153-5.767c1.754,0.476,1.651,2.809,2.307,4.383
		c0.48,16.251-2.944,31.069-3.922,47.522C139.385,196.493,138.462,196.493,137.539,196.493z"/>
	<path fill-rule="evenodd" clip-rule="evenodd" fill="#6C463D" d="M84.71,158.66c-0.931-1.453-2.176-2.593-3.46-3.691
		c-0.882-3.326-1.904-5.99-5.075-7.151c0.085,1.56,0.523,4.684,1.153,6.459c0.013,1.771,0.478,3.269-0.23,5.075
		c0.826,1.25,1.72,2.433,1.845,4.384c1.114,2.038,3.422,2.884,4.614,4.844c2.59,1.024,4.708,2.521,6.92,3.922
		c-1.839-0.426-3.277-2.225-6.229-1.153c-0.468-0.739-0.264-0.813-0.461-1.615c-0.84-0.423-1.378,0.052-2.076-0.23
		c-2.889-3.263-4.218-8.086-7.844-10.611c-0.562-1.844-1.419-4.548-1.384-6.229c1.024,0.591,1.708,1.521,2.538,2.307
		c1.683-0.543,0.928-3.929-0.231-4.383c0.149-1.736-0.235-3.742,0-4.845c0.186-0.198,0.632-0.138,0.692-0.462
		C81.276,147.022,81.036,154.799,84.71,158.66z"/>
	<path fill-rule="evenodd" clip-rule="evenodd" fill="#9D8181" d="M140.307,196.493c0.978-16.453,4.402-31.271,3.922-47.522
		c2.541,10.108-2.401,20.208,0.462,28.605c-1.868,3.963-1.58,9.929-2.538,14.765c0.133,0.944,1.234,0.919,1.153,2.076
		c-0.335,0.972-1.716,0.897-1.845,2.076C141.076,196.493,140.691,196.493,140.307,196.493z"/>
	<path fill-rule="evenodd" clip-rule="evenodd" fill="#C0AAB1" d="M155.302,156.583c2.436,1.334,3.745,3.792,6.46,4.845
		c-0.775,0.292-1.221-0.903-1.615-0.23c0.937,1.294,1.727,2.733,2.769,3.922c1.444-0.015,4.17,0.147,5.075,1.384
		c-0.003,0.647-0.63-0.549-0.462,0.462c0.563,0.629,0.9,1.385,1.615,0.691c1.147,1.391,2.762,2.314,4.614,2.999
		c0.069,1.393,0.978,1.945,2.537,1.846c2.002,2.509,4.476,4.804,7.613,5.537c-0.107,0.738-0.879,0.813-0.923,1.614
		c1.711,1.211,3.497,2.348,5.306,3.461c0.243,1.893,3.456,2.03,4.383,3.922c1.732-0.564,2.405,0.655,3.691,1.153
		c0,0.769,0,1.538,0,2.307c-1.225-0.479-1.889,0.225-3.229,0.23c-0.639-1.207-1.999-1.692-2.999-2.537
		c0.207-0.676,0.207-0.709,0-1.385c-1.579-1.316-3.453-0.941-4.614-2.537c0.266-0.272,0.262-0.815,0.23-1.384
		c-0.891-0.666-0.868,1.177-1.614,1.384c-1.718-3.127-3.107-6.582-6.229-8.305c-0.487,0.205-0.401,0.983-1.153,0.923
		c-2.047-1.491-2.212-4.863-5.537-5.075c-0.499-0.501-0.503-1.496-1.153-1.846c-1.122-0.354-0.868,0.669-1.615,0.691
		c-0.55-1.375-1.9-3.17-3.46-2.768c1.97,3.573,3.583,7.826,5.998,11.534c1.673,2.568,4.469,4.415,5.306,7.382
		c-5.26-3.967-8.12-10.335-11.304-16.379c-0.03-0.568-0.035-1.111,0.23-1.384c-2.676-0.949-3.043-5.401-5.306-5.998
		c0.97,1.798,1.433,4.104,2.076,6.229c-0.389,0.796-1.531-0.191-2.307,0.461c0.433,1.545,4.606-0.19,2.768,2.769
		c-0.716,0.024-0.658-0.726-1.614-0.461c-0.548,1.031,0.314,1.763,0.23,2.999c-0.385,0-0.769,0-1.153,0c0,0.691,0,1.384,0,2.076
		c-0.335,0.126-1.192-0.27-1.153,0.23c1.639,1.274-1.29,3.322,1.153,4.152c-2.228,0.44-4.622,1.434-6.459-0.23
		c0.541-0.689,1.341-1.119,1.614-2.076c-1.386-0.69-2.006-2.146-3.691-2.538c0.201,2.354,1.625,2.359,1.385,4.845
		c-0.487,0.205-0.682,0.702-1.385,0.692c-1.485-0.053-0.667-2.408-1.845-2.769c-0.447,0.685,0.308,1.138-0.462,1.384
		c-0.222-1.078-1.026-1.483-1.846-1.384c-2.153-3.065-1.89-6.831-2.307-10.843c0.673-0.605,0.868-0.256,1.846-0.461
		c0.2-1.277-0.844-1.31-0.923-2.307c0.852-5.405-0.596-11.461-0.923-16.841c1.46,6.338,2.016,13.248,2.999,18.455
		c2.265,0.184,4.351,2.031,6.921,1.385c0.417-0.847,0.396-0.932,0.23-2.076c2.487-0.552,2.476,0.219,4.845-0.231
		C158.741,162.833,158.451,158.278,155.302,156.583z"/>
	<path fill-rule="evenodd" clip-rule="evenodd" fill="#4B3029" d="M102.704,175.039c3.248,0.018,5.551-0.909,7.383-2.308
		c1.947,0.333,2.63-0.6,3.229-1.614c-3.718,3.107-9.959,3.17-15.457,2.999c-0.415-0.508-0.618-1.228-1.153-1.615
		c-0.817-0.125-0.567,0.817-1.384,0.692c-0.432-0.952-1.916-0.853-2.999-1.153c-0.965-1.456-1.59-3.542-0.692-5.306
		c0.818,0.104,1.067,0.778,1.845,0.922c0.963-0.575,1.546-1.529,2.307-2.307c0.308,0,0.615,0,0.923,0
		c0.386,1.055,0.181,1.775-0.231,2.769c1.489,0.027,1.543-1.379,2.769-1.615c0.308,0.16-0.114,0.615,0.23,1.153
		c1.481,0.021,1.741-1.181,1.615-2.768c0.271-0.345,0.958-0.272,0.923-0.923c2.434,0.275,6.717,1.003,8.074,3.69
		c0.606-1.125,2.861-2.402,4.152-1.384c0.333,0.714-0.038,0.896-0.462,1.384c0.329,0.79,1.252,0.109,1.615,0.462
		c0.168,1.091-0.329,1.517-0.692,2.076c0.702-0.682,1.746-1.022,2.538-1.615c-1.251,2.21-4.041,2.881-5.307,5.075
		C108.922,173.193,105.829,176.308,102.704,175.039z M104.78,172.963c3.11,1.649,4.783-1.721,6.229-3.23
		c0.231,0.49,0.932,1.118,1.385,0.692c0.903-0.486,0.804-2.663,0.692-3.46c-0.743,0.051-0.977-0.408-1.846-0.23
		c-0.28,0.411-0.042,1.342-0.462,1.614c-1.491,0.22-1.756-0.846-2.999-1.384c-0.631,0.215-0.983,0.708-1.614,0.923
		c-0.225-0.853-1.447-0.706-2.308-0.923c-1.638,2.426-5.001,1.003-6.92,1.846c-0.767-0.527-2.185-1.419-3.46-0.692
		c0.192,1.399,0.291,2.349-0.23,3.46c0.272,0.112,0.523,0.246,0.692,0.462c1.035,0.189,1.03-0.662,1.615-0.923
		C97.252,174.014,101.621,174.074,104.78,172.963z"/>
	<path fill-rule="evenodd" clip-rule="evenodd" fill="#A2989E" d="M14.349,176.885c5.374-1.875,9.95-3.601,15.688-5.537
		c4.201-1.418,10.518-2.355,14.303-4.613c1.805-1.077,3.795-3.183,6.69-3.922c2.572-0.657,5.127-1.086,7.613-2.076
		c-3.627,1.803-9.604,5.771-15.226,7.382c-0.504,0.034-0.495,0.581-0.461,1.153c-2.427,0.11-4.154,0.921-4.844,2.769
		c-1.501,0.729-3.035,1.425-3.691,2.999c-2.031,0.122-2.864,1.442-4.152,2.307c-0.94,0.172-0.794-0.743-1.846-0.461
		c-1.122,0.306-0.198,1.386-0.922,1.845c-2.1-0.013-3.806,0.771-3.46,2.538c-2.035,0.041-3.849,0.303-4.845,1.384
		c0.111,0.908,2.045,0.898,1.384,1.846c-1.427,0.207-2.343,0.142-3.46,0.23c-0.38,0.358-0.099,1.077,0.23,1.385
		c-1.419-0.18-2.173,1.655-3.921,1.846c-0.32-0.373-0.195-1.189-0.692-1.385c-3.205,0.448-2.252,3.706-5.075,4.614
		c0.483-1.184-0.097-2.025,0.231-3.229c-1.407,0.909-2.387,0.378-2.999,0.922c-0.656-0.28-0.361-1.347-1.384-0.691
		c0-2.691,0-5.383,0-8.074C6.23,178.146,10.82,178.046,14.349,176.885z"/>
	<path fill-rule="evenodd" clip-rule="evenodd" fill="#5B708D" d="M131.771,196.493c-5.998,0-11.996,0-17.994,0
		c0.688-1.695,2.882-1.886,3.691-3.46c0.629-1.447,1.702-2.45,2.537-3.691c7.149-7,12.522-17.007,16.148-26.761
		c-0.01-0.317,0.109-0.506,0.231-0.691c0.432-1.029,1.081-1.842,1.384-2.999c0.12-0.342,0.342-0.582,0.461-0.923
		c0.532,0.07,0.257-0.667,0.692-0.692c-4.127,13.328-10.46,24.451-18.686,33.682C125.341,191.543,129.521,193.054,131.771,196.493z"
		/>
	<path fill-rule="evenodd" clip-rule="evenodd" fill="#6C5B5D" d="M136.154,162.581c-3.626,9.754-8.999,19.761-16.148,26.761
		c0-0.077,0-0.154,0-0.23c-0.306-0.463-1.001-0.537-1.153-1.153c1.491-3.103,0.089-6.263,2.308-8.997
		c0.218-0.894-0.899-0.95-0.231-1.615C127.43,173.85,132.041,168.464,136.154,162.581z"/>
	<path fill-rule="evenodd" clip-rule="evenodd" fill="#5B708D" d="M80.327,189.342c0.999,2.923,3.271,4.573,4.614,7.151
		c-1.307,0-2.614,0-3.921,0c-3.026-2.435-4.901-6.019-6.921-9.458c-0.703-0.065-0.897,0.738-1.384,0.23
		c-2.105-3.816-2.091-9.752-3.691-14.072c-1.785,6.213-3.392,13.833-3.922,20.531c1.667-1.825,4.346-3.763,8.074-2.768
		c0.482,2.055,1.347,3.729,2.076,5.536c-3.845,0-7.689,0-11.535,0c1.674-11.321,3.551-22.44,5.306-33.681
		c1.318-0.912,0.655-3.806,2.307-4.384c0.455,0.392,0.619,1.073,0.692,1.846c-0.527,0.151-0.596,0.537-0.692,0.923
		c-0.956,3.842,0.721,11.056,0.923,14.995c2.14,1.986,1.715,5.143,2.999,7.844c2.523,0.015,2.307,2.769,3.691,3.922
		c0.069,0.622,0.971,0.413,1.154,0.922C80.148,189.06,80.103,189.335,80.327,189.342z"/>
	<path fill-rule="evenodd" clip-rule="evenodd" fill="#9D8181" d="M14.349,176.885c8.686-4.305,18.463-6.291,27.683-9.92
		c3.063-1.206,5.493-3.466,8.305-4.384c4.219-1.376,8.041-2.342,11.765-4.383c1.748-0.408,3.039-2.495,5.075-1.846
		c-1.405,1.286-3.075,2.309-3.922,4.152c-0.386,0.408-0.773-0.204-1.615,0c-0.568,1.277-2.06,1.632-3.229,2.308
		c0.134,0.749-0.157,1.073-0.231,1.614c-3.093,2.213-5.019,5.594-7.843,8.074c-3.387,2.149-4.985,6.089-8.536,8.074
		c-0.957-0.12-0.989-1.164-2.307-0.923c-0.813,2.356,1.436,4.195,1.846,6.69c-0.558,0.442-1.854,0.146-2.769,0.23
		c1.111,1.891,3.562,3.403,5.998,3.229c-0.007,1.609,0.019,3.152,0,4.384c-1.636,1.67-5.525,1.088-7.613,2.307
		c-11.15,0-22.3,0-33.45,0c0-2.769,0-5.536,0-8.305c1.023-0.655,0.729,0.411,1.384,0.691c0.612-0.544,1.592-0.013,2.999-0.922
		c-0.328,1.204,0.252,2.046-0.231,3.229c2.823-0.908,1.871-4.166,5.075-4.614c0.497,0.195,0.373,1.012,0.692,1.385
		c1.749-0.19,2.502-2.025,3.921-1.846c-0.329-0.308-0.61-1.026-0.23-1.385c1.118-0.089,2.034-0.023,3.46-0.23
		c0.661-0.947-1.273-0.938-1.384-1.846c0.996-1.081,2.81-1.343,4.845-1.384c-0.345-1.768,1.361-2.551,3.46-2.538
		c0.725-0.459-0.199-1.539,0.922-1.845c1.051-0.282,0.905,0.633,1.846,0.461c1.289-0.864,2.121-2.185,4.152-2.307
		c0.656-1.574,2.19-2.271,3.691-2.999c0.69-1.848,2.417-2.658,4.844-2.769c-0.034-0.572-0.043-1.119,0.461-1.153
		c5.621-1.611,11.599-5.579,15.226-7.382c-2.486,0.99-5.041,1.419-7.613,2.076c-2.895,0.739-4.885,2.845-6.69,3.922
		c-3.785,2.258-10.102,3.195-14.303,4.613C24.299,173.284,19.723,175.01,14.349,176.885z"/>
	<path fill-rule="evenodd" clip-rule="evenodd" fill="#39434F" d="M117.238,168.579c-0.792,0.593-1.836,0.934-2.538,1.615
		c0.363-0.56,0.86-0.985,0.692-2.076c-0.363-0.353-1.286,0.328-1.615-0.462c0.424-0.487,0.795-0.67,0.462-1.384
		c-1.291-1.019-3.546,0.259-4.152,1.384c-1.357-2.688-5.641-3.415-8.074-3.69c0.035,0.65-0.652,0.578-0.923,0.923
		c0.126,1.587-0.134,2.788-1.615,2.768c-0.345-0.538,0.078-0.993-0.23-1.153c-1.226,0.236-1.28,1.643-2.769,1.615
		c0.412-0.993,0.617-1.714,0.231-2.769c-0.308,0-0.615,0-0.923,0c-0.761,0.777-1.344,1.731-2.307,2.307
		c-0.778-0.144-1.027-0.818-1.845-0.922c-0.898,1.764-0.273,3.85,0.692,5.306c1.083,0.301,2.567,0.201,2.999,1.153
		c0.817,0.125,0.567-0.817,1.384-0.692c0.535,0.388,0.738,1.107,1.153,1.615c5.498,0.171,11.739,0.108,15.457-2.999
		c-0.6,1.015-1.282,1.947-3.229,1.614c-1.832,1.398-4.135,2.325-7.383,2.308c-2.651-0.512-4.999,0.087-7.843-0.23
		c-0.311-0.535-0.656-1.037-1.153-1.385c-1.319,0.633-2.194-0.569-3.23-0.923c-2.212-1.401-4.331-2.897-6.92-3.922
		c-1.192-1.96-3.5-2.806-4.614-4.844c-0.125-1.951-1.019-3.134-1.845-4.384c0.708-1.807,0.244-3.305,0.23-5.075
		c0.799,1.009,1.026,3.159,0.692,4.614c0.862,1.367,1.861,2.598,3.229,3.46c0.525,0.553-0.506,0.85-0.23,1.846
		c0.312,0.872,1.586-0.246,2.307,0.461c0.247,0.862-0.573,0.658-0.461,1.385c2.897-0.218,3.539,4.399,7.844,4.152
		c-0.415-1.08-0.195-4.702-2.769-4.383c0.252-2.251-0.902-3.098-2.768-3.23c0.454-3.492-3.063-4.696-3.922-7.612
		c1.285,1.099,2.529,2.238,3.46,3.691c1.153,1.614,2.213,3.322,3.922,4.383c0.844-0.079,1.056-0.79,1.384-1.385
		c0.703,0.019,0.541,1.509,0.231,1.846c0.669,1.344,1.964,0.016,2.768-0.461c2.41,1.368,5.471,0.421,8.075,0.692
		c0.605-0.163,0.455-1.083,0.923-1.385c1.161,0.53,2.673,0.71,3.46,1.615c0.878-0.198,1.528-0.625,2.769-0.462
		c0.607,0.7,1.202,1.413,2.076,1.846c0.843-0.002,1.235-0.456,1.614-0.923c-0.416-0.694-0.706,0.656-1.614,0.23
		c-0.144-0.893-0.191-0.949,0.23-1.614c0.78-0.012,1.001,0.537,1.384,0.923c0.732-0.269,0.568-1.431,1.385-1.615
		c1.188,0.118,1.73,0.885,2.307,1.615c0.572-0.12,0.822-0.562,1.153-0.923c0.725-0.109,0.609,0.621,1.153,0.692
		c0.968-0.187,0.386-1.922,1.153-2.308c0.749-0.633,0.955,0.754,1.615,0.923c0.404-0.519,0.11-1.735,0.462-2.307
		c0.797-0.028,1.087,0.45,1.614,0.692c-1.855,2.374-2.602,5.856-5.536,7.151C117.238,168.118,117.238,168.349,117.238,168.579z"/>
	<path fill-rule="evenodd" clip-rule="evenodd" fill="#9D8181" d="M113.777,196.493c-9.612,0-19.224,0-28.836,0
		c-1.343-2.578-3.615-4.229-4.614-7.151c2.792,0.941,7.327,4.332,9.689,0.923c-0.253-1.892-0.008-2.629,0.923-3.691
		c0.707,0.447,1.465,0.842,2.076,1.385c7.049-1.948,13.797,2.732,20.532,1.614c0.729,0.656,1.736,1.032,2.307,1.846
		c-0.022,0.75-0.811,1.428-0.23,2.076c0.964,0.194,1.09-0.448,1.846-0.461C116.659,194.607,114.466,194.798,113.777,196.493z"/>
	<path fill-rule="evenodd" clip-rule="evenodd" fill="#1B191B" d="M80.558,50.465c5.381-1.026,12.448-2.062,18.917-1.846
		c-0.263,0.506-0.595,0.943-0.461,1.846c2.136,0.699,1.854-2.071,3.691-0.923c-0.004,1.149-1.685,0.622-1.614,1.846
		c1.198,3.127,3.675-2.207,4.844,0.23c-1.242,0.585-4.27,2.792-5.306,0.692c-1.574,0.433-3.511,1.61-5.306,0.461
		c-4.272,1.048-10.601,1.221-14.995,1.384c-0.846-1.292,0.358-1.802-0.23-3.229c-1.495,0.427-2.317,1.527-3.922,1.845
		c-0.524,0.246,0.663,0.7,0.461,1.384C70.475,55.3,64.889,57.02,57.95,57.386c0.987-1.089,1.778-2.374,3.229-2.999
		c3.663-6.334,11.002-8.992,18.686-11.304C81.131,45.553,80.545,47.763,80.558,50.465z"/>
	<path fill-rule="evenodd" clip-rule="evenodd" fill="#C0AAB1" d="M146.767,118.289c0.03,0.568,0.035,1.111-0.23,1.384
		c-0.742,1.159-1.277,2.766-2.769,2.537c-1.692,2.537-0.322,8.137-3.461,9.229c-0.779-3.757-1.761-7.313-3.921-9.689
		c-0.749-0.134-1.073,0.157-1.615,0.23c-3.993-2.697-5.567-7.812-12.227-7.844c-0.183-0.74-0.838-1.008-1.153-1.614
		c-4.418-0.521-6.195-4.855-10.612-4.614c-0.977,3.38,2.521,4.233,1.846,8.074c-2.146,2.453-3.157-1.028-4.383-1.614
		c-1.008-0.482-3.009-0.024-4.384-0.462c-1.847-0.587-2.408-1.657-3.229-2.537c0.936-2.636,1.55-6.978,0.692-9.459
		c1.393-0.229,0.792-2.308,1.614-2.537c1.267,2.348,1.5,5.729,4.614,6.229c1.132-5.058,10.039-2.93,11.304,1.153
		c3.241,1.343,5.598-0.01,7.844-1.384c0.047-1.184,0.781-1.68,0.923-2.769c-0.251-0.749-1.129-0.871-1.615-1.384
		c0.706-0.448,2.223-0.085,2.308-1.154c-0.48-1.443-3.657-0.188-3.461-2.307c2.272-0.174,4.4,1.735,5.998,2.999
		c1.755-0.167,2.84-1.005,3.922-1.845c-1.139-0.707-0.343-1.555,0-2.538c-1.127-1.447-1.733-2.868-1.384-5.306
		c0.868-0.054,0.977-0.869,1.845-0.923c2.269,1.112,1.47,2.907,2.538,5.306c0.419,0.941,1.153,1.463,1.384,2.307
		c0.699,2.556,0.599,5.335,1.615,7.151c0.649,1.161,1.864,1.526,2.076,2.538c0.437,2.084-1.546,4.636,0.923,5.768
		c0.266-0.504,0.046-1.492,0.692-1.615c2.28-0.026,2.102-2.513,3.69-3.229C148.352,112.337,147.134,114.888,146.767,118.289z"/>
	<path fill-rule="evenodd" clip-rule="evenodd" fill="#90C2E9" d="M141.922,144.588c0.31,1.97,0.985,3.816,1.153,5.767
		c0.525,6.105-1.039,13.301-2.307,20.07c-1.637,8.735-2.439,17.32-3.229,26.068c-1.769,0-3.537,0-5.307,0
		c-1.196-2.802-4.419-3.578-6.459-5.536c4.967-8.356,8.917-15.652,11.996-26.53c2.168-7.66,5.02-13.977,2.769-21.915
		C141.459,142.743,141.269,144.088,141.922,144.588z"/>
	<path fill-rule="evenodd" clip-rule="evenodd" fill="#9D8181" d="M173.988,196.493c-4.307,0-8.612,0-12.919,0
		c-1.142-0.979,0.368-1.88,0.461-2.999c-0.712-1.057-2.094-1.443-2.537-2.769c2.172,0.213,2.955,0.076,4.614-0.461
		c0.587,2.934,3.998,5.748,6.229,2.537c-0.234-1.182-0.832-2.305,0.23-2.999c-1.535-1.687-2.141-4.006-1.846-6.92
		c-0.716-0.637-1.513-0.299-1.846-0.923c0.957-0.303,1.789-2.297,2.999-0.923c0.247,0.861-0.572,0.657-0.461,1.384
		c2.981,0.94,3.141,4.703,5.306,6.459c0.666-1.333,3.046-0.952,3.691-2.307c0.564,1.588,2.229,2.078,2.076,4.384
		c-0.644,0.817-2.737,0.185-2.769,1.614c1.144,0.729,1.919-0.618,2.999-0.692c0.784,0.741,1.743,0.952,2.307,1.385
		C180.433,195.095,176.281,194.865,173.988,196.493z"/>
	<path fill-rule="evenodd" clip-rule="evenodd" fill="#A2989E" d="M116.546,137.205c-0.173,0.75-0.418,1.428-0.692,2.076
		c0.915,0.27,1.752-0.237,2.769,0.231c0.49,1.534,0.938,2.27,2.307,3.229c0.065,1.911-1.688,2.003-2.076,3.46
		c0.171,1.015,1.481-0.305,2.076,0.462c0.57,1.815-0.481,4.291,0.462,5.998c-0.778,1.298-2.358,1.794-1.846,4.383
		c-2.768,2.813-5.508-0.821-9.458-0.23c-0.998-0.002-0.912-1.088-1.615-1.385c-1.174-0.014-2.312,0.619-2.769-0.461
		c-0.028-0.938,1.45-2.087,1.846-1.153c1.846-1.308,2.705-3.601,5.306-4.152c2.218-2.211,4.32-5.892,2.538-8.997
		c-1.812,2.066-6.312,1.124-9.228,1.153c0.606-0.47,0.742-1.41,0.923-2.307C110.479,139.085,112.589,136.318,116.546,137.205z"/>
	<path fill-rule="evenodd" clip-rule="evenodd" fill="#9D8181" d="M49.876,175.962c1.153,0.461,2.708,0.521,3.46,1.384
		c0.162,0.854-0.809,0.575-1.154,0.923c-0.073,1.255,0.636,1.216,0.231,2.307c-1.03-0.344-1.491-0.136-2.076,0.462
		c1.136,0.833-0.485,2.061-0.923,2.768c1.218,1.023-0.73,2.411,0.692,2.999c-0.817,0.105-0.753,1.093-0.692,2.076
		c-0.759,0.01-1.148,0.39-2.076,0.231c-0.235-0.304-0.226-0.851-0.461-1.153c-0.544,0.297-0.429-0.03-1.153,0.23
		c0.111-0.727-0.708-0.522-0.461-1.385c0.845-0.17,1.282,0.567,1.845,0c0.054-1.207-1.415-0.892-2.538-0.923
		c-0.4-0.83-1.111-1.349-1.615-2.076C43.374,179.302,48.804,179.811,49.876,175.962z"/>
	<path fill-rule="evenodd" clip-rule="evenodd" fill="#A2989E" d="M85.864,106.754c-0.383,2.21,1.427,3.525,1.153,5.075
		c-0.204,1.153-3.562,3.675-5.537,4.383c-1.596,0.573-3.535,0.165-4.614,0.692c0.842-0.773,1.627-1.603,1.846-2.999
		c-0.533-0.738-1.029,0.491-1.846,0.23c-0.041-2.726,3.495-0.763,4.614-2.537C81.714,108.756,83.688,107.654,85.864,106.754z"/>
	<path fill-rule="evenodd" clip-rule="evenodd" fill="#9D8181" d="M113.547,157.968c-0.74-0.202-0.479,0.598-0.923,0.692
		c-2.551-0.603-4.286-2.02-7.382-2.077c-1.071,0.698-1.881,1.657-3.691,1.615c-0.237-0.532-0.794-0.744-0.692-1.615
		c0.695-0.929,2.478-1.99,0.922-3.229c0.592-0.65,0.936,0.897,1.846,0.692c0.497-0.195,0.372-1.012,0.692-1.384
		c1.556,0.341,2.466-0.623,3.69-1.154c1.39-0.602,2.078-2.287,3.23-3.229c1.603-1.311,2.712-1.047,2.307-3.69
		c-4.018-3.895-15.056-0.013-19.839-1.385c0.854-1.375,2.727-1.732,2.999-3.69c1.81-0.971,3.719-0.688,5.998-0.923
		c4.896-0.504,10.343-2.9,14.303-2.538c3.501,0.32,3.542,3.072,6.229,4.614c-0.033,2.528-1.737,4.977-0.692,7.151
		c-0.83,3.249,0.551,8.67-2.769,9.92C119.646,161.372,115.128,158.43,113.547,157.968z M107.088,139.513
		c-0.181,0.896-0.316,1.837-0.923,2.307c2.915-0.029,7.416,0.913,9.228-1.153c1.782,3.105-0.32,6.786-2.538,8.997
		c-2.601,0.552-3.46,2.845-5.306,4.152c-0.396-0.934-1.874,0.216-1.846,1.153c0.456,1.08,1.595,0.447,2.769,0.461
		c0.703,0.297,0.617,1.383,1.615,1.385c3.95-0.591,6.69,3.044,9.458,0.23c-0.513-2.589,1.067-3.085,1.846-4.383
		c-0.943-1.707,0.108-4.183-0.462-5.998c-0.595-0.767-1.905,0.553-2.076-0.462c0.389-1.457,2.142-1.549,2.076-3.46
		c-1.368-0.96-1.816-1.695-2.307-3.229c-1.017-0.469-1.854,0.038-2.769-0.231c0.274-0.648,0.52-1.326,0.692-2.076
		C112.589,136.318,110.479,139.085,107.088,139.513z"/>
	<path fill-rule="evenodd" clip-rule="evenodd" fill="#6B8FB7" d="M102.935,39.392c-6.541-0.751-15.364,1.431-19.839,0
		c0.443-0.633,1.751-0.402,2.076-1.153c-1.031-0.548-1.9,0.177-3.23,0c0.503-1.083,1.709-0.556,1.154-2.307
		c-0.744-0.375-1.25-0.11-2.076,0c0.042-0.65,1.096-0.288,0.922-1.153c-0.409-0.588-1.617,0.688-2.076,0
		c0.479-0.521,1.076-0.923,2.076-0.923c0.2-0.488-0.253-1.804,1.154-1.615c-0.49-1.228-0.146-1.835-0.231-3.23
		c0.408-0.428,0.673,0.101,1.153,0.231c-0.285-1.337,0.68-1.678,0.231-2.538c0.954-0.199,1.759-0.548,2.076-1.384
		c-1.268-0.188,1.083-1.706-0.461-2.769c0.831-0.85,1.271-1.427,1.153-2.768c0.952-0.048,2.024,0.024,2.077-0.923
		c-0.406-0.133-1.355,0.279-1.384-0.23c0.991-0.327,0.894-0.831,0.461-1.615c0.364-0.767,1.059,0.23,1.153-0.692
		c-0.263-0.609-1.557,1.025-1.846-0.23c1.457-0.471,0.808-1.911,1.384-3.46c-1.68,0.014-0.687-1.247-1.153-1.846
		c1.785,0.016,2.996-0.542,4.614-0.692c-0.154,0.448,0.275,1.025,0.23,1.615c0.461,0,0.923,0,1.384,0
		c-0.049-0.564-0.938-0.843,0-1.153c0.394,1.112,2.052,0.817,2.769,2.076c-1.579-0.348-1.514,0.947-2.307,1.384
		c1.139,0.015,1.918,0.388,2.538,0.922c-1.494,0.539-2.813-0.18-4.614,0c-0.361,1.208,1.544,0.147,1.384,1.154
		c-0.785-0.016-1.61-0.072-1.846,0.461c0.734,0.797,2.017-0.224,2.999,0.461c-0.488,0.906-1.935,0.108-2.538,0.461
		c-0.103,0.872,1.205,0.333,1.384,0.923c-0.877,0.993,0.666,1.042,0.922,1.615c-0.345,0.271-0.943,0.287-1.153,0.692
		c0.877,0.123,1.653,0.347,2.307,0.692c-0.382,0.464-1.517,0.175-1.615,0.923c0.591,0.178,1.308,0.23,1.615,0.692
		c-1.058,0.481-3.138-0.062-3.922,0.692c0.737,0.57,2.444,0.17,2.999,0.923c-0.571,0.428-1.761,0.238-2.307,0.692
		c2.688,0.388,5.424,0.728,7.844,1.384c-1.968,0.085-5.813-0.659-8.074,0.23c0.788,1.019,3.254-0.511,4.152,0.692
		c-0.294,1.167-3.167-0.245-3.46,0.922c0.907,0.4,2.562,0.053,3.23,0.692c-0.639,0.361-1.652,0.348-2.307,0.692
		c1.171,1.046,4.15-0.372,4.614,0.923c-1.136,0.885-3.178-0.456-4.152,0.692c0.715,0.131,1.754-0.062,1.846,0.692
		c-0.893-0.124-1.126,0.412-2.076,0.23c0.477,1.396,2.109-0.187,2.768,0.923c-0.591,0.367-1.582-0.166-2.307,0.461
		c1.077,0.23,2.374,0.241,2.999,0.923c-0.663-0.048-1.172,0.058-1.384,0.461c0.428,0.417,1.653,0.039,1.845,0.692
		c-0.062,0.476-1.021,0.055-0.922,0.692c0.378,0.545,1.586,0.26,2.076,0.692c-0.94,0.137-2.048,0.105-2.538,0.692
		C99.202,38.203,100.948,38.368,102.935,39.392z"/>
	<path fill-rule="evenodd" clip-rule="evenodd" fill="#6C463D" d="M51.952,109.753c0.367-5.602-3.569-12.623,1.153-15.456
		c2.491,1.47,2.23,5.135,6.921,3.921c1.136-3.635-0.04-7.505,0.23-10.842c0.288-3.555,2.728-6.241,3.46-8.997
		c1.088-0.142,1.585-0.875,2.769-0.923c2.028-3.508,6.644-4.429,10.381-6.229c3.132,0.626,5.482-2.538,9.228-2.538
		c4.115,0,8.298,0.585,12.688,0c4.174-0.557,10.162,0.345,13.38,0c1.897,1.102,4.685,1.313,6.689,2.307
		c2.036-0.606,3.31,1.009,5.537,0.923c2.588,2.179,6.127,2.135,8.766,3.691c4.09,2.412,6.096,6.926,8.767,10.612
		c-0.141,1.204-0.156,3.9,1.153,4.383c1.411,0.059,0.457-1.354,0.923-1.845c0.82,1.071,1.792,0.329,3.229,0.23
		c3.037,1.438,2.614,7.256,2.999,10.612c-1.027-2.894-0.219-7.625-2.307-9.458c-3.24-0.625-2.511,2.719-5.998,1.846
		c-0.793-1.36-1.386-2.92-1.384-5.075c-4.153-11.642-20.436-12.28-34.604-13.149c-1.41-0.588-2.548-1.45-3.921-2.076
		c-1.908,0.926-3.944-0.042-5.999,0c-4.476,0.092-8.569,2.13-12.918,1.615c-1.288,3.202-5.025,2.747-8.305,3.922
		c-2.09,0.749-2.89,2.746-4.844,3.229c-0.875,3.124-3.448,4.549-5.075,6.921c-2.247,4.932-4.317,9.823-4.153,16.609
		c-1.139-0.931-3.948-1.487-4.152,0.692c0.626,0.604,1.394,1.067,2.076,1.615c1.303,0.284,1.474-1.47,2.307-0.923
		c0.222,3.486,0.246,7.534-0.923,10.611c-3.505-1.062-1.928-5.602-2.076-8.766c-0.757,0.318-0.713,1.44-2.076,1.153
		c-1.132-0.483-0.747-2.483-1.615-3.229c-0.924,0.708-1.372-0.582-2.077,0C51.633,106.254,52.719,108.471,51.952,109.753z"/>
	<path fill-rule="evenodd" clip-rule="evenodd" fill="#4B3029" d="M125.081,130.746c0.665-0.104,0.722-0.816,1.615-0.692
		c-0.857,2.142-0.878,5.12-2.538,6.46c-3.768-0.678-2.605-3.791-4.383-5.998c-0.593,0.684,0.66,1.482,0.23,2.768
		c-1.766,1.079-4.257,1.434-6.689,1.846c-0.475-0.372-0.535-1.156-0.462-2.076c1.43-0.801,3.047-1.413,5.075-1.614
		c0.387-0.383,0.184-1.354,0.231-2.077c0.543-0.005,0.679,0.397,1.384,0.231c0.116-1.193-0.653-1.5-0.462-2.769
		C121.511,124.278,123.404,129.541,125.081,130.746z"/>
	<path fill-rule="evenodd" clip-rule="evenodd" fill="#4B3029" d="M113.086,126.363c-0.187,0.198-0.633,0.137-0.692,0.461
		c0.099,1.125,1.965,1.476,1.384,2.537c-0.844-0.24-2.119,0.178-3.229,0c0.029-0.413-0.282-0.486-0.23-0.922
		c0.055-0.791,1.231-0.46,1.384-1.154c-0.055-0.867-0.945-0.899-1.614-1.153c-0.913,0.104,0.277,0.993-0.692,1.153
		c-1.472-0.066-1.589-1.25-2.538-0.691c-0.808-0.92-3.911-3.732-4.152-0.462c-1.488,0.05-1.573,1.503-2.538,2.076
		c-0.146-1.237-1.06-1.708-1.153-2.999c-0.341,0.12-0.582,0.342-0.923,0.462c-0.207,1.053,0.384,1.308,0.461,2.076
		c-0.506,0.263-0.942,0.596-1.845,0.461c0.178,1.409-0.419,2.042-1.384,2.308c0.178-1.617,1.424-3.437-0.461-4.152
		c0.373,0.996,0.1,2.874-0.923,3.69c-0.058,0.827,0.693,0.846,0.692,1.615c-0.91,0.563-1.941-0.417-2.538,0.461
		c0.093,1.369,0.861,2.062,1.846,2.538c0.731-0.316,2.416-0.903,2.999,0c-0.697,0.84-1.733,1.342-2.076,2.537
		c-5.155,1.431-13.254-0.612-15.687,4.384c-1.565-1.665-2.197-4.263-2.307-7.383c1.918-0.466,2.634-2.134,3.691-3.46
		c1.523,0.527,2.977-2.135,4.614-0.23c0.041,1.348-1.439,1.176-1.154,2.768c1.687-0.312,1.665-2.334,2.538-3.46
		c0.482,0.133,0.659,0.572,1.384,0.461c0.189,0.998-0.053,1.746,0.923,2.308c0.06,0.675-0.521,0.709-0.461,1.384
		c0.103,0.897,1.055,0.944,1.615,1.384c0.851-0.148,1.21-0.789,1.384-1.614c-1.549-1.3-1.431-3.883-1.615-5.768
		c1.016-0.605,1.357,0.359,2.538,0.23c1.977-0.895,0.583-2.852,1.384-4.383c-0.186-1.198-1.686-1.083-1.846-2.307
		c1.61-2.979,6.506-1.754,7.613,0.691c3.228-0.096,6.438-0.829,7.613,1.615c0.901-0.604,1.42-0.23,2.076-1.153
		C110.825,123.548,112.136,124.775,113.086,126.363z"/>
	<path fill-rule="evenodd" clip-rule="evenodd" fill="#4B3029" d="M77.328,154.276c-0.63-1.775-1.068-4.899-1.153-6.459
		c3.171,1.161,4.193,3.825,5.075,7.151c0.859,2.916,4.376,4.12,3.922,7.612c1.866,0.133,3.02,0.979,2.768,3.23
		c2.574-0.319,2.354,3.303,2.769,4.383c-4.305,0.247-4.947-4.37-7.844-4.152c-0.111-0.727,0.708-0.522,0.461-1.385
		c-0.721-0.707-1.995,0.411-2.307-0.461c-0.276-0.996,0.755-1.293,0.23-1.846c-1.368-0.862-2.368-2.093-3.229-3.46
		C78.354,157.436,78.127,155.285,77.328,154.276z"/>
	<path fill-rule="evenodd" clip-rule="evenodd" fill="#39434F" d="M72.022,160.274c1.903,5.038,4.193,10.196,5.998,15.918
		c1.036,3.285,3.509,9.185,0.922,11.766c-1.384-1.153-1.168-3.907-3.691-3.922c-1.284-2.701-0.859-5.857-2.999-7.844
		c-0.202-3.939-1.879-11.153-0.923-14.995C71.426,160.812,71.496,160.426,72.022,160.274z"/>
</g>
</svg>
